<?xml version="1.0" encoding="utf-8"?>
<!-- Generator: Adobe Illustrator 17.0.0, SVG Export Plug-In . SVG Version: 6.00 Build 0) -->
<!DOCTYPE svg PUBLIC "-//W3C//DTD SVG 1.1//EN" "http://www.w3.org/Graphics/SVG/1.1/DTD/svg11.dtd">
<svg xmlns="http://www.w3.org/2000/svg" xmlns:xlink="http://www.w3.org/1999/xlink" version="1.1" id="Layer_1" x="0px" y="0px" width="52px" height="52px" viewBox="0 0 50 50" enable-background="new 0 0 50 50" xml:space="preserve" fill="#00b3a7">

<path fill="none" stroke="#00b3a7" stroke-width="2" stroke-linecap="round" stroke-linejoin="round" stroke-miterlimit="10" d="  M41,27c0,0,0-14.926,0-17"/>
<circle fill="none" stroke="#00b3a7" stroke-width="2.0362" stroke-linecap="round" stroke-miterlimit="10" cx="40" cy="40" r="9"/>
<path fill="none" stroke="#00b3a7" stroke-width="2" stroke-linejoin="round" stroke-miterlimit="10" d="M21,1C9.952,1,1,5.027,1,10  s8.952,9,20,9s20-4.027,20-9S32.048,1,21,1z"/>
<path fill="none" stroke="#00b3a7" stroke-width="2" stroke-linecap="round" stroke-linejoin="round" stroke-miterlimit="10" d="  M1,10c0,2.074,0,26.926,0,29c0,4.973,8.952,9,20,9c2.834,0,5.53-0.265,7.973-0.743"/>
<path fill="none" stroke="#00b3a7" stroke-width="2" stroke-linecap="round" stroke-linejoin="round" stroke-miterlimit="10" d="  M1,30c0,4.973,8.952,9,20,9c1.724,0,3.397-0.098,4.992-0.282"/>
<path fill="none" stroke="#00b3a7" stroke-width="2" stroke-linecap="round" stroke-linejoin="round" stroke-miterlimit="10" d="  M1,20c0,4.973,8.952,9,20,9s20-4.027,20-9"/>
<line fill="none" stroke="#00b3a7" stroke-width="2" stroke-miterlimit="10" x1="40" y1="35" x2="40" y2="45"/>
<line fill="none" stroke="#00b3a7" stroke-width="2" stroke-miterlimit="10" x1="45" y1="40" x2="35" y2="40"/>
</svg>
