<?xml version="1.0" encoding="iso-8859-1"?>
<!-- Generator: Adobe Illustrator 20.1.0, SVG Export Plug-In . SVG Version: 6.00 Build 0)  -->
<svg xmlns="http://www.w3.org/2000/svg" xmlns:xlink="http://www.w3.org/1999/xlink" version="1.1" x="0px" y="0px" viewBox="0 0 50 50" style="enable-background:new 0 0 50 50;" xml:space="preserve" fill="#00b3a7" width="52px" height="52px">
<g fill="#00b3a7">
	<path style="fill-rule:evenodd;clip-rule:evenodd;" d="M47.37,25.743l-14.119,0.008c3.899-5.483,9.497-8.582,16.749-9.682   C49.546,19.738,48.7,22.852,47.37,25.743z" fill="#00b3a7"/>
</g>
<g fill="#00b3a7">
	<path style="fill-rule:evenodd;clip-rule:evenodd;" d="M30.491,25.759H19.102c-0.254-7.329,1.776-14.765,5.698-19.24   C28.784,10.879,30.844,18.284,30.491,25.759z" fill="#00b3a7"/>
</g>
<g fill="#00b3a7">
	<path style="fill-rule:evenodd;clip-rule:evenodd;" d="M16.303,25.736l-13.85,0.008C1.184,22.814,0.385,19.791,0,16.039   C7.136,17.308,12.642,20.237,16.303,25.736z" fill="#00b3a7"/>
</g>
<g fill="#00b3a7">
	<path style="fill-rule:evenodd;clip-rule:evenodd;" d="M44.686,31.134L5.022,31.15c-0.531-0.738-1.138-1.776-1.515-2.599h42.695   C45.801,29.473,45.263,30.327,44.686,31.134z" fill="#00b3a7"/>
</g>
<g fill="#00b3a7">
	<path style="fill-rule:evenodd;clip-rule:evenodd;" d="M40.111,36.133L9.42,36.117c-1.022-0.815-1.715-1.238-2.537-2.323h35.804   C41.887,34.671,40.972,35.463,40.111,36.133z" fill="#00b3a7"/>
</g>
<g fill="#00b3a7">
	<path style="fill-rule:evenodd;clip-rule:evenodd;" d="M27.138,38.27l-4.822,0.008c0.677,1.407,1.538,2.591,2.522,3.722   C25.808,40.846,26.453,39.655,27.138,38.27z" fill="#00b3a7"/>
</g>
<g fill="#00b3a7">
	<path style="fill-rule:evenodd;clip-rule:evenodd;" d="M28.145,38.285L27.622,41.5c3.507-0.646,6.598-1.661,9.282-3.214H28.145z" fill="#00b3a7"/>
</g>
<g fill="#00b3a7">
	<path d="M21.455,38.278h-8.774c2.622,1.622,5.691,2.699,9.182,3.422L21.455,38.278L21.455,38.278z" fill="#00b3a7"/>
</g>
</svg>
