<?xml version="1.0" encoding="utf-8"?>
<!-- Generator: Adobe Illustrator 18.1.1, SVG Export Plug-In . SVG Version: 6.00 Build 0)  -->
<svg xmlns="http://www.w3.org/2000/svg" xmlns:xlink="http://www.w3.org/1999/xlink" version="1.1" id="Layer_1" x="0px" y="0px" viewBox="0 0 50 50" enable-background="new 0 0 50 50" xml:space="preserve" fill="#00b3a7" width="52px" height="52px">
<path d="M27.4,27c-0.7,0-1.2-0.5-1.2-1.2c0-0.5,0.3-0.9,0.7-1.1C26.4,24.3,25.7,24,25,24c-1.7,0-3,1.3-3,3c0,1.7,1.3,3,3,3  s3-1.3,3-3c0-0.1,0-0.1,0-0.2C27.8,26.9,27.6,27,27.4,27z" fill="#00b3a7"/>
<path fill="none" stroke="#00b3a7" stroke-width="2" stroke-linecap="round" stroke-linejoin="round" stroke-miterlimit="10" d="  M25,11c-9.9,0-18,9.8-18,19.7C7,40.6,15.1,45,25,45s18-4.4,18-14.3C43,20.8,34.9,11,25,11z"/>
<path fill="none" stroke="#00b3a7" stroke-width="2" stroke-linecap="round" stroke-linejoin="round" stroke-miterlimit="10" d="  M32.4,38.2c0,0-3.4,1.8-7.4,1.8s-7.4-1.8-7.4-1.8"/>
<circle fill="none" stroke="#00b3a7" stroke-width="2" stroke-miterlimit="10" cx="42" cy="8" r="3"/>
<path fill="none" stroke="#00b3a7" stroke-width="2" stroke-linecap="round" stroke-miterlimit="10" d="M39,8.4  c-3,0.2-4.8,2.4-6,4.8"/>
<circle fill="none" stroke="#00b3a7" stroke-width="2" stroke-miterlimit="10" cx="8" cy="10" r="3"/>
<path fill="none" stroke="#00b3a7" stroke-width="2" stroke-linecap="round" stroke-miterlimit="10" d="M11,10.4  c3,0.2,4.8,0.4,6,2.8"/>
<circle fill="none" stroke="#00b3a7" stroke-width="2" stroke-linecap="round" stroke-linejoin="round" stroke-miterlimit="10" cx="25" cy="27" r="7"/>
</svg>
