<?xml version="1.0" encoding="iso-8859-1"?>
<!-- Generator: Adobe Illustrator 21.1.0, SVG Export Plug-In . SVG Version: 6.00 Build 0)  -->
<svg xmlns="http://www.w3.org/2000/svg" xmlns:xlink="http://www.w3.org/1999/xlink" version="1.1" id="Layer_1" x="0px" y="0px" viewBox="0 0 50 50" style="enable-background:new 0 0 50 50;" xml:space="preserve" fill="#00b3a7" width="52px" height="52px">
<path style="fill:none;stroke:#00b3a7;stroke-width:2;stroke-linecap:round;stroke-miterlimit:10;" d="M35.5,3L25,15v30h21V15  L35.5,3z" fill="#00b3a7"/>
<path style="fill:none;stroke:#00b3a7;stroke-width:2;stroke-linecap:round;stroke-miterlimit:10;" d="M14.5,3L4,15v30h21V15L14.5,3  z" fill="#00b3a7"/>
<rect x="29" y="18" style="fill:none;stroke:#00b3a7;stroke-width:2;stroke-linecap:round;stroke-miterlimit:10;" width="4" height="5" fill="#00b3a7"/>
<rect x="38" y="18" style="fill:none;stroke:#00b3a7;stroke-width:2;stroke-linecap:round;stroke-miterlimit:10;" width="4" height="5" fill="#00b3a7"/>
<rect x="29" y="27" style="fill:none;stroke:#00b3a7;stroke-width:2;stroke-linecap:round;stroke-miterlimit:10;" width="4" height="5" fill="#00b3a7"/>
<rect x="38" y="27" style="fill:none;stroke:#00b3a7;stroke-width:2;stroke-linecap:round;stroke-miterlimit:10;" width="4" height="5" fill="#00b3a7"/>
<rect x="29" y="36" style="fill:none;stroke:#00b3a7;stroke-width:2;stroke-linecap:round;stroke-miterlimit:10;" width="4" height="5" fill="#00b3a7"/>
<rect x="38" y="36" style="fill:none;stroke:#00b3a7;stroke-width:2;stroke-linecap:round;stroke-miterlimit:10;" width="4" height="5" fill="#00b3a7"/>
<rect x="8" y="18" style="fill:none;stroke:#00b3a7;stroke-width:2;stroke-linecap:round;stroke-miterlimit:10;" width="4" height="5" fill="#00b3a7"/>
<rect x="17" y="18" style="fill:none;stroke:#00b3a7;stroke-width:2;stroke-linecap:round;stroke-miterlimit:10;" width="4" height="5" fill="#00b3a7"/>
<rect x="8" y="27" style="fill:none;stroke:#00b3a7;stroke-width:2;stroke-linecap:round;stroke-miterlimit:10;" width="4" height="5" fill="#00b3a7"/>
<rect x="17" y="27" style="fill:none;stroke:#00b3a7;stroke-width:2;stroke-linecap:round;stroke-miterlimit:10;" width="4" height="5" fill="#00b3a7"/>
<rect x="8" y="36" style="fill:none;stroke:#00b3a7;stroke-width:2;stroke-linecap:round;stroke-miterlimit:10;" width="4" height="5" fill="#00b3a7"/>
<rect x="17" y="36" style="fill:none;stroke:#00b3a7;stroke-width:2;stroke-linecap:round;stroke-miterlimit:10;" width="4" height="5" fill="#00b3a7"/>
</svg>
