<?xml version="1.0" encoding="iso-8859-1"?>
<!-- Generator: Adobe Illustrator 19.1.1, SVG Export Plug-In . SVG Version: 6.00 Build 0)  -->
<svg xmlns="http://www.w3.org/2000/svg" xmlns:xlink="http://www.w3.org/1999/xlink" version="1.1" id="Layer_1" x="0px" y="0px" viewBox="0 0 50 50" style="enable-background:new 0 0 50 50;" xml:space="preserve" fill="#00b3a7" width="52px" height="52px">
<path d="M25,6c11.579,0,21,8.072,21,17.994c0,9.922-9.421,17.994-21,17.994c-1.771,0-3.494-0.202-5.266-0.617l-1.185-0.278  l-0.791,0.924c-0.685,0.8-2.982,3.15-6.771,3.81c0.724-1.304,1.27-2.63,1.629-3.961c0.279-1.034,0.329-1.578,0.343-2.051  l0.047-1.116l-0.925-0.625C6.945,34.602,4,29.47,4,23.994C4,14.072,13.421,6,25,6 M25,4C12.329,4,2,12.88,2,23.994  c0,6.453,3.533,12.067,8.961,15.736c-0.009,0.216,0.007,0.566-0.276,1.614c-0.351,1.299-1.059,3.128-2.498,5.191L7.165,48h1.786  c6.19,0,9.772-4.035,10.326-4.683c1.845,0.432,3.741,0.67,5.722,0.67c12.671,0,23-8.879,23-19.994C48,12.879,37.671,4,25,4L25,4z" fill="#00b3a7"/>
<g fill="#00b3a7">
	<path d="M20.3,15.4c1.1-1.2,2.7-1.8,4.7-1.8c1.8,0,3.3,0.5,4.4,1.6c1.1,1,1.7,2.4,1.7,4c0,1-0.2,1.8-0.6,2.4s-1.2,1.5-2.5,2.7   c-0.9,0.9-1.5,1.6-1.8,2.2c-0.3,0.5-0.4,1.3-0.4,2.5h-2.5c0-1.3,0.2-2.4,0.5-3.2c0.3-0.8,1-1.7,2.1-2.8l1.1-1.1   c0.3-0.3,0.6-0.6,0.8-1c0.4-0.6,0.6-1.2,0.6-1.9c0-0.9-0.3-1.7-0.8-2.3c-0.5-0.7-1.5-1-2.7-1c-1.6,0-2.7,0.6-3.3,1.7   C21.3,18,21.1,19,21,20.1h-2.5C18.6,18.2,19.1,16.6,20.3,15.4z M23.3,31.3H26v2.9h-2.7V31.3z" fill="#00b3a7"/>
</g>
</svg>
