<?xml version="1.0" encoding="utf-8"?>
<!-- Generator: Adobe Illustrator 18.1.1, SVG Export Plug-In . SVG Version: 6.00 Build 0)  -->
<svg xmlns="http://www.w3.org/2000/svg" xmlns:xlink="http://www.w3.org/1999/xlink" version="1.1" id="Layer_1" x="0px" y="0px" viewBox="0 0 50 50" enable-background="new 0 0 50 50" xml:space="preserve" fill="#00b3a7" width="52px" height="52px">
<circle cx="27" cy="24" r="2" fill="#00b3a7"/>
<circle cx="21" cy="30" r="2" fill="#00b3a7"/>
<circle cx="11" cy="40" r="2" fill="#00b3a7"/>
<circle cx="5" cy="46" r="2" fill="#00b3a7"/>
<rect x="15.3" y="31.8" transform="matrix(0.7071 -0.7071 0.7071 0.7071 -20.2295 22.0816)" width="2.5" height="7.3" fill="#00b3a7"/>
<path fill="none" stroke="#00b3a7" stroke-width="2" stroke-linecap="round" stroke-linejoin="round" stroke-miterlimit="10" d="  M27,49c4.4,0,8-3.6,8-8c0-5.9,6-8,6-17c0-7.7-6.3-14-14-14s-14,6.3-14,14"/>
<path fill="none" stroke="#00b3a7" stroke-width="2" stroke-linecap="round" stroke-linejoin="round" stroke-miterlimit="10" d="  M17,24c0-5.5,4.5-10,10-10s10,4.5,10,10"/>
<path fill="none" stroke="#00b3a7" stroke-width="2" stroke-linecap="round" stroke-linejoin="round" stroke-miterlimit="10" d="  M44,17.1c-1.8-5.2-5.9-9.2-11-11"/>
<path fill="none" stroke="#00b3a7" stroke-width="2" stroke-linecap="round" stroke-linejoin="round" stroke-miterlimit="10" d="  M48.8,14.7C46.6,8.4,41.6,3.4,35.3,1.2"/>
</svg>
