<?xml version="1.0" encoding="utf-8"?>
<!-- Generator: Adobe Illustrator 17.0.0, SVG Export Plug-In . SVG Version: 6.00 Build 0)  -->
<!DOCTYPE svg PUBLIC "-//W3C//DTD SVG 1.1//EN" "http://www.w3.org/Graphics/SVG/1.1/DTD/svg11.dtd">
<svg xmlns="http://www.w3.org/2000/svg" xmlns:xlink="http://www.w3.org/1999/xlink" version="1.1" id="Layer_1" x="0px" y="0px" width="52px" height="52px" viewBox="0 0 50 50" enable-background="new 0 0 50 50" xml:space="preserve" fill="#00b3a7">

<path fill="none" stroke="#00b3a7" stroke-width="2" stroke-linecap="round" stroke-linejoin="round" stroke-miterlimit="10" d="  M8.691,36.056c0,0,8.599-10.35,16.105-17.857S39.219,5.527,39.219,5.527l5.253,5.253c0,0-5.166,6.917-12.672,14.423  S13.944,41.309,13.944,41.309"/>
<path fill="none" stroke="#00b3a7" stroke-width="1.6732" stroke-linecap="round" stroke-linejoin="round" stroke-miterlimit="10" d="  M4.356,45.644c0,0,0.215-3.717,4.343-9.597l5.253,5.253C8.073,45.429,4.356,45.644,4.356,45.644z"/>
<line fill="none" stroke="#00b3a7" stroke-width="2" stroke-linecap="round" stroke-linejoin="round" stroke-miterlimit="10" x1="4.292" y1="45.708" x2="2.97" y2="47.03"/>
<path fill="none" stroke="#00b3a7" stroke-width="2" stroke-linecap="round" stroke-linejoin="round" stroke-miterlimit="10" d="  M39.219,5.527c3.12-1.884,5.972-3.336,7.281-2.027s-0.143,4.161-2.027,7.281"/>
<path fill="none" stroke="#00b3a7" stroke-width="2" stroke-linecap="round" stroke-linejoin="round" stroke-miterlimit="10" d="  M38.61,5.358l-0.797-0.797c0,0-4.812-1.489-10.12,3.818s-6.009,9.007-7.55,10.686c-1.347,1.467-3.225,0.69-3.225,0.69"/>
</svg>
