<?xml version="1.0" encoding="utf-8"?>
<!-- Generator: Adobe Illustrator 17.0.0, SVG Export Plug-In . SVG Version: 6.00 Build 0)  -->
<!DOCTYPE svg PUBLIC "-//W3C//DTD SVG 1.1//EN" "http://www.w3.org/Graphics/SVG/1.1/DTD/svg11.dtd">
<svg xmlns="http://www.w3.org/2000/svg" xmlns:xlink="http://www.w3.org/1999/xlink" version="1.1" id="Layer_1" x="0px" y="0px" width="52px" height="52px" viewBox="0 0 50 50" enable-background="new 0 0 50 50" xml:space="preserve" fill="#00b3a7">

<path fill="none" stroke="#00b3a7" stroke-width="2" stroke-linecap="round" stroke-miterlimit="10" d="M1,38v11h5c0,0,0-2,0-3  c0-2,1-3,3-3h32c2,0,3,1,3,3c0,1,0,3,0,3h5V38H1z"/>
<path fill="none" stroke="#00b3a7" stroke-width="2" stroke-linecap="round" stroke-miterlimit="10" d="M25,23c0,0,0-1.895,0-3  c0-1.105-2.833-2-8.5-2S8,18.895,8,20c0,1.105,0,4.923,0,4.923"/>
<path fill="none" stroke="#00b3a7" stroke-width="2" stroke-linecap="round" stroke-miterlimit="10" d="M25,23c0,0,0-1.895,0-3  c0-1.105,2.833-2,8.5-2s8.5,0.895,8.5,2c0,1.105,0,4.923,0,4.923"/>
<path fill="none" stroke="#00b3a7" stroke-width="2" stroke-linecap="round" stroke-miterlimit="10" d="M47,28.175  c0,0,0-14.071,0-15.175c0-1.105-0.896-2-2-2c-0.366,0-39.634,0-40,0c-1.104,0-2,0.895-2,2c0,1.105,0,15.175,0,15.175"/>
<path fill="none" stroke="#00b3a7" stroke-width="2" stroke-linecap="round" stroke-miterlimit="10" d="M1,38c0-11,3.571-15,24-15  s24,4,24,15"/>
</svg>
