<?xml version="1.0" encoding="utf-8"?>
<!-- Generator: Adobe Illustrator 18.1.1, SVG Export Plug-In . SVG Version: 6.00 Build 0)  -->
<svg xmlns="http://www.w3.org/2000/svg" xmlns:xlink="http://www.w3.org/1999/xlink" version="1.1" id="Layer_1" x="0px" y="0px" viewBox="0 0 50 50" enable-background="new 0 0 50 50" xml:space="preserve" fill="#00b3a7" width="52px" height="52px">
<path fill="none" stroke="#00b3a7" stroke-width="2" stroke-linejoin="round" stroke-miterlimit="10" d="M43,29c0,0,0-6.8,0-9.5  c0-1.3,1-2.4,1-3.1c0-0.7-0.3-1.4-1.4-1.4c-3,0-6.4-1-6.4-1c-0.7-0.1-1.2,0.4-1.2,1c0,0.7,2,2.9,2,5c0,7.3,0,9,0,9"/>
<path fill="none" stroke="#00b3a7" stroke-width="2" stroke-linejoin="round" stroke-miterlimit="10" d="M40.4,12  c2-0.2,3.6-2,3.6-4.1C44,5.6,40,1,40,1s-4,4.6-4,6.9c0,2.1,1.6,3.9,3.6,4.1H40.4z"/>
<path fill="none" stroke="#00b3a7" stroke-width="2" stroke-linejoin="round" stroke-miterlimit="10" d="M48,49c0-0.4,0-14.5,0-14.5  c0-3-2.6-5.5-5.8-5.5H7.8C4.6,29,2,31.4,2,34.5c0,0,0,14.1,0,14.5"/>
<path fill="none" stroke="#00b3a7" stroke-width="2" stroke-linecap="round" stroke-linejoin="round" stroke-miterlimit="10" d="  M48,38.6c-0.7,0.8-1.8,1.4-3,1.4c-2.2,0-4-1.8-4-4"/>
<path fill="none" stroke="#00b3a7" stroke-width="2" stroke-linecap="round" stroke-linejoin="round" stroke-miterlimit="10" d="  M41,36c0,2.2-1.8,4-4,4c-2.2,0-4-1.8-4-4"/>
<path fill="none" stroke="#00b3a7" stroke-width="2" stroke-linecap="round" stroke-linejoin="round" stroke-miterlimit="10" d="  M33,36c0,2.2-1.8,4-4,4c-2.2,0-4-1.8-4-4"/>
<path fill="none" stroke="#00b3a7" stroke-width="2" stroke-linecap="round" stroke-linejoin="round" stroke-miterlimit="10" d="  M25,36c0,2.2-1.8,4-4,4c-2.2,0-4-1.8-4-4"/>
<path fill="none" stroke="#00b3a7" stroke-width="2" stroke-linecap="round" stroke-linejoin="round" stroke-miterlimit="10" d="  M17,36c0,2.2-1.8,4-4,4c-2.2,0-4-1.8-4-4"/>
<path fill="none" stroke="#00b3a7" stroke-width="2" stroke-linecap="round" stroke-linejoin="round" stroke-miterlimit="10" d="  M9,36c0,2.2-1.8,4-4,4c-1.2,0-2.3-0.5-3-1.4"/>
<line fill="none" stroke="#00b3a7" stroke-width="2" stroke-linecap="round" stroke-linejoin="round" stroke-miterlimit="10" x1="1" y1="49" x2="49" y2="49"/>
<path fill="none" stroke="#00b3a7" stroke-width="2" stroke-linejoin="round" stroke-miterlimit="10" d="M28,29c0,0,0-6.8,0-9.5  c0-1.3,1-2.4,1-3.1c0-0.7-0.3-1.4-1.4-1.4c-3,0-6.4-1-6.4-1c-0.7-0.1-1.2,0.4-1.2,1c0,0.7,2,2.9,2,5c0,7.3,0,9,0,9"/>
<path fill="none" stroke="#00b3a7" stroke-width="2" stroke-linejoin="round" stroke-miterlimit="10" d="M25.4,12  c2-0.2,3.6-2,3.6-4.1C29,5.6,25,1,25,1s-4,4.6-4,6.9c0,2.1,1.6,3.9,3.6,4.1H25.4z"/>
<path fill="none" stroke="#00b3a7" stroke-width="2" stroke-linejoin="round" stroke-miterlimit="10" d="M13,29c0,0,0-6.8,0-9.5  c0-1.3,1-2.4,1-3.1c0-0.7-0.3-1.4-1.4-1.4c-3,0-6.4-1-6.4-1C5.5,13.9,5,14.4,5,15c0,0.7,2,2.9,2,5c0,7.3,0,9,0,9"/>
<path fill="none" stroke="#00b3a7" stroke-width="2" stroke-linejoin="round" stroke-miterlimit="10" d="M10.4,12  c2-0.2,3.6-2,3.6-4.1C14,5.6,10,1,10,1S6,5.6,6,7.9C6,10,7.6,11.8,9.6,12H10.4z"/>
<line fill="none" stroke="#00b3a7" stroke-width="2" stroke-linecap="round" stroke-linejoin="round" stroke-miterlimit="10" x1="25" y1="8" x2="25" y2="11.8"/>
<line fill="none" stroke="#00b3a7" stroke-width="2" stroke-linecap="round" stroke-linejoin="round" stroke-miterlimit="10" x1="40" y1="8" x2="40" y2="11.8"/>
<line fill="none" stroke="#00b3a7" stroke-width="2" stroke-linecap="round" stroke-linejoin="round" stroke-miterlimit="10" x1="10" y1="8" x2="10" y2="11.8"/>
</svg>
