<?xml version="1.0" encoding="iso-8859-1"?>
<!-- Generator: Adobe Illustrator 21.0.1, SVG Export Plug-In . SVG Version: 6.00 Build 0)  -->
<svg xmlns="http://www.w3.org/2000/svg" xmlns:xlink="http://www.w3.org/1999/xlink" version="1.1" x="0px" y="0px" viewBox="0 0 50 50" style="enable-background:new 0 0 50 50;" xml:space="preserve" fill="#00b3a7" width="52px" height="52px">
<path style="fill:none;stroke:#00b3a7;stroke-width:2;stroke-linecap:round;stroke-linejoin:round;stroke-miterlimit:10;" d="  M29.969,19.109c6.139-5.173,9.916,0.154,9.916,0.154s-0.76,0.986-0.548,1.528c0.279,0.708,1.448,0.223,1.448,0.223  s-0.357,1.245-0.167,1.754c0.207,0.557,1.569,0.257,1.569,0.257s-0.654,1.726,0.717,2.366c1.25,0.584,2.054-1.353,2.054-1.353  s0.729,2.062,2.375,1.31c1.649-0.752,0.584-2.34,0.584-2.34s0.834-0.337,1.051-1.432c0.252-1.269-1.143-1.785-1.143-1.785  s0.538-1.019-0.064-1.726c-0.367-0.43-1.657-0.281-1.657-0.281s0.208-1.182-0.991-1.826c-1.199-0.644-2.487,0.433-2.487,0.433  s-0.689-0.696-1.641-0.849" fill="#00b3a7"/>
<path style="fill:none;stroke:#00b3a7;stroke-width:2;stroke-linecap:round;stroke-linejoin:round;stroke-miterlimit:10;" d="  M29.964,19.11c5.251-5.135,0.772-8.995,0.772-8.995s-0.986,0.76-1.528,0.548c-0.708-0.279-0.223-1.448-0.223-1.448  s-1.245,0.357-1.754,0.167c-0.557-0.207-0.257-1.569-0.257-1.569s-1.726,0.654-2.366-0.717c-0.584-1.25,1.353-2.054,1.353-2.054  s-2.062-0.729-1.31-2.375c0.752-1.649,2.34-0.584,2.34-0.584s0.337-0.834,1.432-1.051c1.269-0.252,1.785,1.143,1.785,1.143  s1.019-0.538,1.726,0.064c0.43,0.367,0.281,1.657,0.281,1.657s1.182-0.208,1.826,0.991c0.645,1.199-0.432,2.488-0.432,2.488  s0.882,0.625,1.085,1.872" fill="#00b3a7"/>
<path style="fill:none;stroke:#00b3a7;stroke-width:2;stroke-linecap:round;stroke-linejoin:round;stroke-miterlimit:10;" d="  M46.52,3.407c-1.646-1.773-3.058,0.612-3.058,0.612s-0.611-1.774-2.263-1.101c-1.473,0.6-0.359,3.13-0.359,3.13  s-1.661-1.514-2.76-0.745c-1.223,0.856,0.245,3.302,0.245,3.302s-1.59-1.773-2.997-0.489c-1.357,1.239,1.407,5.137-5.382,11.008  c7.706-6.36,9.477-1.961,11.925-4.281c1.162-1.101,0.061-3.058,0.061-3.058s2.337,1.59,3.486,0.306  c1.04-1.162-0.979-2.813-0.979-2.813s2.14,1.04,2.813-0.306c0.795-1.59-1.345-2.568-1.345-2.568S47.995,4.996,46.52,3.407z" fill="#00b3a7"/>
<path style="fill:none;stroke:#00b3a7;stroke-width:2;stroke-linecap:round;stroke-linejoin:round;stroke-miterlimit:10;" d="  M34.26,30.404c1.431-1.432,0.181-6.754-3.872-10.806c-4.053-4.057-9.55-5.322-10.807-3.877C12.405,23.964,0.667,46.403,2.124,47.86  C3.342,49.076,18.054,42.322,34.26,30.404z" fill="#00b3a7"/>
<path style="fill:none;stroke:#00b3a7;stroke-width:2;stroke-linecap:round;stroke-linejoin:round;stroke-miterlimit:10;" d="  M26.619,28.544c3.167,0,3.098,2.675,4.432,4.01" fill="#00b3a7"/>
<path style="fill:none;stroke:#00b3a7;stroke-width:2;stroke-linecap:round;stroke-linejoin:round;stroke-miterlimit:10;" d="  M17.395,34.724c2.564,0.9,2.262,2.621,3.77,4.129" fill="#00b3a7"/>
<path style="fill:none;stroke:#00b3a7;stroke-width:2;stroke-linecap:round;stroke-linejoin:round;stroke-miterlimit:10;" d="  M14.453,24.1c0.496,0.859,3.131,0.584,4.907,4.223" fill="#00b3a7"/>
<path style="fill:none;stroke:#00b3a7;stroke-width:2;stroke-linecap:round;stroke-linejoin:round;stroke-miterlimit:10;" d="  M6.757,36.009c0.914,0.831,2.741,0.748,3.603,3.314" fill="#00b3a7"/>
</svg>
