<?xml version="1.0" encoding="utf-8"?>
<!-- Generator: Adobe Illustrator 17.0.2, SVG Export Plug-In . SVG Version: 6.00 Build 0)  -->
<!DOCTYPE svg PUBLIC "-//W3C//DTD SVG 1.1//EN" "http://www.w3.org/Graphics/SVG/1.1/DTD/svg11.dtd">
<svg xmlns="http://www.w3.org/2000/svg" xmlns:xlink="http://www.w3.org/1999/xlink" version="1.1" id="Layer_1" x="0px" y="0px" width="52px" height="52px" viewBox="0 0 50 50" enable-background="new 0 0 50 50" xml:space="preserve" fill="#00b3a7">
<g fill="#00b3a7">
	<path fill="none" stroke="#00b3a7" stroke-width="2" stroke-linecap="round" stroke-linejoin="round" stroke-miterlimit="10" d="   M13.608,33.096c-0.297-0.418-0.588-0.843-0.841-1.299c-1.814-3.27-2.248-7.048-1.222-10.644c0.443-1.549,1.178-2.953,2.082-4.23"/>
	<path fill="none" stroke="#00b3a7" stroke-width="2" stroke-linecap="round" stroke-linejoin="round" stroke-miterlimit="10" d="   M36.392,16.904c0.297,0.418,0.588,0.843,0.841,1.299c1.814,3.27,2.248,7.048,1.222,10.644c-0.443,1.549-1.178,2.953-2.082,4.23"/>
	<path fill="none" stroke="#00b3a7" stroke-width="2" stroke-linecap="round" stroke-linejoin="round" stroke-miterlimit="10" d="   M33.061,36.362c-0.418,0.296-0.811,0.621-1.265,0.874C29.719,38.389,27.375,39,25.016,39c-2.959,0-5.77-0.956-8.102-2.612"/>
	<path fill="none" stroke="#00b3a7" stroke-width="2" stroke-linecap="round" stroke-linejoin="round" stroke-miterlimit="10" d="   M16.939,13.638c0.418-0.296,0.811-0.622,1.265-0.874C20.281,11.611,22.625,11,24.984,11c2.959,0,5.77,0.956,8.102,2.612"/>
</g>
<line fill="none" stroke="#00b3a7" stroke-width="2" stroke-linecap="round" stroke-linejoin="round" stroke-miterlimit="10" x1="25" y1="1" x2="25" y2="49"/>
<line fill="none" stroke="#00b3a7" stroke-width="2" stroke-linecap="round" stroke-linejoin="round" stroke-miterlimit="10" x1="49" y1="25" x2="1" y2="25"/>
</svg>
