<?xml version="1.0" encoding="utf-8"?>
<!-- Generator: Adobe Illustrator 17.0.2, SVG Export Plug-In . SVG Version: 6.00 Build 0)  -->
<!DOCTYPE svg PUBLIC "-//W3C//DTD SVG 1.1//EN" "http://www.w3.org/Graphics/SVG/1.1/DTD/svg11.dtd">
<svg xmlns="http://www.w3.org/2000/svg" xmlns:xlink="http://www.w3.org/1999/xlink" version="1.1" id="Layer_1" x="0px" y="0px" width="52px" height="52px" viewBox="0 0 50 50" enable-background="new 0 0 50 50" xml:space="preserve" fill="#00b3a7">
<path fill="none" stroke="#00b3a7" stroke-width="2" stroke-linecap="round" stroke-linejoin="round" stroke-miterlimit="10" d="  M29,17c0,1.102-0.898,2-2,2h-4c-1.102,0-2-0.898-2-2v-2c0-1.102,0.898-2,2-2h4c1.102,0,2,0.898,2,2V17z"/>
<g fill="#00b3a7">
	
		<path fill="none" stroke="#00b3a7" stroke-width="1.986" stroke-linecap="round" stroke-linejoin="round" stroke-miterlimit="10" d="   M28.373,13.551c2.29-2.289,5.222-6.71,7.417-10.297c1.37-2.237,5.063-3.163,7.554-0.671C52.11,11.349,36.54,19,28.963,19"/>
	
		<path fill="none" stroke="#00b3a7" stroke-width="1.986" stroke-linecap="round" stroke-linejoin="round" stroke-miterlimit="10" d="   M29,16.254c5.051-1.799,13.337-5.717,11.122-8.369C37.825,5.135,34.16,13.839,29,16.254"/>
</g>
<g fill="#00b3a7">
	
		<path fill="none" stroke="#00b3a7" stroke-width="1.986" stroke-linecap="round" stroke-linejoin="round" stroke-miterlimit="10" d="   M21.627,13.551c-2.29-2.289-5.222-6.71-7.417-10.297c-1.37-2.237-5.063-3.163-7.554-0.671C-2.11,11.349,13.46,19,21.037,19"/>
	
		<path fill="none" stroke="#00b3a7" stroke-width="1.986" stroke-linecap="round" stroke-linejoin="round" stroke-miterlimit="10" d="   M21,16.254c-5.051-1.799-13.337-5.717-11.122-8.369C12.175,5.135,15.84,13.839,21,16.254"/>
</g>
<path fill="none" stroke="#00b3a7" stroke-width="2" stroke-linecap="round" stroke-linejoin="round" stroke-miterlimit="10" d="  M49,46c0,1.657-1.343,3-3,3H4c-1.657,0-3-1.343-3-3V22c0-1.657,1.343-3,3-3h42c1.657,0,3,1.343,3,3V46z"/>
<rect x="22" y="19" fill="none" stroke="#00b3a7" stroke-width="2" stroke-linecap="round" stroke-linejoin="round" stroke-miterlimit="10" width="6" height="30"/>
<rect x="1" y="31" fill="none" stroke="#00b3a7" stroke-width="2" stroke-linecap="round" stroke-linejoin="round" stroke-miterlimit="10" width="21" height="6"/>
<rect x="28" y="31" fill="none" stroke="#00b3a7" stroke-width="2" stroke-linecap="round" stroke-linejoin="round" stroke-miterlimit="10" width="21" height="6"/>
</svg>
