<?xml version="1.0" encoding="iso-8859-1"?>
<!-- Generator: Adobe Illustrator 21.1.0, SVG Export Plug-In . SVG Version: 6.00 Build 0)  -->
<svg xmlns="http://www.w3.org/2000/svg" xmlns:xlink="http://www.w3.org/1999/xlink" version="1.1" id="Layer_1" x="0px" y="0px" viewBox="0 0 50 50" style="enable-background:new 0 0 50 50;" xml:space="preserve" fill="#00b3a7" width="52px" height="52px">
<circle cx="30.5" cy="28.5" r="1.5" fill="#00b3a7"/>
<path d="M23,3c0,1.106,0.896,0,2,0s2,1.106,2,0s-0.896-2-2-2S23,1.895,23,3z" fill="#00b3a7"/>
<circle cx="19.5" cy="28.5" r="1.5" fill="#00b3a7"/>
<path style="fill:none;stroke:#00b3a7;stroke-width:2;stroke-linecap:round;stroke-linejoin:round;stroke-miterlimit:10;" d="  M11.298,21.849c0.093,0.941,0.215,2.921,0.375,3.89c-0.568,0.353-1.907,1.473-1.673,3.464c0.437,3.708,3.276,4.726,3.276,4.726  c0.296,2.831,3.674,9.108,8.401,11.295C22.395,46.295,23.614,47,25,47c1.387,0,2.607-0.706,3.325-1.778  c4.709-2.19,8.044-8.463,8.341-11.293c0,0,2.862-0.982,3.3-4.69c0.235-1.99-1.127-3.147-1.696-3.5  c0.185-0.963,0.324-3.068,0.428-4.16" fill="#00b3a7"/>
<path style="fill:none;stroke:#00b3a7;stroke-width:2;stroke-linecap:round;stroke-linejoin:round;stroke-miterlimit:10;" d="M39,19  c0,0-6.526-2-14-2s-14,2-14,2c0-7.18,1.098-16,14-16S39,11.82,39,19z" fill="#00b3a7"/>
<path style="fill:none;stroke:#00b3a7;stroke-width:2;stroke-linecap:round;stroke-miterlimit:10;" d="M39,19c0,9.065-6.656,5-14,5  s-14,4.375-14-5" fill="#00b3a7"/>
<path style="fill:none;stroke:#00b3a7;stroke-width:2;stroke-linecap:round;stroke-linejoin:round;stroke-miterlimit:10;" d="  M21,37.229c0,0,1.309-0.229,4-0.229s4,0.229,4,0.229" fill="#00b3a7"/>
<path style="fill:none;stroke:#00b3a7;stroke-width:2;stroke-linecap:round;stroke-linejoin:round;stroke-miterlimit:10;" d="M26,42  h-2c-0.552,0-1-0.448-1-1v-3c0-0.552,0.448-1,1-1h2c0.552,0,1,0.448,1,1v3C27,41.552,26.552,42,26,42z" fill="#00b3a7"/>
<path style="fill:none;stroke:#00b3a7;stroke-width:2;stroke-linejoin:round;stroke-miterlimit:10;" d="M27,11L27,11  c0,1.105-0.895,2-2,2l0,0c-1.105,0-2-0.895-2-2V9c0-1.105,0.895-2,2-2l0,0c1.105,0,2,0.895,2,2l0,0" fill="#00b3a7"/>
</svg>
