<?xml version="1.0" encoding="iso-8859-1"?>
<!-- Generator: Adobe Illustrator 20.1.0, SVG Export Plug-In . SVG Version: 6.00 Build 0)  -->
<svg xmlns="http://www.w3.org/2000/svg" xmlns:xlink="http://www.w3.org/1999/xlink" version="1.1" x="0px" y="0px" viewBox="0 0 50 50" style="enable-background:new 0 0 50 50;" xml:space="preserve" fill="#00b3a7" width="52px" height="52px">
<path style="fill:none;stroke:#00b3a7;stroke-width:2;stroke-miterlimit:10;" d="M31.51,34.47l-5.06,5.06  c-1.952,1.952-5.118,1.952-7.07,0l-8.91-8.91c-1.952-1.952-1.952-5.118,0-7.07l5.06-5.06" fill="#00b3a7"/>
<line style="fill:none;stroke:#00b3a7;stroke-width:2;stroke-linecap:round;stroke-miterlimit:10;" x1="13.51" y1="16.49" x2="33.51" y2="36.49" fill="#00b3a7"/>
<line style="fill:none;stroke:#00b3a7;stroke-width:2;stroke-miterlimit:10;" x1="13.37" y1="33.63" x2="3" y2="44" fill="#00b3a7"/>
<line style="fill:none;stroke:#00b3a7;stroke-width:2;stroke-miterlimit:10;" x1="16.37" y1="36.63" x2="6" y2="47" fill="#00b3a7"/>
<path style="fill:none;stroke:#00b3a7;stroke-width:2;stroke-miterlimit:10;" d="M18.49,15.53l5.06-5.06  c1.952-1.952,5.118-1.952,7.07,0l8.91,8.91c1.952,1.952,1.952,5.118,0,7.07l-5.06,5.06" fill="#00b3a7"/>
<line style="fill:none;stroke:#00b3a7;stroke-width:2;stroke-linecap:round;stroke-miterlimit:10;" x1="36.49" y1="33.51" x2="16.49" y2="13.51" fill="#00b3a7"/>
<line style="fill:none;stroke:#00b3a7;stroke-width:2;stroke-miterlimit:10;" x1="36.63" y1="16.37" x2="47" y2="6" fill="#00b3a7"/>
<line style="fill:none;stroke:#00b3a7;stroke-width:2;stroke-miterlimit:10;" x1="33.63" y1="13.37" x2="44" y2="3" fill="#00b3a7"/>
</svg>
