<?xml version="1.0" encoding="utf-8"?>
<!-- Generator: Adobe Illustrator 18.1.1, SVG Export Plug-In . SVG Version: 6.00 Build 0)  -->
<svg xmlns="http://www.w3.org/2000/svg" xmlns:xlink="http://www.w3.org/1999/xlink" version="1.1" id="Layer_1" x="0px" y="0px" viewBox="0 0 50 50" enable-background="new 0 0 50 50" xml:space="preserve" fill="#00b3a7" width="52px" height="52px">
<path fill="none" stroke="#00b3a7" stroke-width="2" stroke-linecap="round" stroke-linejoin="round" stroke-miterlimit="10" d="  M39,9H11c-3.3,0-6,2.7-6,6v26c0,3.3,2.7,6,6,6h28c3.3,0,6-2.7,6-6V15C45,11.7,42.3,9,39,9z"/>
<path fill="none" stroke="#00b3a7" stroke-width="2" stroke-linecap="round" stroke-linejoin="round" stroke-miterlimit="10" d="  M44.2,11.9l-3.3-6.3C40.1,4,38.4,3,36.5,3h-23c-1.9,0-3.6,1-4.4,2.7L5.8,12"/>
<path d="M27.6,6.8C27.1,6.9,26.4,7,25.6,7c-0.7,0-1.4-0.1-2-0.2c-0.9-0.2-1-0.6-1-0.8c0-0.2,0.1-0.5,1-0.8c1.1-0.3,2.9-0.3,4,0  c0.9,0.2,1,0.6,1,0.8C28.6,6.2,28.5,6.5,27.6,6.8z" fill="#00b3a7"/>
<circle cx="25" cy="28" r="3" fill="#00b3a7"/>
<circle cx="34" cy="19" r="3" fill="#00b3a7"/>
<circle cx="16" cy="37" r="3" fill="#00b3a7"/>
</svg>
