<?xml version="1.0" encoding="iso-8859-1"?>
<!-- Generator: Adobe Illustrator 20.1.0, SVG Export Plug-In . SVG Version: 6.00 Build 0)  -->
<svg xmlns="http://www.w3.org/2000/svg" xmlns:xlink="http://www.w3.org/1999/xlink" version="1.1" x="0px" y="0px" viewBox="0 0 50 50" style="enable-background:new 0 0 50 50;" xml:space="preserve" fill="#00b3a7" width="52px" height="52px">
<polyline style="fill:none;stroke:#00b3a7;stroke-width:2;stroke-linecap:round;stroke-miterlimit:10;" points="42,16 29,16 29,4   " fill="#00b3a7"/>
<polygon style="fill:none;stroke:#00b3a7;stroke-width:2;stroke-linecap:round;stroke-miterlimit:10;" points="42,47 8,47 8,3   28.778,3 42,15.833 " fill="#00b3a7"/>
<g fill="#00b3a7">
	<path d="M15.618,24.596c0.494-0.12,1.215-0.195,1.994-0.195c1.275,0,2.16,0.301,2.806,0.9c0.869,0.78,1.319,2.115,1.319,4.08   c0,2.04-0.524,3.495-1.41,4.274c-0.675,0.66-1.68,0.976-3.09,0.976c-0.614,0-1.229-0.061-1.619-0.105V24.596z M17.583,32.995   c0.09,0.03,0.239,0.03,0.345,0.03c0.945,0,1.77-0.93,1.77-3.72c0-2.07-0.54-3.33-1.725-3.33c-0.135,0-0.27,0-0.39,0.045V32.995z" fill="#00b3a7"/>
	<path d="M28.952,29.32c0,3.811-1.35,5.355-3.27,5.355c-2.295,0-3.195-2.431-3.195-5.205c0-2.76,1.095-5.145,3.33-5.145   C28.263,24.326,28.952,27.011,28.952,29.32z M24.527,29.501c0,2.295,0.436,3.465,1.23,3.465c0.824,0,1.14-1.5,1.14-3.556   c0-1.77-0.271-3.374-1.155-3.374C24.963,26.036,24.527,27.326,24.527,29.501z" fill="#00b3a7"/>
	<path d="M35.042,34.405c-0.285,0.135-0.84,0.24-1.529,0.24c-2.58,0-3.811-2.13-3.811-4.995c0-3.81,2.115-5.295,4.08-5.295   c0.69,0,1.17,0.136,1.365,0.271l-0.33,1.649c-0.226-0.104-0.48-0.194-0.915-0.194c-1.11,0-2.115,0.96-2.115,3.465   c0,2.415,0.915,3.359,2.115,3.359c0.33,0,0.705-0.075,0.944-0.149L35.042,34.405z" fill="#00b3a7"/>
</g>
</svg>
