<?xml version="1.0" encoding="utf-8"?>
<!-- Generator: Adobe Illustrator 17.0.0, SVG Export Plug-In . SVG Version: 6.00 Build 0)  -->
<!DOCTYPE svg PUBLIC "-//W3C//DTD SVG 1.1//EN" "http://www.w3.org/Graphics/SVG/1.1/DTD/svg11.dtd">
<svg xmlns="http://www.w3.org/2000/svg" xmlns:xlink="http://www.w3.org/1999/xlink" version="1.1" id="Layer_1" x="0px" y="0px" width="52px" height="52px" viewBox="0 0 50 50" enable-background="new 0 0 50 50" xml:space="preserve" fill="#00b3a7">

<path fill="none" stroke="#00b3a7" stroke-width="2" stroke-linecap="round" stroke-miterlimit="10" d="M33,12h5.4  c0.991,0,3.6,2.657,3.6,3.667v3.667C42,20.343,39.391,23,38.4,23H33"/>
<path fill="none" stroke="#00b3a7" stroke-width="2" stroke-linecap="round" stroke-miterlimit="10" d="M1,11.8  C1,9.9,2.882,8,4.765,8h20.706C26.507,8,33,10.753,33,11.8v11.4c0,1.047-6.493,3.8-7.529,3.8H4.765C2.882,27,1,25.1,1,23.2V11.8z"/>
<path fill="none" stroke="#00b3a7" stroke-width="2" stroke-linecap="round" stroke-miterlimit="10" d="M21.74,27  c-2.695,0-4.019,3.451-4.019,3.451s-1.185,3.885-2.253,7.145C14.651,40.092,18,40.538,18,42.558C18,43.481,17.135,44,16.356,44  H6.209c-1.021,0-1.414-0.692-1.109-1.846c0,0,2.323-10.291,2.583-11.69C7.943,29.065,7.713,27,5.536,27"/>
<polygon fill="none" stroke="#00b3a7" stroke-width="2" stroke-linecap="round" stroke-miterlimit="10" points="47,19 42,19 42,16   47,16 49,17 49,18 "/>
<path fill="none" stroke="#00b3a7" stroke-width="2" stroke-linecap="round" stroke-linejoin="round" stroke-miterlimit="10" d="  M24,27c0,0-2,1.617-2,6h-4.38"/>
</svg>
