<?xml version="1.0" encoding="utf-8"?>
<!-- Generator: Adobe Illustrator 17.1.0, SVG Export Plug-In . SVG Version: 6.00 Build 0)  -->
<!DOCTYPE svg PUBLIC "-//W3C//DTD SVG 1.0//EN" "http://www.w3.org/TR/2001/REC-SVG-20010904/DTD/svg10.dtd">
<svg xmlns="http://www.w3.org/2000/svg" xmlns:xlink="http://www.w3.org/1999/xlink" version="1.0" id="Layer_1" x="0px" y="0px" viewBox="0 0 50 50" enable-background="new 0 0 50 50" xml:space="preserve" fill="#00b3a7" width="52px" height="52px">
<polyline fill="none" stroke="#00b3a7" stroke-width="2" stroke-linecap="round" stroke-miterlimit="10" points="38,15 25,15 25,2   "/>
<polyline fill="none" stroke="#00b3a7" stroke-width="2" stroke-linecap="round" stroke-miterlimit="10" points="21,47 5,47 5,1   25,1 39,15 39,27 "/>
<g fill="#00b3a7">
	
		<polyline fill="none" stroke="#00b3a7" stroke-width="2" stroke-linecap="round" stroke-linejoin="round" stroke-miterlimit="10" points="   47.7,31.7 31.9,47.4 25.9,49 27.6,43 43.3,27.3  "/>
	<path d="M48.1,32.6c0,0,0.7-0.7,0.7-0.7c1.6-1.6,1.6-4.2,0-5.8c-1.6-1.6-4.2-1.6-5.8,0c0,0-0.7,0.7-0.7,0.7L48.1,32.6z" fill="#00b3a7"/>
	<polygon points="27.7,42.9 32.1,47.2 26.3,48.6  " fill="#00b3a7"/>
</g>
</svg>
