<?xml version="1.0" encoding="utf-8"?>
<!-- Generator: Adobe Illustrator 17.1.0, SVG Export Plug-In . SVG Version: 6.00 Build 0)  -->
<!DOCTYPE svg PUBLIC "-//W3C//DTD SVG 1.0//EN" "http://www.w3.org/TR/2001/REC-SVG-20010904/DTD/svg10.dtd">
<svg xmlns="http://www.w3.org/2000/svg" xmlns:xlink="http://www.w3.org/1999/xlink" version="1.0" id="Layer_1" x="0px" y="0px" width="52px" height="52px" viewBox="0 0 50 50" style="enable-background:new 0 0 50 50;" xml:space="preserve" fill="#00b3a7">
<rect style="fill:none;" width="50" height="50" fill="#00b3a7"/>
<path style="fill:none;stroke:#00b3a7;stroke-width:2;stroke-linecap:round;stroke-linejoin:round;stroke-miterlimit:10;" d="  M46.2,2.8c-0.1-1-0.9-1.8-1.8-1.8h-5.3c-1,0-1.8,0.7-1.8,1.7L34,37V23h-2v-7l-15,7h-1v-6L1,25v24h48L46.2,2.8z" fill="#00b3a7"/>
<rect x="7" y="27" width="3" height="5" fill="#00b3a7"/>
<rect x="16" y="27" width="3" height="5" fill="#00b3a7"/>
<rect x="25" y="27" width="3" height="5" fill="#00b3a7"/>
<rect x="7" y="36" width="3" height="5" fill="#00b3a7"/>
<rect x="16" y="36" width="3" height="5" fill="#00b3a7"/>
<rect x="25" y="36" width="3" height="5" fill="#00b3a7"/>
</svg>
