<?xml version="1.0" encoding="iso-8859-1"?>
<!-- Generator: Adobe Illustrator 21.1.0, SVG Export Plug-In . SVG Version: 6.00 Build 0)  -->
<svg xmlns="http://www.w3.org/2000/svg" xmlns:xlink="http://www.w3.org/1999/xlink" version="1.1" id="Layer_1" x="0px" y="0px" viewBox="0 0 50 50" style="enable-background:new 0 0 50 50;" xml:space="preserve" fill="#00b3a7" width="52px" height="52px">
<path d="M25,16c-4.962,0-9,4.038-9,9s4.038,9,9,9s9-4.038,9-9c0-1.387-0.325-2.696-0.887-3.87l-1.525,1.525  C31.85,23.389,32,24.177,32,25c0,3.86-3.14,7-7,7s-7-3.14-7-7s3.14-7,7-7c2.183,0,4.135,1.005,5.419,2.576l1.371-1.465  C30.139,17.21,27.71,16,25,16z" fill="#00b3a7"/>
<path d="M43.414,13.414l-0.57,0.57C44.832,17.191,46,20.957,46,25c0,11.58-9.42,21-21,21S4,36.58,4,25S13.42,4,25,4  c5.876,0,11.19,2.433,15.005,6.336l1.372-1.466C37.202,4.633,31.404,2,25,2C12.318,2,2,12.318,2,25s10.318,23,23,23s23-10.318,23-23  c0-4.597-1.361-8.88-3.694-12.478L43.414,13.414z" fill="#00b3a7"/>
<path d="M25,9C16.178,9,9,16.178,9,25s7.178,16,16,16s16-7.178,16-16c0-3.329-1.024-6.423-2.771-8.986l-1.449,1.449  C38.178,19.642,39,22.224,39,25c0,7.72-6.28,14-14,14s-14-6.28-14-14s6.28-14,14-14c4.03,0,7.656,1.721,10.213,4.455l1.369-1.462  C33.665,10.925,29.557,9,25,9z" fill="#00b3a7"/>
<circle cx="25" cy="25" r="2" fill="#00b3a7"/>
<line style="fill:none;stroke:#00b3a7;stroke-width:2;stroke-miterlimit:10;" x1="25" y1="25" x2="41.279" y2="8.721" fill="#00b3a7"/>
<polygon points="43,3 38,8 38,12 42,12 47,7 43,7 " fill="#00b3a7"/>
</svg>
