<?xml version="1.0" encoding="utf-8"?>
<!-- Generator: Adobe Illustrator 18.1.1, SVG Export Plug-In . SVG Version: 6.00 Build 0)  -->
<svg xmlns="http://www.w3.org/2000/svg" xmlns:xlink="http://www.w3.org/1999/xlink" version="1.1" id="Layer_1" x="0px" y="0px" viewBox="0 0 50 50" enable-background="new 0 0 50 50" xml:space="preserve" fill="#00b3a7" width="52px" height="52px">
<ellipse fill="none" stroke="#00b3a7" stroke-width="2" stroke-miterlimit="10" cx="25" cy="29" rx="14" ry="2"/>
<path fill="none" stroke="#00b3a7" stroke-width="2" stroke-miterlimit="10" d="M39,29c0-0.6,0-6.4,0-7c0-1.1-6.3-2-14-2  s-14,0.9-14,2c0,0.6,0,6.4,0,7"/>
<g fill="#00b3a7">
	<polyline fill="none" stroke="#00b3a7" stroke-width="2" stroke-linejoin="round" stroke-miterlimit="10" points="39,25 49,20    25,8 1,20 11,25  "/>
</g>
<line fill="none" stroke="#00b3a7" stroke-width="2" stroke-linejoin="round" stroke-miterlimit="10" x1="5" y1="22" x2="5" y2="38"/>
<path fill="none" stroke="#00b3a7" stroke-width="2" stroke-miterlimit="10" d="M7,40c0,1.1-2,4-2,4s-2-2.9-2-4s0.9-2,2-2  S7,38.9,7,40z"/>
</svg>
