<?xml version="1.0" encoding="utf-8"?>
<!-- Generator: Adobe Illustrator 17.0.0, SVG Export Plug-In . SVG Version: 6.00 Build 0)  -->
<!DOCTYPE svg PUBLIC "-//W3C//DTD SVG 1.1//EN" "http://www.w3.org/Graphics/SVG/1.1/DTD/svg11.dtd">
<svg xmlns="http://www.w3.org/2000/svg" xmlns:xlink="http://www.w3.org/1999/xlink" version="1.1" id="Layer_1" x="0px" y="0px" width="52px" height="52px" viewBox="0 0 50 50" enable-background="new 0 0 50 50" xml:space="preserve" fill="#00b3a7">

<path fill="none" stroke="#00b3a7" stroke-width="2" stroke-linecap="round" stroke-linejoin="round" stroke-miterlimit="10" d="  M21,32c0-1.856,1.685-2.906,3.798-2.387c0.831-2.39,4.226-2.009,4.953-0.797c0.485-1.143,1.957-2.037,2.91-2.044  c1.634-0.012,3.602,0.242,4.426,2.39c3.652-1.675,5.723,0.966,5.723,2.974"/>
<path fill="none" stroke="#00b3a7" stroke-width="2" stroke-linecap="round" stroke-linejoin="round" stroke-miterlimit="10" d="  M6.292,45.252l2.698-1.76c1.492-0.953,2.32-1.118,4.249-0.121c1.867,0.964,7.608,3.963,9.043,4.662  c4.411,2.147,6.303,0.225,8.434-1.01c1.818-1.052,14.691-9.616,16.044-10.576c2.112-1.497,2.759-3.018,1.798-4.275  c-0.727-0.95-2.352-1.529-5.67,0.44"/>
<path fill="none" stroke="#00b3a7" stroke-width="2" stroke-linecap="round" stroke-linejoin="round" stroke-miterlimit="10" d="  M18,39c0,0,3.503,1,6.199,1c0,0,4.402,0,5.801,0c2.504,0,4-0.762,4-2.5c0-1.591-1.427-2.5-4-2.5c-2.354,0-6.935-1.165-8.254-1.956  C20.138,32.079,19.425,29,13.464,29c-2.691,0-3.687,0.589-5.177,1.178C5.66,31.219,1,33.457,1,33.457"/>
<line fill="none" stroke="#00b3a7" stroke-width="2" stroke-linecap="round" stroke-linejoin="round" stroke-miterlimit="10" x1="42.882" y1="32.615" x2="33.849" y2="38.691"/>
<path fill="none" stroke="#00b3a7" stroke-width="2" stroke-linecap="round" stroke-miterlimit="10" d="M33.875,26.875  c2.938-8.812,2.54-13.994,0.159-19.955"/>
<path fill="none" stroke="#00b3a7" stroke-width="2" stroke-linecap="round" stroke-linejoin="round" stroke-miterlimit="10" d="  M35.862,19.616c1.05,0.798,3.078,1.636,5.477-0.612C44.06,16.454,45.192,7.4,30.888,1c0.599,4.3-6.278,7.696-4.967,15.045  C27.086,22.567,34.491,21.204,35.862,19.616z"/>
</svg>
