<?xml version="1.0" encoding="utf-8"?>
<!-- Generator: Adobe Illustrator 18.1.1, SVG Export Plug-In . SVG Version: 6.00 Build 0)  -->
<svg xmlns="http://www.w3.org/2000/svg" xmlns:xlink="http://www.w3.org/1999/xlink" version="1.1" id="Layer_1" x="0px" y="0px" viewBox="0 0 50 50" enable-background="new 0 0 50 50" xml:space="preserve" fill="#00b3a7" width="52px" height="52px">
<path fill="none" stroke="#00b3a7" stroke-width="2" stroke-linecap="round" stroke-linejoin="round" stroke-miterlimit="10" d="  M12,38.5c0,4.1,3.4,7.5,7.5,7.5c2.8,0,5.4-1.5,6.6-3.9C33.5,27.1,39,29.4,39,16.5C39,9.6,33.4,4,26.5,4S14,9.6,14,16.5"/>
<path fill="none" stroke="#00b3a7" stroke-width="2" stroke-linecap="round" stroke-miterlimit="10" d="M34,16.5  c0-4.1-3.4-7.5-7.5-7.5S19,12.4,19,16.5c0,2.5-3,3.4-3,5.5c0,0.9,0.6,1.6,1.5,1.9s2.5,1.2,2.5,2.6s-1.7,1.6-2.6,2.5S16,30.8,16,32  c0,2.2,1.8,4,4,4"/>
</svg>
