<?xml version="1.0" encoding="utf-8"?>
<!-- Generator: Adobe Illustrator 18.1.1, SVG Export Plug-In . SVG Version: 6.00 Build 0)  -->
<svg xmlns="http://www.w3.org/2000/svg" xmlns:xlink="http://www.w3.org/1999/xlink" version="1.1" id="Layer_1" x="0px" y="0px" viewBox="0 0 50 50" enable-background="new 0 0 50 50" xml:space="preserve" fill="#00b3a7" width="52px" height="52px">
<path fill="none" stroke="#00b3a7" stroke-width="2" stroke-linecap="round" stroke-linejoin="round" stroke-miterlimit="10" d="  M33,23V12c0-1.1-0.9-2-2-2H19c-1.1,0-2,0.9-2,2v7H3c-1.1,0-2,0.9-2,2v18.8h48V25c0-1.1-0.9-2-2-2H33z"/>
<path d="M24.4,16.4h-1.6v-1.1h0.1c0.5,0,1-0.1,1.3-0.3c0.3-0.2,0.5-0.5,0.6-1H26v8h-1.6V16.4z" fill="#00b3a7"/>
<path d="M7,31c0-0.4,0-0.7,0.1-1c0.1-0.3,0.2-0.6,0.3-0.9c0.1-0.3,0.3-0.6,0.6-0.8c0.2-0.3,0.5-0.5,0.8-0.8l0.7-0.6  c0.2-0.2,0.3-0.3,0.4-0.4c0.1-0.1,0.2-0.3,0.3-0.4c0.1-0.1,0.1-0.3,0.1-0.4c0-0.2,0-0.3,0-0.6c0-0.7-0.3-1-0.8-1  c-0.2,0-0.4,0-0.5,0.1c-0.1,0.1-0.2,0.2-0.3,0.3c-0.1,0.1-0.1,0.3-0.1,0.5c0,0.2,0,0.4,0,0.6H7v-0.3c0-0.8,0.2-1.3,0.6-1.7  c0.4-0.4,1-0.6,1.9-0.6c0.8,0,1.4,0.2,1.8,0.6c0.4,0.4,0.6,0.9,0.6,1.6c0,0.3,0,0.5-0.1,0.7c0,0.2-0.1,0.4-0.2,0.6  c-0.1,0.2-0.2,0.4-0.4,0.6c-0.2,0.2-0.4,0.4-0.6,0.6l-0.9,0.9c-0.2,0.2-0.4,0.4-0.6,0.6C9.1,29.4,9,29.6,9,29.7H12V31H7z" fill="#00b3a7"/>
<path d="M39.8,33.7c0.1,0.2,0.4,0.4,0.7,0.4c0.2,0,0.4,0,0.5-0.1c0.1-0.1,0.2-0.2,0.3-0.3c0.1-0.1,0.1-0.3,0.1-0.4  c0-0.2,0-0.3,0-0.5c0-0.2,0-0.4,0-0.5c0-0.2-0.1-0.3-0.2-0.4c-0.1-0.1-0.2-0.2-0.3-0.3c-0.1-0.1-0.3-0.1-0.5-0.1h-0.5v-1.1h0.5  c0.2,0,0.3,0,0.4-0.1c0.1-0.1,0.2-0.2,0.3-0.3c0.1-0.1,0.1-0.2,0.2-0.4c0-0.2,0.1-0.3,0.1-0.5c0-0.4-0.1-0.7-0.2-0.8  c-0.1-0.2-0.3-0.2-0.6-0.2c-0.2,0-0.3,0-0.4,0.1c-0.1,0.1-0.2,0.2-0.3,0.3c-0.1,0.1-0.1,0.3-0.1,0.4c0,0.2,0,0.3,0,0.5h-1.5  c0-0.8,0.2-1.4,0.6-1.8c0.4-0.4,1-0.6,1.7-0.6c0.7,0,1.3,0.2,1.7,0.5c0.4,0.3,0.6,0.8,0.6,1.6c0,0.5-0.1,0.9-0.3,1.2  c-0.2,0.3-0.5,0.5-0.9,0.6v0c0.5,0.1,0.9,0.3,1.1,0.6c0.2,0.3,0.3,0.8,0.3,1.3c0,0.3,0,0.5-0.1,0.8c-0.1,0.3-0.2,0.5-0.4,0.8  c-0.2,0.2-0.5,0.4-0.8,0.6c-0.3,0.1-0.8,0.2-1.3,0.2c-0.8,0-1.4-0.2-1.7-0.6c-0.4-0.4-0.6-1-0.6-1.8v0h1.6  C39.6,33.1,39.7,33.4,39.8,33.7z" fill="#00b3a7"/>
</svg>
