<?xml version="1.0" encoding="utf-8"?>
<!-- Generator: Adobe Illustrator 17.0.0, SVG Export Plug-In . SVG Version: 6.00 Build 0)  -->
<!DOCTYPE svg PUBLIC "-//W3C//DTD SVG 1.1//EN" "http://www.w3.org/Graphics/SVG/1.1/DTD/svg11.dtd">
<svg xmlns="http://www.w3.org/2000/svg" xmlns:xlink="http://www.w3.org/1999/xlink" version="1.1" id="Layer_1" x="0px" y="0px" width="52px" height="52px" viewBox="0 0 50 50" enable-background="new 0 0 50 50" xml:space="preserve" fill="#00b3a7">

<path fill="none" stroke="#00b3a7" stroke-width="2" stroke-linecap="round" stroke-linejoin="round" stroke-miterlimit="10" d="  M18.061,37.384C18.017,42.931,19.887,49,27.199,49c4.283,0,7.177-5.229,5.158-12.725c-0.661,0.17-2.952,0.922-6.408,1.222  C22.017,37.839,18.061,37.384,18.061,37.384z"/>
<path fill="none" stroke="#00b3a7" stroke-width="2" stroke-linecap="round" stroke-linejoin="round" stroke-miterlimit="10" d="  M16.855,27.971c0,0-1.765-5.118-1.849-9.405C14.853,10.747,17.444,1,24.672,1c7.985,0,9.59,10.832,9.282,14.953  c-0.42,5.631-2.726,11.009-2.726,11.009s-4.791-1.009-7.06-0.84C21.898,26.29,18.704,27.13,16.855,27.971z"/>
</svg>
