<?xml version="1.0" encoding="utf-8"?>
<!-- Generator: Adobe Illustrator 17.0.0, SVG Export Plug-In . SVG Version: 6.00 Build 0)  -->
<!DOCTYPE svg PUBLIC "-//W3C//DTD SVG 1.1//EN" "http://www.w3.org/Graphics/SVG/1.1/DTD/svg11.dtd">
<svg xmlns="http://www.w3.org/2000/svg" xmlns:xlink="http://www.w3.org/1999/xlink" version="1.1" id="Layer_1" x="0px" y="0px" width="52px" height="52px" viewBox="0 0 50 50" enable-background="new 0 0 50 50" xml:space="preserve" fill="#00b3a7">

<path fill="none" stroke="#00b3a7" stroke-width="2" stroke-linecap="round" stroke-linejoin="round" stroke-miterlimit="10" d="  M17.913,10.983c-0.795,0.145-1.624-0.627-1.854-1.723c-0.229-1.1,0.23-2.102,1.027-2.242c0.797-0.148,1.624,0.625,1.854,1.721  C19.173,9.835,18.706,10.836,17.913,10.983z"/>
<path fill="none" stroke="#00b3a7" stroke-width="2" stroke-linecap="round" stroke-linejoin="round" stroke-miterlimit="10" d="  M14.913,13.983c-0.795,0.145-1.624-0.627-1.854-1.723c-0.229-1.1,0.23-2.102,1.027-2.242c0.797-0.148,1.624,0.625,1.854,1.721  C16.173,12.835,15.706,13.836,14.913,13.983z"/>
<path fill="none" stroke="#00b3a7" stroke-width="2" stroke-linecap="round" stroke-linejoin="round" stroke-miterlimit="10" d="  M23,6.498c-0.002-1.381-0.895-2.5-1.998-2.498C19.897,3.998,19,5.119,19,6.5c0,1.378,0.893,2.498,2,2.5  C22.103,8.998,23,7.878,23,6.498z"/>
<path fill="none" stroke="#00b3a7" stroke-width="2" stroke-linecap="round" stroke-linejoin="round" stroke-miterlimit="10" d="  M15.009,22.891c-0.255,8.355,4.91,10.919,4.91,19.481c0,3.145,1.917,6.628,5.243,6.628c4.879,0,6.054-2.905,6.154-6.201  c0.188-6.132-5.116-6.828-5.116-12.23c0-6.759,6.8-6.709,6.8-12.848C33,13.483,29.626,13,27.834,13  C24.484,13,15.264,14.539,15.009,22.891z"/>
<path fill="none" stroke="#00b3a7" stroke-width="2" stroke-linecap="round" stroke-linejoin="round" stroke-miterlimit="10" d="  M34.922,5.976c0.374-2.47-0.63-4.688-2.244-4.951c-1.614-0.262-3.224,1.53-3.601,4c-0.372,2.468,0.63,4.687,2.246,4.949  C32.937,10.238,34.546,8.448,34.922,5.976z"/>
<path fill="none" stroke="#00b3a7" stroke-width="2" stroke-linecap="round" stroke-linejoin="round" stroke-miterlimit="10" d="  M27.976,5.731c0.188-1.928-0.757-3.594-2.125-3.723c-1.37-0.129-2.634,1.33-2.826,3.261c-0.194,1.93,0.755,3.594,2.123,3.723  C26.513,9.119,27.78,7.661,27.976,5.731z"/>
</svg>
