<?xml version="1.0" encoding="iso-8859-1"?>
<!-- Generator: Adobe Illustrator 22.0.0, SVG Export Plug-In . SVG Version: 6.00 Build 0)  -->
<svg xmlns="http://www.w3.org/2000/svg" xmlns:xlink="http://www.w3.org/1999/xlink" version="1.1" id="Layer_1" x="0px" y="0px" viewBox="0 0 50 50" style="enable-background:new 0 0 50 50;" xml:space="preserve" fill="#00b3a7" width="52px" height="52px">
<circle style="fill:none;stroke:#00b3a7;stroke-width:2;stroke-linecap:round;stroke-linejoin:round;stroke-miterlimit:10;" cx="10.5" cy="8.5" r="3.5" fill="#00b3a7"/>
<circle style="fill:none;stroke:#00b3a7;stroke-width:2;stroke-linecap:round;stroke-linejoin:round;stroke-miterlimit:10;" cx="39.5" cy="8.5" r="3.5" fill="#00b3a7"/>
<path style="fill:none;stroke:#00b3a7;stroke-width:2;stroke-linecap:round;stroke-linejoin:round;stroke-miterlimit:10;" d="  M24.003,29c0.3,0,0.605-0.068,0.893-0.211l7-3c0.204-0.102,0.389-0.238,0.545-0.401C32.497,25.329,35,21,35,21" fill="#00b3a7"/>
<path style="fill:none;stroke:#00b3a7;stroke-width:2;stroke-linecap:round;stroke-linejoin:round;stroke-miterlimit:10;" d="M39,43  c0,1.105,0.895,2,2,2s2-0.895,2-2V21" fill="#00b3a7"/>
<path style="fill:none;stroke:#00b3a7;stroke-width:2;stroke-linecap:round;stroke-linejoin:round;stroke-miterlimit:10;" d="M35,21  v22c0,1.105,0.895,2,2,2s2-0.895,2-2V31" fill="#00b3a7"/>
<path style="fill:none;stroke:#00b3a7;stroke-width:2;stroke-linecap:round;stroke-linejoin:round;stroke-miterlimit:10;" d="M11,31  v12c0,1.105,0.895,2,2,2s2-0.895,2-2V21" fill="#00b3a7"/>
<path style="fill:none;stroke:#00b3a7;stroke-width:2;stroke-linecap:round;stroke-miterlimit:10;" d="M11,35  c0,0.24-0.043,0.478-0.127,0.702l-3,8C7.571,44.505,6.81,45.001,6,45.001c-0.233,0-0.471-0.042-0.702-0.128  c-1.034-0.389-1.559-1.541-1.171-2.575L7,34.638L7,21" fill="#00b3a7"/>
<path style="fill:none;stroke:#00b3a7;stroke-width:2;stroke-linecap:round;stroke-linejoin:round;stroke-miterlimit:10;" d="M43,31  c0,1.105,0.895,2,2,2s2-0.895,2-2V20c0-2.761-2.238-5-4.999-5l-6.36-0.001c-2.25,0.001-2.786,1.113-3.153,1.801  c-0.812,1.523-2.924,5.682-2.924,5.682l-5.439,2.22" fill="#00b3a7"/>
<path style="fill:none;stroke:#00b3a7;stroke-width:2;stroke-miterlimit:10;" d="M7,31c0,1.105-0.895,2-2,2s-2-0.895-2-2l0-11.001  c0-2.761,2.237-5,4.998-5c2.456,0,5.094,0,6.065,0c2.375,0.001,3.232,1.876,3.232,1.876l3.205,5.607l4.395,2.729  c0.988,0.494,1.389,1.695,0.895,2.684C25.438,28.595,24.732,29,23.998,29c-0.3,0-0.605-0.068-0.893-0.211l-4.937-3  c-0.354-0.177-0.646-0.454-0.842-0.797L15.046,21" fill="#00b3a7"/>
</svg>
