<?xml version="1.0" encoding="iso-8859-1"?>
<!-- Generator: Adobe Illustrator 19.1.1, SVG Export Plug-In . SVG Version: 6.00 Build 0)  -->
<svg xmlns="http://www.w3.org/2000/svg" xmlns:xlink="http://www.w3.org/1999/xlink" version="1.1" x="0px" y="0px" viewBox="17 -17 50 50" style="enable-background:new 17 -17 50 50;" xml:space="preserve" fill="#00b3a7" width="52px" height="52px">
<path style="fill:none;stroke:#00b3a7;stroke-width:2;stroke-linecap:round;stroke-miterlimit:10;" d="M33.156-2.832  c0.106,1.391,0.376,2.865,0.769,4.379c-0.345,0.21-0.913,0.878-0.771,2.065c0.266,2.211,1.17,2.771,1.744,2.818  c0.22,2.062,1.58,4.504,2.312,4.888c0,1.473,0.055,2.598-0.091,4.21C35.367,20.239,23.546,18.916,23,28h38  c-0.545-9.084-12.315-7.761-14.067-12.472c-0.146-1.612-0.09-2.737-0.09-4.21c0.73-0.384,2.038-2.826,2.259-4.888  c0.574-0.047,1.479-0.607,1.744-2.818c0.143-1.187-0.425-1.855-0.771-2.065c0.317-0.954,0.75-2.586,0.931-4.361" fill="#00b3a7"/>
<g fill="#00b3a7">
	<path style="fill:none;stroke:#00b3a7;stroke-width:2;stroke-linecap:round;stroke-linejoin:round;stroke-miterlimit:10;" d="   M32.811-5.818L31-13l6,4l5-6.906L47-9l6-4l-1.6,7.182" fill="#00b3a7"/>
</g>
<g fill="#00b3a7">
	<path style="fill:none;stroke:#00b3a7;stroke-width:2;stroke-linecap:round;stroke-linejoin:round;stroke-miterlimit:10;" d="   M51.4-5.818L51.007-3H33.158l-0.347-2.818" fill="#00b3a7"/>
</g>
</svg>
