<?xml version="1.0" encoding="iso-8859-1"?>
<!-- Generator: Adobe Illustrator 19.1.0, SVG Export Plug-In . SVG Version: 6.00 Build 0)  -->
<svg xmlns="http://www.w3.org/2000/svg" xmlns:xlink="http://www.w3.org/1999/xlink" version="1.1" id="Layer_1" x="0px" y="0px" viewBox="0 0 50 50" style="enable-background:new 0 0 50 50;" xml:space="preserve" fill="#00b3a7" width="52px" height="52px">
<path d="M16.377,14.831c-1.364,0.105-2.716,0.198-4.074,0.297c-1.69,6.137-3.461,12.251-5.164,18.388  c1.136,0.076,2.273,0.157,3.415,0.245c0.356-1.375,0.706-2.751,1.049-4.132c1.783,0.087,3.573,0.145,5.362,0.151  c0.385,1.451,0.763,2.909,1.119,4.366c1.335,0.122,2.681,0.221,4.028,0.309C20.183,27.921,18.33,21.358,16.377,14.831z   M12.333,26.482c0.589-2.728,1.463-5.391,1.854-8.159c0.525,2.763,1.334,5.455,1.999,8.183  C14.897,26.499,13.615,26.493,12.333,26.482z" fill="#00b3a7"/>
<path style="fill:none;stroke:#00b3a7;stroke-width:2;stroke-linecap:round;stroke-linejoin:round;stroke-miterlimit:10;" d="M49,21  c0,2.209-5.82,4-13,4c-2.399,0-4.646-0.2-6.575-0.549" fill="#00b3a7"/>
<path style="fill:none;stroke:#00b3a7;stroke-width:2;stroke-linecap:round;stroke-linejoin:round;stroke-miterlimit:10;" d="M49,30  c0,2.209-5.82,4-13,4c-2.578,0-4.98-0.231-7.001-0.629" fill="#00b3a7"/>
<path style="fill:none;stroke:#00b3a7;stroke-width:2;stroke-linecap:round;stroke-linejoin:round;stroke-miterlimit:10;" d="  M29,15.367C31.022,15.766,33.42,16,36,16c7.18,0,13-1.791,13-4c0-2.209-5.82-4-13-4c-2.58,0-4.978,0.234-7,0.633" fill="#00b3a7"/>
<path style="fill:none;stroke:#00b3a7;stroke-width:2;stroke-linecap:round;stroke-linejoin:round;stroke-miterlimit:10;" d="  M29,41.367C31.022,41.766,33.42,42,36,42c7.18,0,13-1.791,13-4c0-0.947,0-25.053,0-26" fill="#00b3a7"/>
<g fill="#00b3a7">
	<path style="fill:none;stroke:#00b3a7;stroke-width:2;stroke-linecap:round;stroke-linejoin:round;stroke-miterlimit:10;" d="   M1,6.333v37.334L29,49V1L1,6.333z" fill="#00b3a7"/>
</g>
</svg>
