<?xml version="1.0" encoding="utf-8"?>
<!-- Generator: Adobe Illustrator 17.1.0, SVG Export Plug-In . SVG Version: 6.00 Build 0)  -->
<!DOCTYPE svg PUBLIC "-//W3C//DTD SVG 1.0//EN" "http://www.w3.org/TR/2001/REC-SVG-20010904/DTD/svg10.dtd">
<svg xmlns="http://www.w3.org/2000/svg" xmlns:xlink="http://www.w3.org/1999/xlink" version="1.0" id="Layer_1" x="0px" y="0px" width="52px" height="52px" viewBox="0 0 50 50" style="enable-background:new 0 0 50 50;" xml:space="preserve" fill="#00b3a7">
<rect style="fill:none;" width="50" height="50" fill="#00b3a7"/>
<path d="M19.3,31.5c-0.4,0.7-0.9,1.3-1.6,1.7c-0.7,0.4-1.4,0.7-2.3,0.9c-0.9,0.2-1.8,0.3-2.8,0.3c-1,0-2-0.1-2.9-0.3  C8.8,34,8,33.7,7.4,33.4v-4.1c0.7,0.6,1.5,1.1,2.4,1.4c0.9,0.3,1.7,0.5,2.6,0.5c0.5,0,1,0,1.4-0.1c0.4-0.1,0.7-0.2,1-0.4  c0.3-0.2,0.5-0.4,0.6-0.6c0.1-0.2,0.2-0.5,0.2-0.7c0-0.4-0.1-0.7-0.3-1c-0.2-0.3-0.5-0.5-0.8-0.8c-0.4-0.2-0.8-0.5-1.3-0.7  c-0.5-0.2-1-0.4-1.6-0.7c-1.4-0.6-2.5-1.3-3.2-2.2c-0.7-0.9-1.1-1.9-1.1-3.1c0-1,0.2-1.8,0.6-2.5c0.4-0.7,0.9-1.2,1.6-1.7  c0.7-0.4,1.4-0.8,2.3-1c0.9-0.2,1.8-0.3,2.8-0.3c1,0,1.8,0.1,2.5,0.2c0.7,0.1,1.4,0.3,2,0.5V20c-0.3-0.2-0.6-0.4-1-0.6  s-0.7-0.3-1.1-0.4c-0.4-0.1-0.8-0.2-1.1-0.2c-0.4-0.1-0.7-0.1-1.1-0.1c-0.5,0-0.9,0-1.3,0.1c-0.4,0.1-0.7,0.2-1,0.4  c-0.3,0.2-0.5,0.4-0.6,0.6c-0.1,0.2-0.2,0.5-0.2,0.8c0,0.3,0.1,0.6,0.2,0.8c0.2,0.2,0.4,0.5,0.7,0.7c0.3,0.2,0.7,0.4,1.1,0.6  c0.4,0.2,0.9,0.4,1.4,0.6c0.7,0.3,1.4,0.6,2,1c0.6,0.3,1.1,0.7,1.5,1.2c0.4,0.4,0.7,0.9,1,1.5c0.2,0.6,0.3,1.2,0.3,1.9  C19.8,30,19.6,30.8,19.3,31.5z" fill="#00b3a7"/>
<g fill="#00b3a7">
	
		<circle style="fill:none;stroke:#00b3a7;stroke-width:2;stroke-linecap:round;stroke-linejoin:round;stroke-miterlimit:10;" cx="44" cy="25" r="5" fill="#00b3a7"/>
	<path style="fill:none;stroke:#00b3a7;stroke-width:2;stroke-linecap:round;stroke-linejoin:round;stroke-miterlimit:10;" d="   M42.8,20c-1.4-2.7-3.8-4.7-6.7-5.6" fill="#00b3a7"/>
	<path style="fill:none;stroke:#00b3a7;stroke-width:2;stroke-linecap:round;stroke-linejoin:round;stroke-miterlimit:10;" d="   M36.1,35.5c2.9-0.9,5.3-2.9,6.7-5.6" fill="#00b3a7"/>
	<path style="fill:none;stroke:#00b3a7;stroke-width:2;stroke-linecap:round;stroke-linejoin:round;stroke-miterlimit:10;" d="   M29.1,18.6c0.6,0.3,1.3,0.4,1.9,0.4c2.8,0,5-2.2,5-5s-2.2-5-5-5c-0.7,0-1.3,0.1-1.9,0.4" fill="#00b3a7"/>
	<path style="fill:none;stroke:#00b3a7;stroke-width:2;stroke-linecap:round;stroke-linejoin:round;stroke-miterlimit:10;" d="   M29.1,40.6c0.6,0.3,1.3,0.4,1.9,0.4c2.8,0,5-2.2,5-5s-2.2-5-5-5c-0.7,0-1.3,0.1-1.9,0.4" fill="#00b3a7"/>
</g>
<g fill="#00b3a7">
	<path style="fill:none;stroke:#00b3a7;stroke-width:2;stroke-linecap:round;stroke-linejoin:round;stroke-miterlimit:10;" d="   M1,6.3v37.3L29,49V1L1,6.3z" fill="#00b3a7"/>
</g>
</svg>
