<?xml version="1.0" encoding="utf-8"?>
<!-- Generator: Adobe Illustrator 17.0.0, SVG Export Plug-In . SVG Version: 6.00 Build 0)  -->
<!DOCTYPE svg PUBLIC "-//W3C//DTD SVG 1.1//EN" "http://www.w3.org/Graphics/SVG/1.1/DTD/svg11.dtd">
<svg xmlns="http://www.w3.org/2000/svg" xmlns:xlink="http://www.w3.org/1999/xlink" version="1.1" id="Layer_1" x="0px" y="0px" width="52px" height="52px" viewBox="0 0 50 50" enable-background="new 0 0 50 50" xml:space="preserve" fill="#00b3a7">

<path d="M21.22,34.347h-3.619l-2.406-11.987c-0.127-0.626-0.205-1.326-0.232-2.099h-0.04c-0.061,0.852-0.149,1.55-0.263,2.099  l-2.468,11.987H8.423L4.612,15.662H8.18l2.043,12.443c0.088,0.53,0.151,1.242,0.191,2.137h0.061c0.026-0.669,0.125-1.398,0.294-2.19  l2.628-12.391h3.497L19.27,28.21c0.087,0.46,0.165,1.129,0.233,2.007h0.04c0.027-0.686,0.098-1.382,0.214-2.085l2-12.47h3.296  L21.22,34.347z" fill="#00b3a7"/>
<path fill="none" stroke="#00b3a7" stroke-width="2" stroke-linecap="round" stroke-linejoin="round" stroke-miterlimit="10" d="  M29,43h18c0.552,0,1-0.448,1-1s0-33.448,0-34s-0.448-1-1-1H29"/>
<line fill="none" stroke="#00b3a7" stroke-width="2" stroke-linejoin="round" stroke-miterlimit="10" x1="29" y1="36" x2="44" y2="36"/>
<line fill="none" stroke="#00b3a7" stroke-width="2" stroke-linejoin="round" stroke-miterlimit="10" x1="29" y1="28" x2="44" y2="28"/>
<line fill="none" stroke="#00b3a7" stroke-width="2" stroke-linejoin="round" stroke-miterlimit="10" x1="29" y1="21" x2="44" y2="21"/>
<line fill="none" stroke="#00b3a7" stroke-width="2" stroke-linejoin="round" stroke-miterlimit="10" x1="29" y1="14" x2="44" y2="14"/>
<g fill="#00b3a7">
	<path fill="none" stroke="#00b3a7" stroke-width="2" stroke-linecap="round" stroke-linejoin="round" stroke-miterlimit="10" d="   M1,6.333v37.334L29,49V1L1,6.333z"/>
</g>
</svg>
