<?xml version="1.0" encoding="iso-8859-1"?>
<!-- Generator: Adobe Illustrator 19.0.1, SVG Export Plug-In . SVG Version: 6.00 Build 0)  -->
<svg xmlns="http://www.w3.org/2000/svg" xmlns:xlink="http://www.w3.org/1999/xlink" version="1.1" id="Layer_1" x="0px" y="0px" viewBox="0 0 50 50" style="enable-background:new 0 0 50 50;" xml:space="preserve" fill="#00b3a7" width="52px" height="52px">
<path style="fill:none;stroke:#00b3a7;stroke-width:2;stroke-linecap:round;stroke-linejoin:round;stroke-miterlimit:10;" d="  M14.543,36.616c0,0-2.131-13.854,12.366-15.427C37.69,20.019,46,28.833,46,28.833s-5.999,11.69-17.84,12.993  c-6.059,0.666-11.249-2.131-11.249-2.131" fill="#00b3a7"/>
<path style="fill:none;stroke:#00b3a7;stroke-width:2;stroke-linecap:round;stroke-linejoin:round;stroke-miterlimit:10;" d="  M10.014,43.281c0,0,3.71-7.636,12.699-11.875c6.276-2.96,14.091-2.013,14.091-2.013" fill="#00b3a7"/>
<path style="fill:none;stroke:#00b3a7;stroke-width:2;stroke-linecap:round;stroke-linejoin:round;stroke-miterlimit:10;" d="  M9.891,29.248C5.608,26.714,4,22.686,4,18.425C4,10.735,11.059,4,11.059,4s4.886,5.118,5.769,10.469  c1.025,6.213-3.378,10.617-4.102,11.16" fill="#00b3a7"/>
<path style="fill:none;stroke:#00b3a7;stroke-width:2;stroke-linecap:round;stroke-linejoin:round;stroke-miterlimit:10;" d="  M10.336,13.151c-4.547,10.005,1.304,16.399,0.339,22.25" fill="#00b3a7"/>
</svg>
