<?xml version="1.0" encoding="utf-8"?>
<!-- Generator: Adobe Illustrator 17.0.0, SVG Export Plug-In . SVG Version: 6.00 Build 0)  -->
<!DOCTYPE svg PUBLIC "-//W3C//DTD SVG 1.1//EN" "http://www.w3.org/Graphics/SVG/1.1/DTD/svg11.dtd">
<svg xmlns="http://www.w3.org/2000/svg" xmlns:xlink="http://www.w3.org/1999/xlink" version="1.1" id="Layer_1" x="0px" y="0px" width="52px" height="52px" viewBox="0 0 50 50" enable-background="new 0 0 50 50" xml:space="preserve" fill="#00b3a7">

<path fill="none" stroke="#00b3a7" stroke-width="2" stroke-linecap="round" stroke-miterlimit="10" d="M47.83,2.159  c-2.397-2.396-5.931-0.604-7.66,1.125c-1.728,1.73-6.148,9.133-8.319,11.433C24.002,23.023,11.25,36.834,10.29,37.795  c-0.61,0.611-9.749,10.707-9.272,11.187c0.475,0.479,10.562-8.656,11.183-9.278c0.975-0.973,14.812-13.759,23.096-21.591  c2.283-2.158,9.619-6.508,11.402-8.296C48.489,8.031,50.221,4.55,47.83,2.159z"/>
<path fill="none" stroke="#00b3a7" stroke-width="2" stroke-linecap="round" stroke-miterlimit="10" d="M27,1c11.362,0,16,6,16,6"/>
<path fill="none" stroke="#00b3a7" stroke-width="2" stroke-linecap="round" stroke-miterlimit="10" d="M45.647,10.711  C45.647,10.711,47,13,47,16c0,9.296-13,12.907-13,22c0,10.632,13.651,11,15,11"/>
<path d="M41.031,8.956c-0.791-0.795-0.518-2.358,0.617-3.491c1.135-1.136,2.699-1.41,3.492-0.616  c0.791,0.793,0.514,2.356-0.618,3.489C43.386,9.473,41.825,9.751,41.031,8.956z" fill="#00b3a7"/>
</svg>
