<?xml version="1.0" encoding="utf-8"?>
<!-- Generator: Adobe Illustrator 18.1.1, SVG Export Plug-In . SVG Version: 6.00 Build 0)  -->
<svg xmlns="http://www.w3.org/2000/svg" xmlns:xlink="http://www.w3.org/1999/xlink" version="1.1" id="Layer_1" x="0px" y="0px" viewBox="0 0 50 50" enable-background="new 0 0 50 50" xml:space="preserve" fill="#00b3a7" width="52px" height="52px">
<g fill="#00b3a7">
	<path d="M23,6l5.1,4.8L25.7,11l1.2,2.6L25.9,14l-1.1-2.6L23,13.1L23,6" fill="#00b3a7"/>
</g>
<rect x="1" y="26" fill="none" stroke="#00b3a7" stroke-width="2" stroke-linejoin="round" stroke-miterlimit="10" width="48" height="4"/>
<rect x="43" y="30" fill="none" stroke="#00b3a7" stroke-width="2" stroke-linejoin="round" stroke-miterlimit="10" width="4" height="19"/>
<rect x="3" y="30" fill="none" stroke="#00b3a7" stroke-width="2" stroke-linejoin="round" stroke-miterlimit="10" width="4" height="19"/>
<line fill="none" stroke="#00b3a7" stroke-width="2" stroke-linejoin="round" stroke-miterlimit="10" x1="18" y1="23" x2="32" y2="23"/>
<path fill="none" stroke="#00b3a7" stroke-width="2" stroke-linejoin="round" stroke-miterlimit="10" d="M10,2v17c0,0.6,0.4,1,1,1  h28c0.6,0,1-0.4,1-1V2c0-0.6-0.4-1-1-1H11C10.4,1,10,1.4,10,2z"/>
</svg>
