<?xml version="1.0" encoding="iso-8859-1"?>
<!-- Generator: Adobe Illustrator 21.1.0, SVG Export Plug-In . SVG Version: 6.00 Build 0)  -->
<svg xmlns="http://www.w3.org/2000/svg" xmlns:xlink="http://www.w3.org/1999/xlink" version="1.1" id="Layer_1" x="0px" y="0px" viewBox="0 0 50 50" style="enable-background:new 0 0 50 50;" xml:space="preserve" fill="#00b3a7" width="52px" height="52px">
<g fill="#00b3a7">
</g>
<path style="fill:none;stroke:#00b3a7;stroke-width:2;stroke-miterlimit:10;" d="M29.565,33.971c0,0,3.543-2.028,4.47-2.516  c0.925-0.489,1.883-0.613,2.465-0.257c0.881,0.539,8.28,5.461,8.903,5.897c0.623,0.437,0.923,1.684,0.066,2.905  c-0.853,1.222-4.789,6.052-6.457,6c-1.67-0.054-8.615-0.207-21.711-13.306C4.209,19.598,4.054,12.651,4,10.981  c-0.053-1.67,4.777-5.606,5.998-6.46c1.223-0.853,2.472-0.532,2.906,0.068c0.493,0.683,5.358,8.059,5.894,8.904  c0.367,0.578,0.232,1.541-0.257,2.467c-0.486,0.928-2.515,4.47-2.515,4.47s1.43,2.439,6.265,7.273  C27.127,32.538,29.565,33.971,29.565,33.971z" fill="#00b3a7"/>
</svg>
