<?xml version="1.0" encoding="iso-8859-1"?>
<!-- Generator: Adobe Illustrator 19.1.1, SVG Export Plug-In . SVG Version: 6.00 Build 0)  -->
<svg xmlns="http://www.w3.org/2000/svg" xmlns:xlink="http://www.w3.org/1999/xlink" version="1.1" id="Layer_1" x="0px" y="0px" viewBox="0 0 50 50" style="enable-background:new 0 0 50 50;" xml:space="preserve" fill="#00b3a7" width="52px" height="52px">
<path d="M25,6c11.579,0,21,8.072,21,17.994c0,9.922-9.421,17.994-21,17.994c-1.771,0-3.494-0.202-5.266-0.617l-1.185-0.278  l-0.791,0.924c-0.685,0.8-2.982,3.15-6.771,3.81c0.724-1.304,1.27-2.63,1.629-3.961c0.279-1.034,0.329-1.578,0.343-2.051  l0.047-1.116l-0.925-0.625C6.945,34.602,4,29.47,4,23.994C4,14.072,13.421,6,25,6 M25,4C12.329,4,2,12.88,2,23.994  c0,6.453,3.533,12.067,8.961,15.736c-0.009,0.216,0.007,0.566-0.276,1.614c-0.351,1.299-1.059,3.128-2.498,5.191L7.165,48h1.786  c6.19,0,9.772-4.035,10.326-4.683c1.845,0.432,3.741,0.67,5.722,0.67c12.671,0,23-8.879,23-19.994C48,12.879,37.671,4,25,4L25,4z" fill="#00b3a7"/>
<polygon style="fill:none;stroke:#00b3a7;stroke-width:2;stroke-linecap:round;stroke-linejoin:round;stroke-miterlimit:10;" points="  24.923,14 27.429,20.5 34.387,20.875 28.979,25.268 30.772,32 24.923,28.214 19.074,32 20.867,25.268 15.459,20.875 22.417,20.5 " fill="#00b3a7"/>
</svg>
