<?xml version="1.0" encoding="utf-8"?>
<!-- Generator: Adobe Illustrator 18.1.1, SVG Export Plug-In . SVG Version: 6.00 Build 0)  -->
<svg xmlns="http://www.w3.org/2000/svg" xmlns:xlink="http://www.w3.org/1999/xlink" version="1.1" id="Layer_1" x="0px" y="0px" viewBox="0 0 50 50" enable-background="new 0 0 50 50" xml:space="preserve" fill="#00b3a7" width="52px" height="52px">
<path fill="none" stroke="#00b3a7" stroke-width="2" stroke-miterlimit="10" d="M28,50v-6.3l4.6,0.1c2.5,0.1,4.7-1.8,5.1-4.3  l1.2-8.3l4-2c0.9-0.5,1.2-1.6,0.7-2.5l-4.7-8.1C37.9,9.3,34,1,20,1S1,11.2,1,20c0,4.3,1.3,9.3,3.6,12.5C6.7,35.5,8,39,8,42.7L8,50"/>
<path fill="none" stroke="#00b3a7" stroke-width="2" stroke-linecap="round" stroke-linejoin="round" stroke-miterlimit="10" d="  M38.4,35.7c0,0,5.6,1.6,7.1,2c1.9,0.5,3.5,1.7,3.5,3.8c0,1.9-1.6,3.5-3.5,3.5c-4.2,0-3.5-5.1-7.4-6.3"/>
<polyline fill="none" stroke="#00b3a7" stroke-width="2" stroke-miterlimit="10" points="48,33.5 48,29 50,29 "/>
<ellipse cx="47" cy="33.5" rx="2" ry="1.5" fill="#00b3a7"/>
</svg>
