<?xml version="1.0" encoding="iso-8859-1"?>
<!-- Generator: Adobe Illustrator 19.2.1, SVG Export Plug-In . SVG Version: 6.00 Build 0)  -->
<svg xmlns="http://www.w3.org/2000/svg" xmlns:xlink="http://www.w3.org/1999/xlink" version="1.1" id="Layer_1" x="0px" y="0px" viewBox="0 0 50 50" style="enable-background:new 0 0 50 50;" xml:space="preserve" fill="#00b3a7" width="52px" height="52px">
<rect x="8" y="3" transform="matrix(-1 -1.224647e-16 1.224647e-16 -1 50 50)" style="fill:none;stroke:#00b3a7;stroke-width:2;stroke-linecap:round;stroke-miterlimit:10;" width="34" height="44" fill="#00b3a7"/>
<path d="M18.444,14.929c-0.036-0.397,0-0.674,0-1.037c0.248-0.119,0.655-0.596,0.737-1.174c0,0,0.429-0.271,0.429-0.724  c0-0.316-0.105-0.55-0.19-0.636c0.23-0.692,0.624-2.808-0.893-2.808C18.364,8.263,17.954,8,17.409,8  c-2.18,0.04-2.364,1.73-1.939,3.359c0,0-0.228,0.23-0.216,0.554c0.022,0.612,0.429,0.806,0.429,0.806  c0.078,0.569,0.581,1.079,0.761,1.174c0,0.363,0.036,0.64,0,1.037C16.013,16.089,13.134,15.763,13,18h8.889  C21.755,15.763,18.876,16.089,18.444,14.929z" fill="#00b3a7"/>
<line style="fill:none;stroke:#00b3a7;stroke-width:2;stroke-linecap:round;stroke-linejoin:round;stroke-miterlimit:10;" x1="28" y1="11" x2="36" y2="11" fill="#00b3a7"/>
<line style="fill:none;stroke:#00b3a7;stroke-width:2;stroke-linecap:round;stroke-linejoin:round;stroke-miterlimit:10;" x1="28" y1="16" x2="36" y2="16" fill="#00b3a7"/>
<line style="fill:none;stroke:#00b3a7;stroke-width:2;stroke-linecap:round;stroke-linejoin:round;stroke-miterlimit:10;" x1="14" y1="26" x2="28" y2="26" fill="#00b3a7"/>
<line style="fill:none;stroke:#00b3a7;stroke-width:2;stroke-linecap:round;stroke-linejoin:round;stroke-miterlimit:10;" x1="14" y1="32" x2="25" y2="32" fill="#00b3a7"/>
<line style="fill:none;stroke:#00b3a7;stroke-width:2;stroke-linecap:round;stroke-linejoin:round;stroke-miterlimit:10;" x1="14" y1="38" x2="28" y2="38" fill="#00b3a7"/>
<line style="fill:none;stroke:#00b3a7;stroke-width:2;stroke-linecap:round;stroke-linejoin:round;stroke-miterlimit:10;" x1="33" y1="26" x2="36" y2="26" fill="#00b3a7"/>
<line style="fill:none;stroke:#00b3a7;stroke-width:2;stroke-linecap:round;stroke-linejoin:round;stroke-miterlimit:10;" x1="33" y1="32" x2="36" y2="32" fill="#00b3a7"/>
<line style="fill:none;stroke:#00b3a7;stroke-width:2;stroke-linecap:round;stroke-linejoin:round;stroke-miterlimit:10;" x1="33" y1="38" x2="36" y2="38" fill="#00b3a7"/>
</svg>
