<?xml version="1.0" encoding="utf-8"?>
<!-- Generator: Adobe Illustrator 17.0.0, SVG Export Plug-In . SVG Version: 6.00 Build 0)  -->
<!DOCTYPE svg PUBLIC "-//W3C//DTD SVG 1.1//EN" "http://www.w3.org/Graphics/SVG/1.1/DTD/svg11.dtd">
<svg xmlns="http://www.w3.org/2000/svg" xmlns:xlink="http://www.w3.org/1999/xlink" version="1.1" id="Layer_1" x="0px" y="0px" width="52px" height="52px" viewBox="0 0 50 50" enable-background="new 0 0 50 50" xml:space="preserve" fill="#00b3a7">
<rect x="0" fill="none" width="50" height="50"/>
<path fill="none" stroke="#00b3a7" stroke-width="2" stroke-linecap="round" stroke-linejoin="round" stroke-miterlimit="10" d="  M38.057,4.859C44.644,9.138,49,16.56,49,25c0,8.442-4.359,15.866-10.948,20.144"/>
<path fill="none" stroke="#00b3a7" stroke-width="2" stroke-linecap="round" stroke-linejoin="round" stroke-miterlimit="10" d="  M11.943,45.141C5.356,40.862,1,33.44,1,25C1,16.558,5.359,9.134,11.948,4.856"/>
<path fill="none" stroke="#00b3a7" stroke-width="2" stroke-linecap="round" stroke-linejoin="round" stroke-miterlimit="10" d="  M33.283,10.151C38.484,13.058,42,18.619,42,25c0,6.383-3.518,11.945-8.721,14.851"/>
<path fill="none" stroke="#00b3a7" stroke-width="2" stroke-linecap="round" stroke-linejoin="round" stroke-miterlimit="10" d="  M16.717,39.849C11.516,36.942,8,31.381,8,25c0-6.383,3.518-11.945,8.721-14.851"/>
<path fill="none" stroke="#00b3a7" stroke-width="2" stroke-linecap="round" stroke-linejoin="round" stroke-miterlimit="10" d="  M29.253,15.947C32.649,17.545,35,20.998,35,25c0,4.003-2.352,7.456-5.749,9.054"/>
<path fill="none" stroke="#00b3a7" stroke-width="2" stroke-linecap="round" stroke-linejoin="round" stroke-miterlimit="10" d="  M20.747,34.053C17.351,32.455,15,29.002,15,25c0-4.003,2.351-7.456,5.748-9.054"/>
<circle cx="25" cy="25" r="4" fill="#00b3a7"/>
</svg>
