<?xml version="1.0" encoding="utf-8"?>
<!-- Generator: Adobe Illustrator 17.1.0, SVG Export Plug-In . SVG Version: 6.00 Build 0)  -->
<!DOCTYPE svg PUBLIC "-//W3C//DTD SVG 1.0//EN" "http://www.w3.org/TR/2001/REC-SVG-20010904/DTD/svg10.dtd">
<svg xmlns="http://www.w3.org/2000/svg" xmlns:xlink="http://www.w3.org/1999/xlink" version="1.0" id="Layer_1" x="0px" y="0px" width="52px" height="52px" viewBox="0 0 50 50" style="enable-background:new 0 0 50 50;" xml:space="preserve" fill="#00b3a7">
<rect style="fill:none;" width="50" height="50" fill="#00b3a7"/>
<g fill="#00b3a7">
	<g fill="#00b3a7">
		<path style="fill:none;stroke:#00b3a7;stroke-width:2;stroke-linecap:round;stroke-linejoin:round;stroke-miterlimit:10;" d="    M45.6,23.6c3.3,6.7,3.2,12.8,0,16c-5.3,5.3-17.4,1.7-27.1-8c-9.7-9.7-13.3-21.8-8-27.1c3.3-3.3,9.2-3.4,16,0.1" fill="#00b3a7"/>
	</g>
</g>
<g fill="#00b3a7">
	<g fill="#00b3a7">
		<path style="fill:none;stroke:#00b3a7;stroke-width:2;stroke-linecap:round;stroke-linejoin:round;stroke-miterlimit:10;" d="    M30.3,4c-3.1,0-5.8,0.9-7.5,2.6c-5.3,5.3-2.4,11.6,3.3,17.3c3.6,3.6,7.4,6.1,11.1,6.1c2.1,0,4.2-0.8,6.2-2.8    c3.8-3.8,3.8-13-1.9-18.7C38.3,5.4,34.1,4,30.3,4L30.3,4z" fill="#00b3a7"/>
	</g>
</g>
<path style="fill:none;stroke:#00b3a7;stroke-width:3.5385;stroke-miterlimit:10;" d="M30.4,44.4" fill="#00b3a7"/>
<path style="fill:none;stroke:#00b3a7;stroke-width:3.5385;stroke-miterlimit:10;" d="M38.3,36.5" fill="#00b3a7"/>
<line style="fill:none;stroke:#00b3a7;stroke-width:2;stroke-linecap:round;stroke-linejoin:round;stroke-miterlimit:10;" x1="8.6" y1="16.4" x2="5.5" y2="19.5" fill="#00b3a7"/>
<circle style="fill:none;stroke:#00b3a7;stroke-width:2;stroke-miterlimit:10;" cx="4" cy="21" r="2" fill="#00b3a7"/>
<line style="fill:none;stroke:#00b3a7;stroke-width:2;stroke-linecap:round;stroke-linejoin:round;stroke-miterlimit:10;" x1="33.6" y1="41.4" x2="30.5" y2="44.5" fill="#00b3a7"/>
<circle style="fill:none;stroke:#00b3a7;stroke-width:2;stroke-miterlimit:10;" cx="29" cy="46" r="2" fill="#00b3a7"/>
<line style="fill:none;stroke:#00b3a7;stroke-width:2;stroke-linecap:round;stroke-linejoin:round;stroke-miterlimit:10;" x1="17.9" y1="32.1" x2="12.5" y2="37.5" fill="#00b3a7"/>
<circle style="fill:none;stroke:#00b3a7;stroke-width:2;stroke-miterlimit:10;" cx="11" cy="39" r="2" fill="#00b3a7"/>
</svg>
