<?xml version="1.0" encoding="utf-8"?>
<!-- Generator: Adobe Illustrator 18.1.0, SVG Export Plug-In . SVG Version: 6.00 Build 0)  -->
<!DOCTYPE svg PUBLIC "-//W3C//DTD SVG 1.1//EN" "http://www.w3.org/Graphics/SVG/1.1/DTD/svg11.dtd">
<svg xmlns="http://www.w3.org/2000/svg" xmlns:xlink="http://www.w3.org/1999/xlink" version="1.1" id="Layer_1" x="0px" y="0px" viewBox="0 0 50 50" enable-background="new 0 0 50 50" xml:space="preserve" fill="#00b3a7" width="52px" height="52px">
<path fill="none" stroke="#00b3a7" stroke-width="2" stroke-linecap="round" stroke-linejoin="round" stroke-miterlimit="10" d="  M8.1,49c0,0-5.1,0.2-5.1-3.2c0-3.6,5.8-6.6,5.8-9.1c0-3.8-7.7-2.6-7.7-7.9C1,17.2,26,1,26,1"/>
<polyline fill="none" stroke="#00b3a7" stroke-width="2" stroke-linejoin="round" stroke-miterlimit="10" points="46.2,21.2   19.4,47.9 14,49 15.1,43.6 41.8,16.8 "/>
<path d="M48.1,20.7c0,0,0.7-0.7,0.7-0.7c1.6-1.6,1.6-4.2,0-5.8c-1.6-1.6-4.2-1.6-5.8,0c0,0-0.7,0.7-0.7,0.7L48.1,20.7z" fill="#00b3a7"/>
<polygon points="15.4,43.3 19.7,47.6 14.4,48.6 " fill="#00b3a7"/>
</svg>
