<?xml version="1.0" encoding="iso-8859-1"?>
<!-- Generator: Adobe Illustrator 19.1.0, SVG Export Plug-In . SVG Version: 6.00 Build 0)  -->
<svg xmlns="http://www.w3.org/2000/svg" xmlns:xlink="http://www.w3.org/1999/xlink" version="1.1" id="Layer_1" x="0px" y="0px" viewBox="0 0 50 50" style="enable-background:new 0 0 50 50;" xml:space="preserve" fill="#00b3a7" width="52px" height="52px">
<path d="M42,39c0,1.104-0.895,2-2,2s-2-0.896-2-2s0.895-2,2-2S42,37.896,42,39z" fill="#00b3a7"/>
<path style="fill:none;stroke:#00b3a7;stroke-width:2;stroke-linecap:round;stroke-linejoin:round;stroke-miterlimit:10;" d="M47,44  c0,0.552-0.448,1-1,1H4c-0.552,0-1-0.448-1-1V34c0-0.552,0.448-1,1-1h42c0.552,0,1,0.448,1,1V44z" fill="#00b3a7"/>
<path style="fill:none;stroke:#00b3a7;stroke-width:2;stroke-linejoin:round;stroke-miterlimit:10;" d="M29,8h11.327  c0.416,0,0.811,0.338,0.882,0.759l5.649,24.742" fill="#00b3a7"/>
<path style="fill:none;stroke:#00b3a7;stroke-width:2;stroke-linejoin:round;stroke-miterlimit:10;" d="M3.094,33.578L8.791,8.759  C8.862,8.338,9.256,8,9.672,8H21" fill="#00b3a7"/>
<polyline style="fill:none;stroke:#00b3a7;stroke-width:2;stroke-linecap:round;stroke-linejoin:round;stroke-miterlimit:10;" points="  34,17 25,26 16,17 " fill="#00b3a7"/>
<line style="fill:none;stroke:#00b3a7;stroke-width:2;stroke-linecap:round;stroke-linejoin:round;stroke-miterlimit:10;" x1="25" y1="25" x2="25" y2="3" fill="#00b3a7"/>
</svg>
