<?xml version="1.0" encoding="iso-8859-1"?>
<!-- Generator: Adobe Illustrator 21.1.0, SVG Export Plug-In . SVG Version: 6.00 Build 0)  -->
<svg xmlns="http://www.w3.org/2000/svg" xmlns:xlink="http://www.w3.org/1999/xlink" version="1.1" id="Layer_1" x="0px" y="0px" viewBox="0 0 50 50" style="enable-background:new 0 0 50 50;" xml:space="preserve" fill="#00b3a7" width="52px" height="52px">
<path style="fill:none;stroke:#00b3a7;stroke-width:2;stroke-linecap:round;stroke-linejoin:round;stroke-miterlimit:10;" d="M25,3  C12.9,3,3,12.9,3,25s9.9,22,22,22s22-9.9,22-22S37.1,3,25,3z" fill="#00b3a7"/>
<circle style="fill:none;stroke:#00b3a7;stroke-width:2;stroke-linecap:round;stroke-linejoin:round;stroke-miterlimit:10;" cx="25" cy="25" r="17" fill="#00b3a7"/>
<path style="fill:none;stroke:#00b3a7;stroke-width:2;stroke-linecap:round;stroke-linejoin:round;stroke-miterlimit:10;" d="M41,22  c-8,0-9.4-5-16-5s-7.5,5-16,5 M29,41c0,0,0-5.2,0-7c0-2.7,2.3-5,5-5c1.2,0,7,0,7,0 M9,29c0,0,5.9,0,7,0c2.9,0,5,2.2,5,5  c0,1.9,0,7,0,7" fill="#00b3a7"/>
<circle style="fill:none;stroke:#00b3a7;stroke-width:2;stroke-linecap:round;stroke-linejoin:round;stroke-miterlimit:10;" cx="25" cy="25" r="4" fill="#00b3a7"/>
</svg>
