<?xml version="1.0" encoding="utf-8"?>
<!-- Generator: Adobe Illustrator 17.0.0, SVG Export Plug-In . SVG Version: 6.00 Build 0)  -->
<!DOCTYPE svg PUBLIC "-//W3C//DTD SVG 1.1//EN" "http://www.w3.org/Graphics/SVG/1.1/DTD/svg11.dtd">
<svg xmlns="http://www.w3.org/2000/svg" xmlns:xlink="http://www.w3.org/1999/xlink" version="1.1" id="Layer_1" x="0px" y="0px" width="52px" height="52px" viewBox="0 0 50 50" enable-background="new 0 0 50 50" xml:space="preserve" fill="#00b3a7">




<path d="M43,39c-1.104,0-2-0.895-2-2s0.896-2,2-2s2,0.895,2,2S44.104,39,43,39z" fill="#00b3a7"/>
<path fill="none" stroke="#00b3a7" stroke-width="2" stroke-linecap="round" stroke-miterlimit="10" d="M13,47  c0-1.156,0.656-2,1.889-2h20.222C36.152,45,37,45.898,37,47v2H13V47z"/>
<path fill="none" stroke="#00b3a7" stroke-width="2" stroke-linejoin="round" stroke-miterlimit="10" d="M2,41c-0.552,0-1-0.448-1-1  V4c0-0.552,0.448-1,1-1h46c0.552,0,1,0.448,1,1v36c0,0.552-0.448,1-1,1H2z"/>
<path fill="none" stroke="#00b3a7" stroke-width="2" stroke-linejoin="round" stroke-miterlimit="10" d="M6,33c-0.552,0-1-0.448-1-1  V8c0-0.552,0.448-1,1-1h38c0.552,0,1,0.448,1,1v24c0,0.552-0.448,1-1,1H6z"/>
<line fill="none" stroke="#00b3a7" stroke-width="2" stroke-linecap="round" stroke-miterlimit="10" x1="30" y1="45" x2="30" y2="41"/>
<line fill="none" stroke="#00b3a7" stroke-width="2" stroke-linecap="round" stroke-miterlimit="10" x1="20" y1="45" x2="20" y2="41"/>
<path d="M25.865,25.817c0.153,0,0.253,0.102,0.253,0.254v1.856c0,0.153-0.1,0.254-0.253,0.254h-1.73  c-0.152,0-0.255-0.102-0.255-0.254v-1.856c0-0.152,0.102-0.254,0.255-0.254H25.865z M25.814,12c0.152,0,0.254,0.102,0.254,0.254  v10.671c0,0.152-0.102,0.254-0.254,0.254h-1.627c-0.153,0-0.255-0.102-0.255-0.254V12.254c0-0.153,0.102-0.254,0.255-0.254H25.814z" fill="#00b3a7"/>
</svg>
