<?xml version="1.0" encoding="iso-8859-1"?>
<!-- Generator: Adobe Illustrator 21.0.0, SVG Export Plug-In . SVG Version: 6.00 Build 0)  -->
<svg xmlns="http://www.w3.org/2000/svg" xmlns:xlink="http://www.w3.org/1999/xlink" version="1.1" x="0px" y="0px" viewBox="0 0 50 50" style="enable-background:new 0 0 50 50;" xml:space="preserve" fill="#00b3a7" width="52px" height="52px">
<polyline style="fill:none;stroke:#00b3a7;stroke-width:2;stroke-linecap:square;stroke-miterlimit:10;" points="18,30   24.217,35.624 33,22 " fill="#00b3a7"/>
<path style="fill:none;stroke:#00b3a7;stroke-width:2;stroke-linejoin:round;stroke-miterlimit:10;" d="M11,5H4  C3.494,5,3,5.429,3,5.958v40.25C3,46.737,3.494,47,4,47h42c0.506,0,1-0.263,1-0.792V5.958C47,5.429,46.589,5,46.083,5H38.75" fill="#00b3a7"/>
<line style="fill:none;stroke:#00b3a7;stroke-width:2;stroke-linejoin:round;stroke-miterlimit:10;" x1="35.167" y1="5" x2="15" y2="5" fill="#00b3a7"/>
<line style="fill:none;stroke:#00b3a7;stroke-width:2;stroke-linejoin:round;stroke-miterlimit:10;" x1="3" y1="14" x2="47" y2="14" fill="#00b3a7"/>
<path style="fill:none;stroke:#00b3a7;stroke-width:2;stroke-linejoin:round;stroke-miterlimit:10;" d="M38,9h-2  c-0.552,0-1-0.448-1-1V2c0-0.552,0.448-1,1-1h2c0.552,0,1,0.448,1,1v6C39,8.552,38.552,9,38,9z" fill="#00b3a7"/>
<path style="fill:none;stroke:#00b3a7;stroke-width:2;stroke-linejoin:round;stroke-miterlimit:10;" d="M14,9h-2  c-0.552,0-1-0.448-1-1V2c0-0.552,0.448-1,1-1h2c0.552,0,1,0.448,1,1v6C15,8.552,14.552,9,14,9z" fill="#00b3a7"/>
</svg>
