<?xml version="1.0" encoding="utf-8"?>
<!-- Generator: Adobe Illustrator 18.0.0, SVG Export Plug-In . SVG Version: 6.00 Build 0)  -->
<!DOCTYPE svg PUBLIC "-//W3C//DTD SVG 1.0//EN" "http://www.w3.org/TR/2001/REC-SVG-20010904/DTD/svg10.dtd">
<svg xmlns="http://www.w3.org/2000/svg" xmlns:xlink="http://www.w3.org/1999/xlink" version="1.0" id="Layer_1" x="0px" y="0px" viewBox="0 0 50 50" enable-background="new 0 0 50 50" xml:space="preserve" fill="#00b3a7" width="52px" height="52px">
<line fill="none" stroke="#00b3a7" stroke-width="2" stroke-miterlimit="10" x1="35" y1="0" x2="35" y2="50"/>
<line fill="none" stroke="#00b3a7" stroke-width="2" stroke-miterlimit="10" x1="14" y1="0" x2="14" y2="50"/>
<line fill="none" stroke="#00b3a7" stroke-width="2" stroke-miterlimit="10" x1="8" y1="21" x2="14" y2="21"/>
<line fill="none" stroke="#00b3a7" stroke-width="2" stroke-miterlimit="10" x1="35" y1="21" x2="16" y2="21"/>
<line fill="none" stroke="#00b3a7" stroke-width="2" stroke-miterlimit="10" x1="37" y1="21" x2="42" y2="21"/>
<line fill="none" stroke="#00b3a7" stroke-width="2" stroke-miterlimit="10" x1="8" y1="13" x2="14" y2="13"/>
<line fill="none" stroke="#00b3a7" stroke-width="2" stroke-miterlimit="10" x1="35" y1="13" x2="16" y2="13"/>
<line fill="none" stroke="#00b3a7" stroke-width="2" stroke-miterlimit="10" x1="37" y1="13" x2="42" y2="13"/>
<line fill="none" stroke="#00b3a7" stroke-width="2" stroke-miterlimit="10" x1="8" y1="5" x2="14" y2="5"/>
<line fill="none" stroke="#00b3a7" stroke-width="2" stroke-miterlimit="10" x1="35" y1="5" x2="16" y2="5"/>
<line fill="none" stroke="#00b3a7" stroke-width="2" stroke-miterlimit="10" x1="37" y1="5" x2="42" y2="5"/>
<line fill="none" stroke="#00b3a7" stroke-width="2" stroke-miterlimit="10" x1="8" y1="45" x2="14" y2="45"/>
<line fill="none" stroke="#00b3a7" stroke-width="2" stroke-miterlimit="10" x1="35" y1="45" x2="16" y2="45"/>
<line fill="none" stroke="#00b3a7" stroke-width="2" stroke-miterlimit="10" x1="37" y1="45" x2="42" y2="45"/>
<line fill="none" stroke="#00b3a7" stroke-width="2" stroke-miterlimit="10" x1="8" y1="37" x2="14" y2="37"/>
<line fill="none" stroke="#00b3a7" stroke-width="2" stroke-miterlimit="10" x1="35" y1="37" x2="16" y2="37"/>
<line fill="none" stroke="#00b3a7" stroke-width="2" stroke-miterlimit="10" x1="37" y1="37" x2="42" y2="37"/>
<line fill="none" stroke="#00b3a7" stroke-width="2" stroke-miterlimit="10" x1="8" y1="29" x2="14" y2="29"/>
<line fill="none" stroke="#00b3a7" stroke-width="2" stroke-miterlimit="10" x1="35" y1="29" x2="16" y2="29"/>
<line fill="none" stroke="#00b3a7" stroke-width="2" stroke-miterlimit="10" x1="37" y1="29" x2="42" y2="29"/>
</svg>
