<?xml version="1.0" encoding="iso-8859-1"?>
<!-- Generator: Adobe Illustrator 19.2.1, SVG Export Plug-In . SVG Version: 6.00 Build 0)  -->
<svg xmlns="http://www.w3.org/2000/svg" xmlns:xlink="http://www.w3.org/1999/xlink" version="1.1" id="Layer_1" x="0px" y="0px" viewBox="0 0 50 50" style="enable-background:new 0 0 50 50;" xml:space="preserve" fill="#00b3a7" width="52px" height="52px">
<rect x="25" y="13" style="fill:none;stroke:#00b3a7;stroke-width:2;stroke-linecap:round;stroke-linejoin:round;stroke-miterlimit:10;" width="22" height="8" fill="#00b3a7"/>
<rect x="25" y="29" style="fill:none;stroke:#00b3a7;stroke-width:2;stroke-linecap:round;stroke-linejoin:round;stroke-miterlimit:10;" width="22" height="8" fill="#00b3a7"/>
<g fill="#00b3a7">
	<g fill="#00b3a7">
		<path style="fill:none;stroke:#00b3a7;stroke-width:2;stroke-linecap:round;stroke-linejoin:round;stroke-miterlimit:10;" d="    M20,17c0-4.971-4.029-9-9-9s-9,4.029-9,9c0,3.12,1.589,5.868,4,7.482V25c0,1.105,0.895,2,2,2h6c1.105,0,2-0.895,2-2v-0.518    C18.411,22.868,20,20.12,20,17z" fill="#00b3a7"/>
	</g>
</g>
<polygon style="fill:none;stroke:#00b3a7;stroke-width:2;stroke-linecap:round;stroke-linejoin:round;stroke-miterlimit:10;" points="  14,40 12,42 10,42 8,40 8,27 14,27 " fill="#00b3a7"/>
<path style="fill:none;stroke:#00b3a7;stroke-width:2;stroke-linecap:round;stroke-linejoin:round;stroke-miterlimit:10;" d="M6,17  h10c0-2.761-2.239-5-5-5S6,14.239,6,17z" fill="#00b3a7"/>
<line style="fill:none;stroke:#00b3a7;stroke-width:2;stroke-linejoin:round;stroke-miterlimit:10;" x1="12" y1="32" x2="14" y2="32" fill="#00b3a7"/>
<line style="fill:none;stroke:#00b3a7;stroke-width:2;stroke-linejoin:round;stroke-miterlimit:10;" x1="12" y1="37" x2="14" y2="37" fill="#00b3a7"/>
</svg>
