<?xml version="1.0" encoding="iso-8859-1"?>
<!-- Generator: Adobe Illustrator 19.2.1, SVG Export Plug-In . SVG Version: 6.00 Build 0)  -->
<svg xmlns="http://www.w3.org/2000/svg" xmlns:xlink="http://www.w3.org/1999/xlink" version="1.1" id="Layer_1" x="0px" y="0px" viewBox="0 0 50 50" style="enable-background:new 0 0 50 50;" xml:space="preserve" fill="#00b3a7" width="52px" height="52px">
<circle cx="30.5" cy="29.5" r="1.5" fill="#00b3a7"/>
<circle cx="19.5" cy="29.5" r="1.5" fill="#00b3a7"/>
<path style="fill:none;stroke:#00b3a7;stroke-width:2;stroke-linecap:round;stroke-miterlimit:10;" d="M31.5,15.625  c0,0,5.5,4.221,5.5,12.655c0,8.135-5.012,14.472-5.012,14.472" fill="#00b3a7"/>
<g fill="#00b3a7">
	<g fill="#00b3a7">
		<path style="fill:none;stroke:#00b3a7;stroke-width:2;stroke-linecap:round;stroke-linejoin:round;stroke-miterlimit:10;" d="    M45.496,39.147C40.127,32.247,43,26.639,43,20.568c0-6.159-2.599-13.407-10.552-13.407C31.433,6.113,28.279,3,23.749,3    C13.587,3,7,9.117,7,19.77c0,5.729,3.086,12.195-2.203,19.377c0,0,3.961,2.645,13.211,3.602C20.219,45.541,22.686,47,25,47    c2.321,0,4.798-1.461,7.014-4.265C41.273,41.765,45.496,39.147,45.496,39.147z" fill="#00b3a7"/>
	</g>
</g>
<path style="fill:none;stroke:#00b3a7;stroke-width:2;stroke-linecap:round;stroke-miterlimit:10;" d="M31.5,15.625  c0,0-1.435,5.011-7.5,6.891C20.118,23.719,13,24.067,13,31c0,7.116,5.068,11.817,5.068,11.817" fill="#00b3a7"/>
</svg>
