<?xml version="1.0" encoding="utf-8"?>
<!-- Generator: Adobe Illustrator 17.1.0, SVG Export Plug-In . SVG Version: 6.00 Build 0)  -->
<!DOCTYPE svg PUBLIC "-//W3C//DTD SVG 1.0//EN" "http://www.w3.org/TR/2001/REC-SVG-20010904/DTD/svg10.dtd">
<svg xmlns="http://www.w3.org/2000/svg" xmlns:xlink="http://www.w3.org/1999/xlink" version="1.0" id="Layer_1" x="0px" y="0px" width="52px" height="52px" viewBox="0 0 50 50" style="enable-background:new 0 0 50 50;" xml:space="preserve" fill="#00b3a7">
<rect x="0" style="fill:none;" width="50" height="50" fill="#00b3a7"/>
<circle style="fill:none;stroke:#00b3a7;stroke-width:2;stroke-linecap:round;stroke-linejoin:round;stroke-miterlimit:10;" cx="10" cy="10" r="7" fill="#00b3a7"/>
<path style="fill:none;stroke:#00b3a7;stroke-width:2;stroke-linecap:round;stroke-linejoin:round;stroke-miterlimit:10;" d="M30,24  c0-5,4-9,9-9s9,4,9,9" fill="#00b3a7"/>
<circle cx="38.9" cy="13.1" r="1.8" fill="#00b3a7"/>
<path style="fill:none;stroke:#00b3a7;stroke-width:2;stroke-linecap:round;stroke-linejoin:round;stroke-miterlimit:10;" d="M1,47  h20V32.5l4.4,5c0.7,0.8,1.3,1.5,2.1,1.5c0.8,0,1.2-0.3,2.1-1.5c0.5-0.7,7.4-8.7,7.4-8.7c1.2-1.2,8-1.8,8-3.8H34l-6.5,6.3L21.2,22  c-0.9-0.9-5.6-1-6.2-1l-5,21L5,21c-0.6,0-2.7,0.2-4,0.4" fill="#00b3a7"/>
<line style="fill:none;stroke:#00b3a7;stroke-width:2;stroke-linecap:round;stroke-linejoin:round;stroke-miterlimit:10;" x1="28.8" y1="25" x2="49.1" y2="25" fill="#00b3a7"/>
</svg>
