<?xml version="1.0" encoding="utf-8"?>
<!-- Generator: Adobe Illustrator 18.1.0, SVG Export Plug-In . SVG Version: 6.00 Build 0)  -->
<svg xmlns="http://www.w3.org/2000/svg" xmlns:xlink="http://www.w3.org/1999/xlink" version="1.1" id="Layer_1" x="0px" y="0px" viewBox="0 0 50 50" enable-background="new 0 0 50 50" xml:space="preserve" fill="#00b3a7" width="52px" height="52px">
<path fill="none" stroke="#00b3a7" stroke-width="2" stroke-linejoin="round" stroke-miterlimit="10" d="M29,13h-8V8h8V13z"/>
<g fill="#00b3a7">
	<path fill="none" stroke="#00b3a7" stroke-width="2" stroke-linecap="round" stroke-linejoin="round" stroke-miterlimit="10" d="   M29,10c4.9-2,7-8,8.6-8C39.5,2,43,5.8,43,7.8c0,2.5-10.4,4.2-14,4.2"/>
</g>
<g fill="#00b3a7">
	<path fill="none" stroke="#00b3a7" stroke-width="2" stroke-linecap="round" stroke-linejoin="round" stroke-miterlimit="10" d="   M21,10c-4.9-2-7-8-8.6-8C10.5,2,7,5.8,7,7.8C7,10.3,17.4,12,21,12"/>
</g>
<path fill="none" stroke="#00b3a7" stroke-width="2.1672" stroke-linejoin="round" stroke-miterlimit="10" d="M25,41L25,41  c-0.3,0-8-6.6-8-9.5c0-2.6,1.8-4.4,4.5-4.4c1.5,0,2.8,1.1,3.5,1.8c0.7-0.7,2-1.8,3.5-1.8c2.6,0,4.5,1.8,4.5,4.4C33,34.3,25,41,25,41  z"/>
<path fill="none" stroke="#00b3a7" stroke-width="2" stroke-linejoin="round" stroke-miterlimit="10" d="M3,20v26c0,1.1,0.9,2,2,2  h40c1.1,0,2-0.9,2-2V20"/>
<path fill="none" stroke="#00b3a7" stroke-width="2" stroke-linejoin="round" stroke-miterlimit="10" d="M49,20v-5c0-1.1-0.9-2-2-2  H3c-1.1,0-2,0.9-2,2v5H49z"/>
</svg>
