<?xml version="1.0" encoding="utf-8"?>
<!-- Generator: Adobe Illustrator 17.0.0, SVG Export Plug-In . SVG Version: 6.00 Build 0)  -->
<!DOCTYPE svg PUBLIC "-//W3C//DTD SVG 1.1//EN" "http://www.w3.org/Graphics/SVG/1.1/DTD/svg11.dtd">
<svg xmlns="http://www.w3.org/2000/svg" xmlns:xlink="http://www.w3.org/1999/xlink" version="1.1" id="Layer_1" x="0px" y="0px" width="52px" height="52px" viewBox="0 0 50 50" enable-background="new 0 0 50 50" xml:space="preserve" fill="#00b3a7">

<line fill="none" stroke="#00b3a7" stroke-width="2.0059" stroke-linecap="round" stroke-linejoin="round" stroke-miterlimit="10" x1="28.677" y1="48.987" x2="27.27" y2="29.531"/>
<line fill="none" stroke="#00b3a7" stroke-width="2.0059" stroke-linecap="round" stroke-linejoin="round" stroke-miterlimit="10" x1="22.461" y1="35.219" x2="21.302" y2="48.987"/>
<circle fill="none" stroke="#00b3a7" stroke-width="2" stroke-linecap="round" stroke-linejoin="round" stroke-miterlimit="10" cx="25" cy="23" r="3"/>
<g fill="#00b3a7">
	
		<path fill="none" stroke="#00b3a7" stroke-width="2.0059" stroke-linecap="round" stroke-linejoin="round" stroke-miterlimit="10" d="   M25,16.692c1.327,0,2.558,0.402,3.584,1.087C23.496,7.418,17.756,0.266,15.214,1.409c-2.546,1.147-0.99,10.21,3.408,20.912   C19.035,19.15,21.716,16.692,25,16.692z"/>
	
		<path fill="none" stroke="#00b3a7" stroke-width="2.0059" stroke-linecap="round" stroke-linejoin="round" stroke-miterlimit="10" d="   M28.918,18.046c1.537,1.181,2.544,3.018,2.544,5.108c0,2.553-1.491,4.736-3.637,5.787c11.538,0.777,20.621-0.617,20.901-3.395   C49.006,22.77,40.38,19.589,28.918,18.046z"/>
	
		<path fill="none" stroke="#00b3a7" stroke-width="2.0059" stroke-linecap="round" stroke-linejoin="round" stroke-miterlimit="10" d="   M25,29.615c-3.57,0-6.462-2.892-6.462-6.462c0-0.155,0.034-0.297,0.045-0.449c-6.442,9.602-9.784,18.166-7.518,19.798   c2.261,1.63,9.311-4.235,16.367-13.368C26.68,29.439,25.862,29.615,25,29.615z"/>
</g>
</svg>
