<?xml version="1.0" encoding="utf-8"?>
<!-- Generator: Adobe Illustrator 17.0.0, SVG Export Plug-In . SVG Version: 6.00 Build 0)  -->
<!DOCTYPE svg PUBLIC "-//W3C//DTD SVG 1.1//EN" "http://www.w3.org/Graphics/SVG/1.1/DTD/svg11.dtd">
<svg xmlns="http://www.w3.org/2000/svg" xmlns:xlink="http://www.w3.org/1999/xlink" version="1.1" id="Layer_1" x="0px" y="0px" width="52px" height="52px" viewBox="0 0 50 50" enable-background="new 0 0 50 50" xml:space="preserve" fill="#00b3a7">



<path d="M43,39c-1.104,0-2-0.895-2-2s0.896-2,2-2s2,0.895,2,2S44.104,39,43,39z" fill="#00b3a7"/>
<path fill="none" stroke="#00b3a7" stroke-width="2" stroke-linecap="round" stroke-miterlimit="10" d="M13,47  c0-1.102,0.848-2,1.889-2h20.222C36.152,45,37,45.898,37,47v2H13V47z"/>
<path fill="none" stroke="#00b3a7" stroke-width="2" stroke-linejoin="round" stroke-miterlimit="10" d="M2,41c-0.552,0-1-0.448-1-1  V4c0-0.552,0.448-1,1-1h46c0.552,0,1,0.448,1,1v36c0,0.552-0.448,1-1,1H2z"/>
<path fill="none" stroke="#00b3a7" stroke-width="2" stroke-linejoin="round" stroke-miterlimit="10" d="M6,33c-0.552,0-1-0.448-1-1  V8c0-0.552,0.448-1,1-1h38c0.552,0,1,0.448,1,1v24c0,0.552-0.448,1-1,1H6z"/>
<line fill="none" stroke="#00b3a7" stroke-width="2" stroke-linecap="round" stroke-miterlimit="10" x1="30" y1="45" x2="30" y2="41"/>
<line fill="none" stroke="#00b3a7" stroke-width="2" stroke-linecap="round" stroke-miterlimit="10" x1="20" y1="45" x2="20" y2="41"/>
<g fill="#00b3a7">
	<polygon points="23.624,20.288 23.624,15.786 19.009,16.434 19.009,20.288  " fill="#00b3a7"/>
	<polygon points="24.547,20.288 31.009,20.288 31.009,14.749 24.547,15.656  " fill="#00b3a7"/>
	<polygon points="24.547,21.211 24.547,25.855 31.009,26.742 31.009,21.211  " fill="#00b3a7"/>
	<polygon points="23.624,21.211 19.009,21.211 19.009,25.096 23.624,25.729  " fill="#00b3a7"/>
</g>
</svg>
