<?xml version="1.0" encoding="utf-8"?>
<!-- Generator: Adobe Illustrator 17.0.0, SVG Export Plug-In . SVG Version: 6.00 Build 0)  -->
<!DOCTYPE svg PUBLIC "-//W3C//DTD SVG 1.1//EN" "http://www.w3.org/Graphics/SVG/1.1/DTD/svg11.dtd">
<svg xmlns="http://www.w3.org/2000/svg" xmlns:xlink="http://www.w3.org/1999/xlink" version="1.1" id="Layer_1" x="0px" y="0px" width="52px" height="52px" viewBox="0 0 50 50" enable-background="new 0 0 50 50" xml:space="preserve" fill="#00b3a7">
<path fill="none" stroke="#00b3a7" stroke-width="2" stroke-linecap="round" stroke-miterlimit="10" d="M19,47  c0-1.102,0.848-2,1.889-2h14.222C36.152,45,37,45.898,37,47v2H19V47z"/>
<path fill="none" stroke="#00b3a7" stroke-width="2" stroke-linejoin="round" stroke-miterlimit="10" d="M18,4h30  c0.552,0,1,0.448,1,1v35c0,0.552-0.448,1-1,1H18"/>
<path fill="none" stroke="#00b3a7" stroke-width="2" stroke-linejoin="round" stroke-miterlimit="10" d="M18,8h26  c0.552,0,1,0.448,1,1v24c0,0.552-0.448,1-1,1H18"/>

<path d="M8,45c-1.104,0-2-0.895-2-2s0.896-2,2-2s2,0.895,2,2S9.104,45,8,45z" fill="#00b3a7"/>
<path fill="none" stroke="#00b3a7" stroke-width="2" stroke-linecap="round" stroke-linejoin="round" stroke-miterlimit="10" d="  M2,49c-0.552,0-1-0.448-1-1V5c0-0.552,0.448-1,1-1h12c0.552,0,1,0.448,1,1v43c0,0.552-0.448,1-1,1H2z"/>
<line fill="none" stroke="#00b3a7" stroke-width="2" stroke-linecap="round" stroke-miterlimit="10" x1="24" y1="45" x2="24" y2="41"/>
<line fill="none" stroke="#00b3a7" stroke-width="2" stroke-linecap="round" stroke-miterlimit="10" x1="32" y1="45" x2="32" y2="41"/>
</svg>
