<?xml version="1.0" encoding="iso-8859-1"?>
<!-- Generator: Adobe Illustrator 20.1.0, SVG Export Plug-In . SVG Version: 6.00 Build 0)  -->
<svg xmlns="http://www.w3.org/2000/svg" xmlns:xlink="http://www.w3.org/1999/xlink" version="1.1" x="0px" y="0px" viewBox="0 0 50 50" style="enable-background:new 0 0 50 50;" xml:space="preserve" fill="#00b3a7" width="52px" height="52px">
<polyline style="fill:none;stroke:#00b3a7;stroke-width:2;stroke-linecap:round;stroke-miterlimit:10;" points="41,16 29,16 29,4   " fill="#00b3a7"/>
<polygon style="fill:none;stroke:#00b3a7;stroke-width:2;stroke-linecap:round;stroke-miterlimit:10;" points="42,47 8,47 8,3   28.778,3 42,15.833 " fill="#00b3a7"/>
<g fill="#00b3a7">
	<path d="M20.282,33.665l-0.646-1.86c-0.194-0.585-0.359-1.154-0.539-1.8h-0.03c-0.165,0.646-0.33,1.26-0.48,1.83l-0.54,1.83h-1.949   l1.89-5.175l-1.815-4.935h2.056l0.585,1.874c0.165,0.525,0.3,1.051,0.465,1.62h0.03c0.165-0.614,0.284-1.095,0.42-1.649l0.51-1.845   h1.965l-1.89,5.024l1.994,5.085H20.282z" fill="#00b3a7"/>
	<path d="M23.117,23.556h1.965V32h2.595v1.665h-4.56V23.556z" fill="#00b3a7"/>
	<path d="M28.592,31.655c0.405,0.225,1.095,0.39,1.665,0.39c0.93,0,1.38-0.48,1.38-1.14c0-0.735-0.45-1.096-1.305-1.65   c-1.38-0.84-1.905-1.905-1.905-2.819c0-1.62,1.08-2.971,3.195-2.971c0.66,0,1.29,0.181,1.59,0.36l-0.315,1.695   c-0.284-0.181-0.72-0.346-1.29-0.346c-0.84,0-1.244,0.511-1.244,1.051c0,0.6,0.3,0.914,1.395,1.574   c1.335,0.811,1.83,1.83,1.83,2.896c0,1.845-1.365,3.06-3.345,3.06c-0.811,0-1.605-0.21-1.936-0.405L28.592,31.655z" fill="#00b3a7"/>
</g>
</svg>
