<svg xmlns="http://www.w3.org/2000/svg" width="100pt" height="100pt" viewBox="0 0 100 100"><g fill="none" stroke-width="2" stroke="#ef6407" stroke-miterlimit="10"><path d="M92 50a8 8 0 1 1-16 0 8 8 0 0 1 16 0zM20 50c0 2.21-1.79 4-4 4s-4-1.79-4-4 1.79-4 4-4 4 1.79 4 4zM52 84a1.999 1.999 0 1 1-4 0 1.999 1.999 0 1 1 4 0zM56 16c0 3.313-2.688 6-6 6-3.313 0-6-2.688-6-6 0-3.313 2.688-6 6-6 3.313 0 6 2.688 6 6zM83 74c0 4.969-4.031 9-9 9s-9-4.031-9-9 4.031-9 9-9 9 4.031 9 9zM31 26a5 5 0 1 1-10 0 5 5 0 0 1 10 0zM29 74a3 3 0 1 1-6.002-.002A3 3 0 0 1 29 74zM81 26c0 3.867-3.133 7-7 7s-7-3.133-7-7 3.133-7 7-7 7 3.133 7 7z" stroke-width="4"/></g></svg>