<svg id="Layer_1" data-name="Layer 1" 
  xmlns="http://www.w3.org/2000/svg" viewBox="0 0 487.58 473.76">
  <defs>
    <style>.cls-1{fill:#00B3A7;fill-rule:evenodd;}</style>
  </defs>
  <title>lime_crm_icon_white_RGB</title>
  <path class="cls-1" d="M484.81,177.48C452.15,64.4,359.11,24.35,307.69,16.88,264.48,10.14,152,9.6,79.86,129.22,22.94,223.64,64.08,300.55,64.64,363.74c-.45,28.78-4.84,63.65-44.74,90.46s13,28.79,18.34,29.14c32.63,2.1,84.08,6.83,143.07,4.06,51.1-2.41,140-1.56,219.75-67C440.7,387.9,517.45,303.9,484.81,177.48ZM137,269.27c4.37,4.5,10,6.68,17.11,6.68,10.95,0,18.06-5.4,21.73-16.53l.65-2,26.9,6.84-.53,2.16A45.73,45.73,0,0,1,185.13,293a51.32,51.32,0,0,1-31,9.93c-14.44,0-26.83-4.85-36.84-14.41s-15.13-22-15.13-37,5.09-27.45,15.12-37.1S139.65,200,154.09,200a50.29,50.29,0,0,1,30.49,9.84,49.25,49.25,0,0,1,18.23,26l.65,2.18L175.41,246l-.57-2.24C172,232.44,165.21,227,154.09,227c-7.13,0-12.73,2.22-17.1,6.77s-6.55,10.4-6.55,17.82S132.58,264.76,137,269.27ZM275.2,230.32h-7.52c-20.81,0-30.92,12.31-30.92,37.63v32.22H207.69V202.74h29.07v12.72a40.08,40.08,0,0,1,31.11-14,23.58,23.58,0,0,1,7.23.86l1.62.54Zm162.94,69.85H409.26V244.84c0-5.54-1.51-9.81-4.6-13.08a15,15,0,0,0-11.42-4.8c-6.05,0-10.66,2.08-14.09,6.34s-5.28,11.06-5.28,19.93v46.94H344.8V244.84c0-5.54-1.5-9.81-4.6-13.08a14.94,14.94,0,0,0-11.41-4.8c-6,0-10.59,2-13.9,6.23s-5.11,11-5.11,20v46.94H280.72V202.74h29.06v5c6.84-5.16,15.4-7.76,25.52-7.76,13.08,0,23.39,4.67,30.69,13.92,8.44-9.25,19.79-13.92,33.77-13.92a37.28,37.28,0,0,1,27.1,11.17h0c7.48,7.42,11.28,17.08,11.28,28.7Z" transform="translate(-5.12 -14.49)"/>
</svg>