<svg xmlns="http://www.w3.org/2000/svg" width="100pt" height="100pt" viewBox="0 0 100 100"><g fill="none" stroke-width="2" stroke-linejoin="round" stroke="#00beff" stroke-miterlimit="10"><path d="M58.79 74.344C56.206 76.53 50.003 82 50.003 82s-6.211-5.469-8.793-7.656C35.707 69.688 30 64.883 30 57.46 30 50.715 34.598 46 41.164 46c3.781 0 7.05 2.79 8.828 4.715C51.782 48.789 55.055 46 58.836 46 65.406 46 70 50.715 70 57.46c0 7.423-5.71 12.227-11.21 16.884z" stroke-width="4"/><path d="M16 10H4c-1.105 0-2 .895-2 2v84c0 1.105.895 2 2 2h92c1.105 0 2-.895 2-2V12c0-1.105-.895-2-2-2H80M68 10H28" stroke-width="4"/><path d="M74 2c-1.105 0-2 .895-2 2v12c0 1.105.895 2 2 2h4c1.105 0 2-.895 2-2V4c0-1.105-.895-2-2-2zM22 2c-1.105 0-2 .895-2 2v12c0 1.105.895 2 2 2h4c1.105 0 2-.895 2-2V4c0-1.105-.895-2-2-2zM2 30h96" stroke-width="4"/></g></svg>