<svg xmlns="http://www.w3.org/2000/svg" style="display: none;">
  
    <symbol id="icon-about" viewBox="0 0 512 512">
      <path d="m256 10c-141 0-256 101-256 227 0 62 28 118 74 159-7 21-22 38-38 51-8 7-16 13-23 19-3 2-6 5-8 9-2 3-4 9-3 14l2 4 3 2c13 8 30 9 47 8 18-1 37-5 56-11 37-10 72-24 90-32 18 4 36 6 55 6 141 0 256-101 256-227 0-126-114-229-255-229z m0 21c131 0 235 94 235 208 0 113-105 206-236 206-19 0-36-1-54-5l-4-1-2 1c-18 8-54 23-90 33-18 5-36 8-52 10-10 0-17-2-24-4 5-4 12-10 20-16 18-15 40-36 47-66l2-7-6-3c-45-39-72-91-72-150 0-113 105-206 236-206z m-12 100c-3 0-4 2-4 4l0 27c0 3 2 4 4 4l24 0c3 0 4-2 4-4l0-27c0-3-2-4-4-4z m1 75c-3 0-4 2-4 4l0 137c0 3 2 4 4 4l0 1 23 0c3 0 4-2 4-4l0-138c0-3-2-4-4-4z"/>
    </symbol>
  
    <symbol id="icon-workers-male" viewBox="0 0 512 512">
      <path d="m329 10c-12 0-21 10-21 22-17 3-30 11-40 23-9-7-20-11-33-13 0-12-10-22-22-22l-17 0c-12 0-21 10-22 22-24 3-42 16-53 34-12 18-17 39-18 58-2 0-3 0-5 2-5 2-9 6-12 13-3 6-4 14-4 25l0 8 8 2c0 0 7 2 19 4 1 3 1 6 2 10-5 5-8 13-7 24 2 13 5 22 10 28 3 4 6 4 10 6 1 10 4 21 9 30 2 5 5 10 8 14 1 2 3 3 5 4 0 13 0 23-1 36-4 9-12 15-24 21-13 7-30 13-47 20-17 7-34 16-48 31-14 14-24 33-25 58l-1 11 410 0 0-11c-1-15-6-29-12-40l114 0-1-11c-1-22-10-39-21-51-12-12-27-21-41-28-14-6-28-12-39-17-10-6-17-11-19-18-1-10-1-19-1-29 1-2 2-2 3-4 3-3 5-7 7-12 4-7 6-16 8-25 3-1 6-2 8-4 4-6 7-13 8-24l0-1c1-9-2-15-5-20 1-5 3-10 5-19 11-2 19-3 19-3l8-2 0-8c0-10-2-18-4-24-3-6-7-10-11-12-2-1-3-1-5-2 0-17-5-36-16-53-10-15-26-28-47-31 0-12-9-22-21-22z m0 21l18 0c0 0 1 0 1 2l0 6c0 0 0 1 0 1l0 1c0 1 0 1 0 2l0 59c0 4 2 8 5 9 3 2 7 2 11 0 3-1 5-5 5-9l0-48c12 3 22 9 29 20 9 14 14 33 14 47 0 3 1 7 3 10 2 2 5 3 6 3 4 1 5 1 5 2 1 0 1 0 2 2 0 1 0 5 1 7-10 3-39 9-91 9l-13 0c0-2-1-4-1-5-3-7-8-11-12-14-3-1-4-1-5-2-1-18-6-40-18-57-2-3-4-5-6-8 7-7 15-11 24-14l0 48c0 4 2 8 5 9 3 2 7 2 11 0 3-1 5-5 5-9l0-59c0-1 0-3 0-4l0-6c0-2 1-2 1-2z m-133 10l17 0c1 0 2 1 2 2l0 6c0 1 0 1 0 1l0 1c0 1 0 2 0 2l0 60c0 3 2 7 5 9 3 1 7 1 10 0 4-2 6-6 6-9l0-49c15 3 27 11 36 23 10 15 15 35 15 51 0 3 1 7 4 10 2 2 4 3 6 4 3 1 5 1 5 2 1 0 2 0 3 3 1 1 1 6 1 9-2 0-6 1-11 2-1 0-2 0-3 0-1 0-2 0-3 1-16 2-43 5-84 5-39 0-65-2-82-5-2-1-5-2-8-1-5-1-9-2-12-2 1-3 1-8 2-9 1-3 1-3 2-3 1-1 2-1 6-2 1-1 4-2 6-4 2-3 4-7 4-10 0-16 5-36 15-51 8-12 20-20 36-23l0 49c0 3 2 7 5 9 3 1 7 1 10 0 4-2 6-6 6-9l0-60c0-1 0-3 0-4l0-6c0-1 1-2 1-2z m206 130c-1 5-3 8-4 13l-3 8 7 4c-1 0 3 2 2 8-1 8-3 13-4 14-2 2-2 2-2 2l-8 0-1 8c-1 8-4 17-7 24-2 3-4 6-5 8-1 1-2 2-2 3l0 0c0 0 0 0 0 0l-6 3 0 6c0 12 0 23 1 37l0 1 1 2c5 13 16 22 29 29 13 7 27 12 40 18 14 6 26 14 35 23 6 7 11 16 13 28l-106 0c-13-13-30-22-46-29-17-7-34-13-47-20-12-6-20-12-23-20-2-14-1-24-1-37 1-1 3-2 4-4 3-4 6-9 8-14 4-9 8-20 9-30 4-2 7-2 10-6 5-6 8-15 10-28 1-11-3-18-7-24 1-3 2-6 3-10 11-2 18-4 18-4l8-2 0-8 10 0c26 0 47-1 64-3z m-272 20c19 2 44 4 75 4 31 0 56-2 75-4-1 2-2 4-2 6l-3 8 7 4c0 0 4 3 3 11-1 10-3 15-5 18-2 2-3 2-3 2l-9 1-1 8c-1 9-4 20-8 28-3 4-5 8-7 11-1 2-3 4-2 3l-6 3 0 6c0 15 0 27 1 44l0 2 1 1c6 16 19 25 34 33 15 7 32 13 48 20 16 7 31 15 42 26 8 9 14 20 17 35l-363 0c3-15 8-26 17-35 10-11 26-19 42-26 16-7 32-13 47-20 15-8 29-17 34-33l1-3c2-17 1-29 1-44l0-6-5-3c1 1-2-1-4-3-1-3-4-7-6-11-4-8-8-19-9-28l-1-8-8-1c0 0-1 0-3-2-2-3-4-8-6-18-1-8 4-11 3-11l7-4-2-8c-1-2-1-4-2-6z"/>
    </symbol>
  
    <symbol id="icon-add-contact-to-company" viewBox="0 0 512 512">
      <path d="m133 31l0 51-51 0 0 379 155 0c5 12 16 20 29 20l195 0c17 0 31-14 31-30l0-134c0-16-14-30-31-30l-31 0 0-205-51 0 0-51z m21 20l204 0 0 31-184 0 0 20 236 0 0 185-144 0c-17 0-30 14-30 30l0 123-134 0 0-338 52 0z m-11 82l0 21 41 0 0-21z m93 0l0 21 40 0 0-21z m92 0l0 21 41 0 0-21z m-185 51l0 21 41 0 0-21z m93 0l0 21 40 0 0-21z m92 0l0 21 41 0 0-21z m-185 52l0 20 41 0 0-20z m93 0l0 20 40 0 0-20z m92 0l0 20 41 0 0-20z m-185 51l0 20 41 0 0-20z m123 20l195 0c6 0 10 5 10 10l0 134c0 5-4 10-10 10l-195 0c-6 0-10-5-10-10l0-134c0-5 4-10 10-10z m97 21c-25 0-28 18-22 39-1 1-3 2-3 6 1 6 4 7 5 7 1 6 5 13 7 14 0 4 0 7 0 12-5 13-41 9-43 34l113 0c-2-25-37-21-42-34-1-5-1-8-1-12 2-1 6-8 7-14 1 0 4-1 5-7 0-4-2-5-2-6 2-8 8-32-11-34-2-4-6-5-13-5z m-220 10l0 20 41 0 0-20z m0 51l0 21 41 0 0-21z"/>
    </symbol>
  
    <symbol id="icon-advertising" viewBox="0 0 512 512">
      <path d="m408 20c-3 1-5 2-7 4-4 1-9 2-12 5-4 5-9 10-13 17-9 13-19 29-33 44-28 32-72 64-159 64 0 0 0 0-1 0l-111 0c-28 0-51 23-51 51l0 51c0 22 13 40 33 48 0 0 1 1 2 1 3 3 12 19 19 45 7 26 15 63 23 107 2 9 5 18 11 24 7 7 17 11 29 11l34 0c9 0 18-2 24-8 7-6 9-15 9-23 0-18-11-31-23-42 2 1-1-2-2-8-1-6-2-15-3-25-2-20-3-47-3-79l9 0c1 0 2 0 3 0 0 0 0 0 0 0 87 0 131 34 159 68 14 17 24 35 32 48 5 7 9 13 14 18 4 5 11 10 19 10l0 0c4 0 8-3 11-5 2-3 4-6 5-9 3-7 5-17 7-32 4-23 6-61 7-118l5 0c24 0 43-18 45-42 1-1 1-2 1-3 0-26-20-47-46-47l-5 0c-1-63-4-104-8-129-2-16-5-25-8-32-1-4-3-7-5-9-3-2-7-5-11-5z m-2 22c1 4 4 13 6 27 4 28 8 79 8 167 0 87-3 138-7 167-2 13-4 22-5 26-1-1-1 0-3-2-3-3-6-8-10-15-9-13-19-31-34-50-30-36-79-73-166-75l0-113c85-3 134-36 164-70 15-17 26-35 34-47 4-6 8-10 11-13 1-1 1-1 2-2z m-334 132l102 0 0 113-8 0c-1 0-2 0-2 0-1 0-2 0-2 0l-90 0c-17 0-31-14-31-31l0-51c0-17 14-31 31-31z m368 41l5 0c14 0 26 12 26 27 0 14-11 24-26 24l-5 0c0-10 0-19 0-30 0-8 0-14 0-21z m-358 92l72 0c0 33 1 60 3 80 0 12 2 21 3 28 2 7 2 13 8 18 11 11 16 17 16 28 0 5-1 7-2 8-1 1-3 2-10 2l-34 0c-8 0-12-2-14-4-2-3-4-7-6-13-8-45-16-82-23-109-4-16-8-28-13-38z"/>
    </symbol>
  
    <symbol id="icon-alarm" viewBox="0 0 512 512">
      <path d="m256 61c-17 0-31 14-31 31l0 15c-20 4-37 13-50 27-20 20-32 49-32 82l0 80c0 18-10 42-21 60l-18 27c-2 4-2 8 0 11 1 3 5 5 9 5l92 0c0 28 23 52 51 52 28 0 51-24 51-52l92 0c4 0 8-2 9-5 2-3 2-7 0-11l-18-27 0 0c-11-18-21-40-21-59l0-80c0-55-33-97-82-110l0-15c0-17-14-31-31-31z m0 21c6 0 10 4 10 10l0 12c-2-1-4-1-7-1-1 0-2-1-3-1-1 0-2 1-3 1-3 0-5 0-7 0l0-11c0-6 4-10 10-10z m-220 15c-23 37-36 81-36 128 0 47 13 91 36 129l17-11c-21-34-33-75-33-118 0-43 12-83 33-117z m440 0l-17 11c21 34 33 74 33 117 0 43-12 84-33 118l17 11c23-38 36-82 36-129 0-47-13-91-36-128z m-220 26c56 0 92 37 92 94l0 80c0 26 12 50 24 70 0 0 0 0 0 0l8 12-248 0 8-12c0 0 0 0 0 0 12-20 24-46 24-71l0-80c0-29 9-52 25-68 16-16 39-25 67-25z m-176 1c-19 30-29 64-29 101 0 38 12 72 29 101l18-10c-16-26-26-57-26-91 0-33 9-63 25-90z m352 0l-17 11c16 27 25 57 25 90 0 34-10 65-26 91l18 10c17-29 29-63 29-101 0-37-10-71-29-101z m-207 275l62 0c0 17-14 31-31 31-17 0-31-14-31-31z"/>
    </symbol>
  
    <symbol id="icon-edit-property" viewBox="0 0 512 512">
      <path d="m29 0c-16 0-29 13-29 29l0 51c0 1 0 1 0 2l0 328c0 5 5 10 10 10l236 0c3 0 7-2 9-5 2-3 2-7 0-11-2-3-6-5-9-5l-226 0 0-307 410 0 0 133c0 4 2 7 5 9 3 2 7 2 10 0 4-2 6-5 6-9l0-143c0-1 0-1 0-2l0-51c0-16-14-29-29-29z m0 20l393 0c5 0 8 4 8 9l0 43-410 0 0-43c0-5 4-9 9-9z m43 134l0 20 41 0 0-20z m71 0l0 20 236 0 0-20z m-71 51l0 20 41 0 0-20z m71 0l0 20 236 0 0-20z m327 50c-11 0-21 4-30 12l-7 8 1 0-158 158c-2 1-3 3-3 4l-18 62c-1 3 0 7 3 10 2 3 6 4 10 3l61-17c2 0 4-1 5-3l162-160c1-1 2-3 3-4 0 0 0 0 0 0l1-1c16-17 16-43 0-60-8-8-19-12-30-12z m-398 1l0 20 41 0 0-20z m71 0l0 20 236 0 0-20z m305 33l31 31-157 156-30-29 0-1z m-376 18l0 21 41 0 0-21z m71 0l0 21 195 0 0-21z"/>
    </symbol>
  
    <symbol id="icon-fast-forward" viewBox="0 0 512 512">
      <path d="m31 84l0 344 15-10 200-130 0 140 15-10 236-153 13-9-13-9-236-153-15-10 0 140-200-130z m20 37l200 130 7 5-7 5-200 130z m215 0l207 135-207 135z"/>
    </symbol>
  
    <symbol id="icon-assistant" viewBox="0 0 512 512">
      <path d="m297 8c-74 0-149 23-205 94-56 71-92 190-92 379 0 3 1 6 4 8 2 2 5 3 8 3 0 0 59-11 172-11 1 0 1 0 1 0 20 19 43 31 71 31 28 0 53-12 75-31 0 0 0 0 0 0 1 0 1 0 2 0 111 0 167 11 167 11 3 0 6-1 8-3 3-2 4-5 4-8 0-50-4-86-9-109-3-17-6-26-8-30 4-8 7-16 7-25l0-30c0-17-8-32-21-41 0-57-17-107-47-144-29-36-70-58-119-60l-8-27c-2-4-6-7-10-7z m-7 21l7 25c2 5 6 8 10 7 46 0 84 20 111 54 25 30 40 73 42 121-3 0-6 0-9 0l-21 0c0 0-1 0-1 0-5 0-9 4-9 10l0 18c-6-2-11-3-15-4-12-15-63-80-88-142-2-4-5-7-10-6-4 0-8 3-9 7-10 37-95 144-183 146-6-1-18-3-29 5-10 9-14 20-14 35 0 24 15 43 37 48 14 36 32 77 57 108-86 1-131 7-145 9 2-180 36-291 87-355 50-64 115-84 182-86z m17 119c31 65 82 125 84 128 2 3 5 5 8 5 0 0 15 0 21 12l0 24c0 14-26 17-26 17-4 0-8 4-9 8-5 24-13 46-25 68l23 0c8-19 15-38 20-57 6-1 12-3 17-6l0 11c0 6 4 11 10 11l10 0c0 28-23 51-51 51l-84 0c-4-12-15-21-29-21l-20 0c-17 0-31 14-31 31 0 17 14 31 31 31l20 0c14 0 25-9 29-21l84 0c39 0 72-32 72-71l0-1c7-2 13-4 19-8 1 4 2 9 3 15 4 20 8 52 8 94-13-2-56-7-140-8 3-3 6-7 8-10l-26 0c-22 24-48 41-77 41-49 0-91-50-130-152-1-4-5-6-8-6-15-1-26-13-26-29 0-6 1-14 5-17 4-3 12-2 12-2l4 0c85 0 166-84 194-138z m133 108l11 0c17 0 30 14 30 31l0 30c0 7-1 12-5 17 0 1-1 2-1 2-6 8-15 12-24 12l-11 0 0-53c1-2 1-5 0-7z m-184 164l20 0c6 0 11 4 11 10 0 6-5 10-11 10l-20 0c-6 0-10-4-10-10 0-6 4-10 10-10z"/>
    </symbol>
  
    <symbol id="icon-b2b" viewBox="0 0 512 512">
      <path d="m379 20c-17 0-31 14-31 31l0 10-61 0 0 134 20 0 0-27c6 4 13 6 21 6l123 0c7 0 14-2 20-6l0 47-133 0 0 21 154 0 0-175-62 0 0-10c0-17-14-31-31-31z m0 21l20 0c6 0 11 4 11 10l0 10-41 0 0-10c0-6 4-10 10-10z m-72 41l164 0 0 51c0 11-9 21-20 21l-123 0c-12 0-21-10-21-21z m82 41c-6 0-10 4-10 10 0 6 4 10 10 10 6 0 10-4 10-10 0-6-4-10-10-10z m-133 92l0 21 26 0-67 67 0-27-20 0 0 62 61 0 0-21-26 0 67-67 0 26 20 0 0-61z m-143 61c-17 0-31 14-31 31l0 10-62 0 0 175 205 0 0-134-20 0 0 31c0 11-9 21-21 21l-123 0c-11 0-20-10-20-21l0-51 133 0 0-21-10 0 0-10c0-17-14-31-31-31z m0 21l20 0c6 0 10 4 10 10l0 10-41 0 0-10c0-6 5-10 11-10z m10 82c-6 0-10 4-10 10 0 6 4 10 10 10 6 0 10-4 10-10 0-6-4-10-10-10z m-82 45c6 4 13 6 20 6l123 0c8 0 15-2 21-6l0 47-164 0z"/>
    </symbol>
  
    <symbol id="icon-birthday" viewBox="0 0 512 512">
      <path d="m101 0c-3 0-5 2-6 4 0 0-11 12-21 27-11 15-23 32-23 50 0 27 20 50 46 52 1 0 1 0 1 0l9 0c0 0 0 0 1 0 26-2 46-25 46-52 0-18-12-35-23-50-10-15-21-27-21-27-2-3-6-5-9-4z m153 0c-2 0-4 2-6 4 0 0-10 12-21 27-10 15-22 32-22 50 0 27 20 50 46 52 0 0 1 0 1 0l8 0c0 0 1 0 1 0 26-2 46-25 46-52 0-18-12-35-22-50-11-15-21-27-21-27-3-3-6-5-10-4z m154 0c-2 0-5 2-6 4 0 0-11 12-21 27-11 15-23 32-23 50 0 27 20 50 46 52 1 0 1 0 1 0l9 0c0 0 0 0 1 0 26-2 46-25 46-52 0-18-12-35-23-50-10-15-21-27-21-27-2-3-6-5-9-4z m-306 27c4 5 7 7 13 16 9 14 18 32 18 38 0 14-9 25-20 30l0-29c0-3-1-6-4-8-2-2-5-3-8-3 0 0 0 1-1 1-5 1-8 5-8 10l0 29c-11-5-20-16-20-30 0-6 8-24 18-38 6-9 9-11 12-16z m154 0c4 5 6 7 12 16 10 14 19 32 19 38 0 14-9 25-21 30l0-29c0-3-1-6-3-8-2-2-5-3-8-3 0 0-1 1-1 1-5 1-8 5-8 10l0 29c-12-5-21-16-21-30 0-6 9-24 19-38 6-9 8-11 12-16z m154 0c3 5 6 7 12 16 10 14 18 32 18 38 0 14-9 25-20 30l0-29c0-3-1-6-3-8-3-2-5-3-8-3-1 0-1 1-2 1-4 1-8 5-8 10l0 29c-11-5-20-16-20-30 0-6 9-24 18-38 6-9 9-11 13-16z m-350 106c-10 1-19 10-19 21 0 6 2 9 4 13 3 4 5 8 7 12 5 9 9 18 9 26l0 84c-29 8-51 33-51 64l0 37c-1 3-1 6 0 8l0 94c0 0 0 0-1 0 0 0 0 0-1 0-5 0-9 5-9 11 1 5 6 10 11 9l492 0c3 0 7-2 9-5 2-3 2-7 0-10-2-4-6-6-9-5l0-94c0-2 0-4 0-6l0-39c0-30-22-56-51-64l0-89c0-4 1-9 4-14 2-5 6-10 6-18 0-5-1-11-5-16-5-6-12-9-20-9-28 0-63-10-63-10 0 0 0 0-1 0-1 0-3 0-5 0-10 1-19 10-19 21 0 6 3 9 5 13 2 4 4 8 7 12 5 9 9 18 9 26l0 82-72 0 0-87c0-4 2-9 4-14 3-5 6-10 6-18 0-5-1-11-5-16-4-6-12-9-19-9-29 0-63-10-63-10-1 0-1 0-1 0-2 0-4 0-5 0-11 1-19 10-19 21 0 6 2 9 4 13 2 4 5 8 7 12 5 9 9 18 9 26l0 82-72 0 0-87c0-4 2-9 5-14 2-5 6-10 6-18 0-5-1-11-6-16-4-6-11-9-19-9-28 0-63-10-63-10 0 0-1 0-1 0-2 0-3 0-5 0z m2 21c2 0 35 10 67 10 3 0 3 0 3 0 1 1 1 2 1 4 0-1-1 3-4 9-3 6-6 13-6 23l0 87-41 0 0-82c0-14-6-26-12-36-2-5-5-9-7-13 0-1-1-2-1-2z m154 0c2 0 35 10 67 10 3 0 3 0 3 0 0 1 1 2 1 4 0-1-2 3-4 9-3 6-7 13-7 23l0 87-40 0 0-82c0-14-7-26-12-36-3-5-5-9-7-13-1-1-1-2-1-2z m153 0c3 0 35 10 67 10 4 0 4 0 4 0 0 1 0 2 0 4 0-1-1 3-4 9-3 6-6 13-6 23l0 87-41 0 0-82c0-14-6-26-11-36-3-5-6-9-7-13-1-1-1-2-2-2z m-289 153l352 0c27 0 49 21 49 46l0 38c-5 5-13 8-20 8-17 0-31-13-31-30 0-1 0-1 0-1 0-1 0-2 0-2 0-1 0-1-1-2 0 0 0-1-1-1-1-2-3-4-6-5-2 0-3 0-4 0-2 1-4 2-6 3 0 1 0 1 0 1 0 0-1 1-1 1 0 0 0 0 0 0 0 0 0 1 0 1-1 0-1 0-1 1 0 0 0 1 0 2 0 0 0 1 0 1 0 0 0 0 0 1 0 17-14 30-31 30-17 0-31-13-31-30 0-1 0-1 0-1 0-1 0-2 0-2 0-1 0-1 0-2-1 0-1 0-1 0 0 0 0-1 0-1-1-1-2-2-3-2 0-1-1-1-1-2-1 0-1 0-1 0-1 0-2 0-2-1-2 0-3 0-4 0-2 1-4 2-5 3 0 0 0 0 0 1-1 0-1 0-2 1 0 0 0 0 0 0 0 0 0 1 0 1-1 0-1 1-1 2 0 0 0 0 0 1 0 0 0 0 0 0 0 1 0 1 0 2 0 17-14 30-31 30-17 0-31-13-31-30 0-1 0-1 0-1 0-1 0-2 0-2 0-1 0-1 0-2-1 0-1-1-1-1-2-2-4-4-7-5-1 0-3 0-4 0-1 1-2 1-2 1-1 0-1 1-2 1 0 0-1 1-1 1-1 1-1 1-1 1 0 0 0 1-1 1 0 0 0 0 0 0 0 1-1 2-1 4 0 0 0 1 0 1 0 0 0 0 0 1 0 17-14 30-31 30-17 0-31-13-31-30 0-1 0-1 0-1 0-1 0-2 0-2 0-1 0-1 0-2-1 0-1-1-1-1-2-2-4-4-7-5-1 0-3 0-4 0-2 1-4 2-5 3-1 1-1 1-1 1 0 0 0 1-1 1 0 0 0 0 0 0 0 0 0 1 0 1 0 0 0 0-1 1 0 0 0 1 0 2 0 0 0 1 0 1 0 0 0 0 0 1 0 17-14 30-31 30-17 0-31-13-31-30 0-1 0-1 0-1 0-1 0-1 0-1 0-1 0-2 0-3 0 0-1 0-1 0 0-1 0-1-1-2 0 0 0-1 0-1-1 0-1 0-1 0-2-2-5-3-8-3 0 0-1 0-1 0-5 1-8 6-8 11 0 17-14 30-31 30-8 0-15-3-20-8l0-38c0-26 21-46 49-46z m12 92c10 13 24 21 41 21 17 0 32-8 41-21 9 13 24 21 41 21 17 0 32-8 41-21 9 13 24 21 41 21 17 0 32-8 41-21 9 13 24 21 41 21 17 0 31-8 41-21 9 13 24 21 41 21 7 0 14-2 20-5l0 77-450 0 0-77c6 3 13 5 20 5 17 0 32-8 41-21z"/>
    </symbol>
  
    <symbol id="icon-bullish" viewBox="0 0 512 512">
      <path d="m399 0l0 20 78 0-129 129-33-33-8-8-7 8-116 115-33-34-8-7-7 7-133 134 15 14 125-125 34 33 7 7 8-7 115-115 34 33 7 7 8-7 136-136 0 78 20 0 0-113z m31 143l0 369 21 0 0-369z m62 11l0 358 20 0 0-358z m-185 51l0 307 21 0 0-307z m62 0l0 307 20 0 0-307z m-123 41l0 266 20 0 0-266z m-123 41l0 225 20 0 0-225z m61 20l0 205 21 0 0-205z m-123 41l0 164 21 0 0-164z m-61 41l0 123 20 0 0-123z"/>
    </symbol>
  
    <symbol id="icon-checked-user-male" viewBox="0 0 512 512">
      <path d="m224 4c-38 1-65 12-82 34-19 25-23 65-11 118-5 6-8 14-7 25 3 23 11 32 18 36 3 17 12 38 21 47l0 37c-6 14-27 23-50 32-39 15-88 35-93 96l0 11 332 0-22-20-288 0c8-41 44-55 79-69 28-11 54-21 62-45l1-2 0-51-5-3c-4-3-14-23-16-42l-1-8-8-1c-1 0-7-4-9-20-1-8 3-11 3-11l7-4-2-7c-13-48-11-85 6-107 12-16 35-25 65-26 20 0 34 5 38 13l2 4 5 1c14 2 24 8 30 18 15 25 6 71-1 95l-2 9 6 4c0 0 4 3 3 11-2 17-7 20-8 20l-8 1-1 8c-2 19-13 40-17 42l-5 3 0 51 1 2c9 24 35 34 63 45 28 12 58 24 73 50l5 5 12-15c-18-33-52-47-82-58-24-9-44-18-50-32l0-37c9-9 17-30 20-47 7-4 17-13 19-36 1-11-2-19-6-25 6-21 18-73-4-107-9-14-22-24-40-27-9-12-28-18-53-18z m272 323l-6 8-80 101-55-48-8-7-13 15 7 7 64 55 8 7 7-8 86-110 6-8z"/>
    </symbol>
  
    <symbol id="icon-client-company" viewBox="0 0 512 512">
      <path d="m72 20l0 52-52 0 0 399 123 0 0-20-102 0 0-359 51 0 0-51 205 0 0 31-184 0 0 20 235 0 0 113 21 0 0-133-52 0 0-52z m10 103l0 20 41 0 0-20z m92 0l0 20 41 0 0-20z m92 0l0 20 41 0 0-20z m-184 51l0 21 41 0 0-21z m92 0l0 21 41 0 0-21z m92 0l0 21 41 0 0-21z m31 31c-33 0-58 13-71 34-12 18-12 41-5 62-1 2-2 3-3 5-1 3-3 7-2 12l0 0c0 14 8 20 13 24 3 13 9 23 17 31l0 22c-2 4-6 8-13 11-7 4-17 8-27 13-10 5-20 11-29 21-8 10-13 24-13 41l0 11 328 0-1-11c0-16-6-29-15-38-8-10-19-15-29-20-10-4-19-8-26-12-7-3-10-6-11-10l0-17c6-9 8-19 9-29 5-4 11-11 12-23 1-8-1-15-4-20 5-12 6-27 2-41-2-9-6-17-14-23-5-5-13-8-22-9l-6-14-7 0c-10 0-21 3-30 6-3 2-6 3-9 5-2-2-4-5-6-6-6-6-15-9-24-11l-8-14z m-215 20l0 21 41 0 0-21z m92 0l0 21 26 0 13-21z m117 1l6 13 7 0c8 0 13 2 17 6 4 3 7 9 9 15 4 13 1 30-2 35l-4 6 4 5c3 4 4 7 3 12-1 6-3 7-8 11l-3 3 0 4c0 10-4 20-10 26l-3 3 0 34 1 2c4 11 13 18 22 23 9 5 19 9 28 13 9 5 17 10 22 16 4 5 6 11 8 18l-202 0c1-7 3-13 7-18 6-6 13-11 22-16 9-4 19-8 28-13 10-5 19-12 23-23l0-2 0-35-4-3c-5-3-13-15-14-26l0-5-5-3c-3-1-7-2-7-9 0 0 0-2 1-4 1-2 2-4 2-3l5-5-3-7c-8-17-7-36 2-49 8-13 24-22 48-24z m83 21l6 11 6 0c8 0 13 2 16 5 4 3 6 7 8 13 3 11 0 26-3 33l-3 6 5 6c-1-1 3 4 2 9-1 10-3 9-7 12l-4 3-1 5c0 9-5 22-7 25l-3 3 0 28 1 1c4 11 12 18 21 22 9 5 19 9 28 13 9 4 16 8 22 14 4 4 6 9 8 15l-60 0c-2-12-6-23-13-31-8-10-19-16-29-21-10-5-20-9-27-13-7-3-11-7-12-11l0-23c7-9 10-20 12-31 3-3 10-9 12-20 1-9-2-16-5-22 6-12 7-28 3-44 0 0 0 0 0 0 2-2 5-3 8-5 5-2 11-2 16-3z m-292 29l0 21 41 0 0-21z m92 0l0 21 28 0-3-21z m-92 52l0 20 41 0 0-20z m92 0l0 20 35 0-8-20z m-92 51l0 20 41 0 0-20z m92 0l0 20 41 0 0-20z"/>
    </symbol>
  
    <symbol id="icon-client-management" viewBox="0 0 512 512">
      <path d="m51 41c-5 0-10 5-10 10l0 123 20 0 0-113 103 0 0-20z m297 0l0 20 103 0 0 113 20 0 0-123c0-5-5-10-10-10z m-82 82c-32 0-55 12-67 31-11 17-12 38-5 58-3 4-5 10-5 17 1 8 4 14 7 19 1 1 4 1 5 3 2 6 3 12 6 18 2 3 3 6 5 8 1 1 2 2 2 2 0 7 0 13 0 20-2 3-5 6-12 10-7 4-16 7-26 12-9 4-20 10-28 19-8 9-14 22-15 38 0 3 1 6 3 8 2 2 5 3 7 3l226 0c2 0 5-1 7-3 2-2 3-5 3-8-1-16-7-29-16-38-9-9-20-15-30-19-10-5-20-8-27-12-7-4-11-7-12-11-1-6-1-12-1-19 1 0 2-1 2-2 2-2 4-5 5-8 3-6 4-12 6-18 1-1 4-2 5-3 4-5 6-11 7-19 0-5 0-10-2-14 0-1-2-2-2-2 1-5 4-9 4-14 1-8 0-17-2-27-2-9-7-18-14-25-6-6-14-9-23-10l-4-8c-2-4-5-6-9-6z m-6 22l3 5c1 3 5 6 9 6 7 0 12 2 16 6 4 3 7 9 8 16 2 6 2 13 2 19-1 6-3 11-3 12-2 2-3 5-2 7 0 3 2 6 4 7 0 1 1 2 0 3 0 6-2 8-2 9-5 1-8 5-8 9-1 5-3 11-5 16-1 2-2 4-3 6-1 1-2 1-1 0-3 2-5 6-5 9 0 9-1 17 0 27 1 1 1 2 1 3 4 11 13 17 22 22 9 5 19 8 29 12 9 4 17 9 23 15 4 4 6 9 8 15l-200 0c2-6 4-11 7-15 6-6 14-11 22-15 9-4 18-7 27-12 9-5 17-11 21-22 1-1 1-2 1-3 1-10 1-18 1-27 0-3-3-7-6-9 2 1 1 1 0-1-1-1-3-3-4-5-2-5-4-11-5-16 0-4-3-8-8-9 0-1-2-3-2-9-1-1 0-3 0-3 4-3 6-8 4-12-7-16-6-33 2-46 7-11 22-19 44-20z m-219 213l0 103c0 5 5 10 10 10l113 0 0-20-103 0 0-93z m410 0l0 93-103 0 0 20 113 0c5 0 10-5 10-10l0-103z"/>
    </symbol>
  
    <symbol id="icon-cloud" viewBox="0 0 512 512">
      <path d="m297 87c-53 0-99 32-120 77-12-7-25-13-40-13-39 0-69 30-71 68-38 13-66 49-66 92 0 54 44 99 99 99l322 0c50 0 91-41 91-92 0-46-36-83-81-89 0-2 1-4 1-7 0-74-61-135-135-135z m0 21c63 0 114 51 114 114 0 5 0 9-1 14l-1 12 12 0c39 0 71 31 71 70 0 40-32 71-71 71l-322 0c-44 0-79-35-79-78 0-36 25-67 58-76l8-2-1-8c0-2 0-3 0-3 0-28 23-51 52-51 14 0 27 6 36 15l11 12 6-15c16-44 58-75 107-75z"/>
    </symbol>
  
    <symbol id="icon-combo-chart" viewBox="0 0 512 512">
      <path d="m461 20c-12 0-21 10-21 21 0 3 1 6 2 8l-82 115c0 0-1 0-2 0-4 0-8 1-11 3l-71-35c0-11-9-19-20-19-11 0-20 9-20 20 0 1 0 2 0 3l-75 60c-2-1-5-1-7-1-11 0-19 7-21 17l-69 28c-4-3-8-4-13-4-11 0-20 9-20 20 0 11 9 20 20 20 11 0 19-7 20-17l70-28c4 3 8 5 13 5 11 0 20-10 20-21 0-1 0-2 0-3l75-60c2 1 4 2 7 2 4 0 8-2 11-4l71 36c1 10 10 19 20 19 12 0 21-9 21-21 0-3-1-5-2-8l82-115c1 0 1 0 2 0 11 0 20-9 20-20 0-11-9-21-20-21z m-41 134l0 358 82 0 0-358z m20 20l41 0 0 318-41 0z m-225 72l0 266 82 0 0-266z m21 20l40 0 0 226-40 0z m81 31l0 215 82 0 0-215z m21 20l41 0 0 175-41 0z m-225 11l0 184 82 0 0-184z m20 20l41 0 0 144-41 0z m-123 21l0 143 82 0 0-143z m21 20l41 0 0 103-41 0z"/>
    </symbol>
  
    <symbol id="icon-line-chart" viewBox="0 0 512 512">
      <path d="m492 31c-12 0-21 9-21 20 0 2 0 3 0 4 0 0 0 1 0 1l-107 99c-2-1-4-1-6-1-3 0-7 1-10 2l-72-43c0 0 0 0 0 0 0-12-9-21-20-21-11 0-20 9-20 21 0 1 0 2 0 3l-75 59c-2-1-5-1-7-1-11 0-20 8-21 19l-101 46c-3-2-7-3-12-3-11 0-20 9-20 20 0 11 9 20 20 20 11 0 20-8 21-18l101-47c3 3 7 4 12 4 11 0 20-9 20-20 0-2 0-3 0-4l74-59c3 0 5 1 8 1 4 0 7-1 10-3l72 43c0 1 0 1 0 1 0 11 9 21 20 21 12 0 21-10 21-21 0-1 0-3 0-4l0 0 107-99c2 0 4 1 6 1 11 0 20-9 20-21 0-11-9-20-20-20z m0 266c-12 0-21 9-21 20 0 2 0 3 0 5 0 0 0 0 0 0l-107 99c-1-1-3-1-6-1-1 0-3 0-5 0l-77-77c0-2 0-3 0-5 0-11-9-21-20-21-11 0-20 10-20 21 0 1 0 2 0 3l-75 60c-2-1-5-2-7-2-7 0-12 3-16 8l-99-15c-3-8-10-13-19-13-11 0-20 9-20 20 0 12 9 21 20 21 7 0 12-3 16-8l99 16c3 7 10 12 19 12 11 0 20-9 20-20 0-1 0-2 0-3l74-60c3 1 5 1 8 1 2 0 3 0 5 0l78 77c-1 2-1 4-1 5 0 12 9 21 20 21 12 0 21-9 21-21 0-1 0-3 0-4 0 0 0 0 0 0l107-99c2 1 4 1 6 1 11 0 20-9 20-21 0-11-9-20-20-20z"/>
    </symbol>
  
    <symbol id="icon-like" viewBox="0 0 512 512">
      <path d="m154 72c-74 0-134 59-134 133 0 151 171 226 230 274l6 5 6-5c59-48 230-123 230-274 0-74-60-133-134-133-41 0-78 19-102 49-24-30-61-49-102-49z m0 20c39 0 73 20 93 51l9 13 9-13c20-31 54-51 93-51 63 0 113 50 113 113 0 132-147 200-215 254-68-54-215-122-215-254 0-63 50-113 113-113z"/>
    </symbol>
  
    <symbol id="icon-leadership" viewBox="0 0 512 512">
      <path d="m256 72c-6 0-10 4-10 10l0 31c0 3 2 7 5 9 3 1 7 1 10 0 3-2 5-6 5-9l0-31c0-3-1-6-3-7-2-2-4-4-7-3z m-87 36c-4 0-8 2-9 6-2 4-1 8 2 11l22 22c2 3 6 4 10 3 3-1 6-4 7-8 1-3 0-7-3-10l-22-21c-2-2-4-3-7-3z m174 0c-3 0-6 1-7 3l-22 21c-3 3-4 7-3 10 1 4 4 7 7 8 4 1 8 0 10-3l22-22c3-3 4-7 2-11-1-4-5-7-9-6z m-87 35c-34 0-61 28-61 62 0 34 27 61 61 61 34 0 61-27 61-61 0-34-27-62-61-62z m0 21c23 0 41 18 41 41 0 23-18 41-41 41-23 0-41-18-41-41 0-23 18-41 41-41z m-123 31c-4 0-7 1-9 5-2 3-2 7 0 10 2 3 5 5 9 5l31 0c4 0 7-2 9-5 2-3 2-7 0-10-2-4-5-5-9-5z m215 0c-4 0-7 1-9 5-2 3-2 7 0 10 2 3 5 5 9 5l31 0c4 0 7-2 9-5 2-3 2-7 0-10-2-4-5-5-9-5z m-256 41c-28 0-51 23-51 51 0 28 23 51 51 51 28 0 51-23 51-51 0-28-23-51-51-51z m328 0c-28 0-51 23-51 51 0 28 23 51 51 51 28 0 51-23 51-51 0-28-23-51-51-51z m-328 20c17 0 31 14 31 31 0 17-14 30-31 30-17 0-31-13-31-30 0-17 14-31 31-31z m328 0c17 0 31 14 31 31 0 17-14 30-31 30-17 0-31-13-31-30 0-17 14-31 31-31z m-205 31c-34 0-61 27-61 61l0 20c-9-6-19-10-30-10l-64 0c-27 0-50 23-50 50l0 22 21 0 0-22c0-16 13-29 29-29l64 0c16 0 30 13 30 29l0 22 20 0 0-82c0-22 18-41 41-41l82 0c23 0 41 19 41 41l0 82 20 0 0-22c0-16 14-29 30-29l64 0c16 0 29 13 29 29l0 22 21 0 0-22c0-27-23-50-50-50l-64 0c-11 0-21 4-30 10l0-20c0-34-27-61-61-61z"/>
    </symbol>
  
    <symbol id="icon-thumbnails" viewBox="0 0 512 512">
      <path d="m61 72c-5 0-10 2-14 5-4 4-6 10-6 15l0 62c0 5 2 10 6 14 4 4 9 6 14 6l82 0c6 0 11-2 15-6 4-4 6-9 6-14l0-62c0-5-2-11-6-15-4-3-9-5-15-5z m154 0c-5 0-11 2-15 5-4 4-5 10-5 15l0 62c0 5 1 10 5 14 4 4 10 6 15 6l82 0c5 0 11-2 15-6 4-4 5-9 5-14l0-62c0-5-1-11-5-15-4-3-10-5-15-5z m154 0c-6 0-11 2-15 5-4 4-6 10-6 15l0 62c0 5 2 10 6 14 4 4 9 6 15 6l82 0c5 0 10-2 14-6 4-4 6-9 6-14l0-62c0-5-2-11-6-15-4-3-9-5-14-5z m-308 20l82 0 0 62-82 0z m154 0l82 0 0 62-82 0z m154 0l82 0 0 62-82 0z m-308 113c-5 0-10 2-14 6-4 3-6 9-6 14l0 62c0 5 2 11 6 14 4 4 9 6 14 6l82 0c6 0 11-2 15-6 4-3 6-9 6-14l0-62c0-5-2-11-6-14-4-4-9-6-15-6z m154 0c-5 0-11 2-15 6-4 3-5 9-5 14l0 62c0 5 1 11 5 14 4 4 10 6 15 6l82 0c5 0 11-2 15-6 4-3 5-9 5-14l0-62c0-5-1-11-5-14-4-4-10-6-15-6z m154 0c-6 0-11 2-15 6-4 3-6 9-6 14l0 62c0 5 2 11 6 14 4 4 9 6 15 6l82 0c5 0 10-2 14-6 4-3 6-9 6-14l0-62c0-5-2-11-6-14-4-4-9-6-14-6z m-308 20l82 0 0 62-82 0z m154 0l82 0 0 62-82 0z m154 0l82 0 0 62-82 0z m-308 113c-5 0-10 2-14 6-4 4-6 9-6 14l0 62c0 5 2 11 6 15 4 3 9 5 14 5l82 0c6 0 11-2 15-5 4-4 6-10 6-15l0-62c0-5-2-10-6-14-4-4-9-6-15-6z m154 0c-5 0-11 2-15 6-4 4-5 9-5 14l0 62c0 5 1 11 5 15 4 3 10 5 15 5l82 0c5 0 11-2 15-5 4-4 5-10 5-15l0-62c0-5-1-10-5-14-4-4-10-6-15-6z m154 0c-6 0-11 2-15 6-4 4-6 9-6 14l0 62c0 5 2 11 6 15 4 3 9 5 15 5l82 0c5 0 10-2 14-5 4-4 6-10 6-15l0-62c0-5-2-10-6-14-4-4-9-6-14-6z m-308 20l82 0 0 62-82 0z m154 0l82 0 0 62-82 0z m154 0l82 0 0 62-82 0z"/>
    </symbol>
  
    <symbol id="icon-system-information" viewBox="0 0 512 512">
      <path d="m20 20c-11 0-20 10-20 21l0 369c0 11 9 20 20 20l175 0 0 21-43 0c-16 0-29 14-29 30l0 31 266 0 0-31c0-16-13-30-29-30l-43 0 0-21 175 0c11 0 20-9 20-20l0-369c0-11-9-21-20-21z m0 21l472 0 0 369-183 0c-1-1-3-1-4 0l-98 0c-2-1-3-1-4 0l-183 0z m41 20c-11 0-20 10-20 21l0 246c0 11 9 20 20 20l390 0c11 0 20-9 20-20l0-246c0-11-9-21-20-21z m0 21l390 0 0 246-390 0z m275 57l-6 8-83 106-66-58-8-7-13 16 7 7 74 65 8 7 7-8 90-115 6-8z m104 219c-11 0-20 10-20 21 0 11 9 20 20 20 12 0 21-9 21-20 0-11-9-21-21-21z m-225 72l82 0 0 21-82 0z m-63 41l208 0c4 0 9 4 9 10l0 11-226 0 0-11c0-6 5-10 9-10z"/>
    </symbol>
  
    <symbol id="icon-shopping-cart-loaded" viewBox="0 0 512 512">
      <path d="m19 20c-1 1-1 1-1 1-10 1-18 10-18 20 0 11 9 20 20 20 12 0 21-9 21-20l48 0c12 0 19 3 24 7 5 4 9 12 12 23l82 331c3 11 6 23 15 33 3 4 8 8 13 10-6 7-10 16-10 26 0 23 19 41 41 41 23 0 41-18 41-41 0-7-2-14-6-20l63 0c-3 6-6 13-6 20 0 23 19 41 41 41 23 0 41-18 41-41 0-10-4-20-11-27 2-3 1-7-1-10-2-2-5-4-8-4l-157 0c-15 0-22-3-26-8-4-5-7-14-10-25l0-1-7-27 188 0c4 0 8-3 9-7l74-195c1-3 1-6-1-9-2-3-5-4-9-4l-25 0c0-1 0-1 0-1l-87-86c-2-3-5-4-8-4-2 1-5 2-6 4l-34 33-34-33c-2-3-5-4-8-4-2 1-4 2-6 4l-87 86c0 0 0 0 0 1l-19 0-22-88c0 0 0 0 0 0-4-14-9-25-18-33-10-9-23-13-38-13l-69 0c0 0 0 0 0 0-1 0-1 0-1 0z m261 68l31 31c1 3 3 5 6 6 0 0 0 0 1 0l28 29-131 0z m82 0l66 66-54 0c0-1 0-1 0-1l-38-38z m-190 86l295 0-66 174-186 0z m94 277c12 0 21 9 21 20 0 11-9 21-21 21-11 0-20-10-20-21 0-11 9-20 20-20z m133 0c12 0 21 9 21 20 0 11-9 21-21 21-11 0-20-10-20-21 0-11 9-20 20-20z"/>
    </symbol>
  
    <symbol id="icon-sales-channels" viewBox="0 0 512 512">
      <path d="m256 20c-17 0-31 14-31 31 0 13 9 25 21 29l0 74 20 0 0-74c12-4 21-16 21-29 0-17-14-31-31-31z m0 21c6 0 10 4 10 10 0 6-4 10-10 10-6 0-10-4-10-10 0-6 4-10 10-10z m-184 72c-17 0-31 14-31 30 0 17 14 31 31 31 6 0 12-2 17-6l54 35 0-19c0-1 1-3 1-4l-43-28c1-3 1-6 1-9 0-16-13-30-30-30z m368 0c-17 0-30 14-30 30 0 3 0 6 1 9l-43 28c0 1 1 3 1 4l0 19 54-35c5 4 11 6 17 6 17 0 31-14 31-31 0-16-14-30-31-30z m-368 20c5 0 10 5 10 10 0 6-5 11-10 11-6 0-11-5-11-11 0-5 5-10 11-10z m368 0c6 0 11 5 11 10 0 6-5 11-11 11-5 0-10-5-10-11 0-5 5-10 10-10z m-266 41c-6 0-10 5-10 10l0 144c0 5 4 10 10 10l164 0c6 0 10-5 10-10l0-144c0-5-4-10-10-10z m10 21l144 0 0 122-144 0z m52 20c-4 0-8 2-9 5-2 3-2 7 0 10 1 4 5 6 9 6l40 0c4 0 8-2 9-6 2-3 2-7 0-10-1-3-5-5-9-5z m-93 94l-54 35c-5-4-11-6-17-6-17 0-31 14-31 31 0 16 14 30 31 30 17 0 30-14 30-30 0-3 0-6-1-9l43-28c0-1-1-3-1-4z m226 0l0 19c0 1-1 3-1 4l43 28c-1 3-1 6-1 9 0 16 13 30 30 30 17 0 31-14 31-30 0-17-14-31-31-31-6 0-12 2-17 6z m-297 49c5 0 10 5 10 11 0 5-5 10-10 10-6 0-11-5-11-10 0-6 5-11 11-11z m174 0l0 74c-12 4-21 16-21 29 0 17 14 31 31 31 17 0 31-14 31-31 0-13-9-25-21-29l0-74z m194 0c6 0 11 5 11 11 0 5-5 10-11 10-5 0-10-5-10-10 0-6 5-11 10-11z m-184 93c6 0 10 4 10 10 0 6-4 10-10 10-6 0-10-4-10-10 0-6 4-10 10-10z"/>
    </symbol>
  
    <symbol id="icon-groups" viewBox="0 0 512 512">
      <path d="m174 20c-34 0-61 28-61 62 0 20 10 38 25 50-8 4-16 9-22 16-8-3-16-5-24-5-39 0-72 33-72 72 0 25 13 47 33 60-31 15-53 47-53 83l0 46c0 4 2 7 4 9 0 0 7 5 21 9 14 4 36 8 67 8 32 0 53-4 67-8 2 0 3-1 5-2l0 46c0 3 1 6 4 8 0 0 7 5 21 10 14 4 35 8 67 8 32 0 53-4 67-8 14-5 21-10 21-10 3-2 4-5 4-8l0-46c2 1 3 2 5 2 14 4 35 8 67 8 31 0 53-4 67-8 14-4 21-9 21-9 2-2 4-5 4-9l0-46c0-36-22-68-53-83 20-13 33-35 33-60 0-39-33-72-72-72-9 0-18 2-25 5-7-7-14-12-23-16 15-12 25-30 25-50 0-34-27-62-61-62-34 0-61 28-61 62 0 20 10 38 25 50-24 11-41 33-45 60-4-27-21-49-45-60 16-12 26-30 26-50 0-34-28-62-62-62z m0 21c23 0 41 18 41 41 0 23-18 41-41 41-23 0-41-18-41-41 0-23 18-41 41-41z m162 0c23 0 41 18 41 41 0 23-18 41-41 41-23 0-41-18-41-41 0-23 18-41 41-41z m-162 102c35 0 62 27 62 62l0 3c-30 9-52 36-52 68 0 26 13 48 33 61-13 6-24 15-33 26l0-5c0-36-22-68-53-83 20-13 33-35 33-60 0-23-12-44-29-57 11-9 24-15 39-15z m162 0c16 0 29 6 40 15-17 14-28 34-28 57 0 25 13 47 33 60-31 15-53 47-53 83l0 5c-9-11-20-20-33-26 20-13 33-35 33-61 0-33-23-60-53-69l0-2c0-35 26-62 61-62z m-244 21c8 0 16 2 22 5 17 8 29 26 29 46 0 28-22 51-51 51-28 0-51-23-51-51 0-28 23-51 51-51z m328 0c28 0 51 23 51 51 0 28-23 51-51 51-29 0-51-23-51-51 0-19 10-35 25-44 0 0 0 0 0 0 2 0 3-1 4-2 1 0 1-1 1-1 1 0 1 0 1 0 6-3 13-4 20-4z m-164 61c28 0 51 23 51 51 0 29-23 52-51 52-28 0-51-23-51-52 0-28 23-51 51-51z m-164 62c40 0 72 32 72 71l0 40c-2 1-2 2-11 4-11 4-31 8-61 8-30 0-49-4-61-8-8-2-9-3-11-4l0-40c0-39 33-71 72-71z m328 0c39 0 72 32 72 71l0 40c-2 1-3 2-11 4-12 4-31 8-61 8-30 0-50-4-61-8-9-2-9-3-11-4l0-40c0-39 32-71 72-71z m-164 61c39 0 72 32 72 72l0 39c-2 1-2 2-11 5-12 3-31 7-61 7-30 0-49-4-61-7-9-3-9-4-11-5l0-39c0-40 33-72 72-72z"/>
    </symbol>
  
    <symbol id="icon-google-alerts" viewBox="0 0 512 512">
      <path d="m408 20c-27 0-50 21-53 48-1-1-2-1-2-1-103-17-156 109-179 127-10 7-38 9-65 13-14 2-27 5-39 12-12 6-22 18-26 34l0 0c-4 11-3 23 1 36 4 14 13 28 26 43 24 30 60 61 106 89 9 35 41 60 79 60 11 0 22-2 32-6 32 11 60 17 85 17 24 0 43-7 54-23l0 0c0 0 0-1 1-1 9-11 16-25 15-41-1-18-9-38-26-66-6-10-4-27 3-49 7-22 19-47 28-74 9-27 16-55 11-82-3-14-9-27-19-40 13-10 21-25 21-42 0-30-24-54-53-54z m0 21c18 0 32 15 32 33 0 11-5 21-14 27-8-6-16-12-26-17 0 0 0 0 0 0-9-5-17-8-25-11 0-18 15-32 33-32z m-77 43c17 1 37 6 59 18 32 17 44 36 48 58 5 22-1 46-9 72-9 25-21 50-29 74-7 24-12 47 0 66 6 11 11 20 15 29-5-7-10-14-16-21-27-32-70-65-121-95-59-34-116-54-160-59 24-2 50-2 68-16 39-29 69-126 145-126z m-230 162c39 0 103 19 167 57 50 28 90 61 116 91 12 14 21 28 25 39 4 11 4 19 1 25-5 7-17 13-37 13-17 0-38-4-62-11 16-15 27-36 27-61 0-45-37-82-82-82-44 0-79 35-82 78-37-25-68-52-88-76-11-13-18-26-22-37-3-10-3-18 0-23 5-7 17-13 37-13z m155 92c35 0 61 27 61 61 0 35-26 62-61 62-35 0-61-27-61-62 0-34 26-61 61-61z"/>
    </symbol>
  
    <symbol id="icon-safety-collection-place" viewBox="0 0 512 512">
      <path d="m16 2l-14 14 76 76-68 0 0 21 103 0 0-103-21 0 0 68z m480 0l-76 76 0-68-21 0 0 103 103 0 0-21-68 0 76-76z m-240 90c-28 0-51 23-51 51 0 28 23 52 51 52 28 0 51-24 51-52 0-28-23-51-51-51z m0 21c17 0 31 13 31 30 0 17-14 31-31 31-17 0-31-14-31-31 0-17 14-30 31-30z m-102 41c-29 0-52 23-52 51 0 28 23 51 52 51 28 0 51-23 51-51 0-28-23-51-51-51z m0 102c-22 0-42 6-57 15-14 10-25 23-25 38l0 39 82 0c3 0 7-2 9-5 1-3 1-7 0-10-2-3-6-5-9-5l-62 0 0-19c0-5 5-13 16-20 11-7 28-13 46-13 10 0 20 2 29 5 6 2 12-1 13-7 2-5-1-11-7-13-11-3-23-5-35-5z m204-102c-28 0-51 23-51 51 0 28 23 51 51 51 29 0 52-23 52-51 0-28-23-51-52-51z m0 102c-13 0-25 2-36 6-4 1-7 4-8 7 0 4 1 8 4 11 3 2 7 3 11 1 8-3 18-5 29-5 18 0 34 6 46 13 11 7 16 16 16 20l0 19-62 0c-3 0-7 2-9 5-1 3-1 7 0 10 2 3 6 5 9 5l82 0 0-39c0-15-11-28-25-37-15-10-35-16-57-16z m-204-82c17 0 30 14 30 31 0 17-13 31-30 31-17 0-31-14-31-31 0-17 14-31 31-31z m204 0c17 0 31 14 31 31 0 17-14 31-31 31-17 0-30-14-30-31 0-17 13-31 30-31z m-102 31c-28 0-51 23-51 51 0 28 23 51 51 51 28 0 51-23 51-51 0-28-23-51-51-51z m0 102c-22 0-42 6-56 16-15 9-26 22-26 37l0 39 164 0 0-39c0-15-11-28-26-37-14-10-34-16-56-16z m0-82c17 0 31 14 31 31 0 17-14 31-31 31-17 0-31-14-31-31 0-17 14-31 31-31z m0 103c18 0 34 5 45 12 12 7 16 15 16 20l0 19-122 0 0-19c0-5 4-13 16-20 11-7 27-12 45-12z m-246 71l0 21 68 0-76 76 14 14 76-76 0 68 21 0 0-103z m389 0l0 103 21 0 0-68 76 76 14-14-76-76 68 0 0-21z"/>
    </symbol>
  
    <symbol id="icon-resume" viewBox="0 0 512 512">
      <path d="m72 20l0 472 368 0 0-472z m20 21l328 0 0 430-328 0z m86 41c-22 0-24 17-20 34 0 0-2 3-2 6 0 6 5 8 5 8 0 6 5 11 7 12 0 4 1 7 0 11-4 12-34 8-35 31l91 0c-1-23-31-19-35-31-1-4 0-7 0-11 2-1 7-6 7-12 0 0 5-2 5-7 0-3-1-6-2-7 2-7 6-28-9-28-2-3-6-6-12-6z m106 20c-6 1-10 6-9 12 1 6 6 10 12 9l82 0c3 0 7-2 9-5 1-3 1-7 0-11-2-3-6-5-9-5l-82 0c-1 0-1 0-1 0-1 0-1 0-1 0-1 0-1 0-1 0z m0 52c-6 0-10 6-9 11 1 6 6 10 12 9l82 0c3 0 7-2 9-5 1-3 1-7 0-10-2-4-6-5-9-5l-82 0c-1 0-1 0-1 0-1 0-1 0-1 0-1 0-1 0-1 0z m-144 102c-5 1-9 6-8 12 0 5 6 9 11 8l144 0c3 1 7-1 9-5 2-3 2-7 0-10-2-3-6-5-9-5l-144 0c0 0 0 0-1 0 0 0 0 0-1 0 0 0 0 0-1 0z m195 0c-6 1-10 6-9 12 1 5 6 9 12 8l31 0c3 1 7-1 9-5 1-3 1-7 0-10-2-3-6-5-9-5l-31 0c0 0-1 0-1 0 0 0-1 0-1 0 0 0-1 0-1 0z m-195 61c-5 1-9 6-8 12 0 6 6 10 11 9l113 0c4 0 7-2 9-5 2-3 2-7 0-10-2-4-5-6-9-6l-113 0c0 0 0 0-1 0 0 0 0 0-1 0 0 0 0 0-1 0z m195 0c-6 1-10 6-9 12 1 6 6 10 12 9l31 0c3 0 7-2 9-5 1-3 1-7 0-10-2-4-6-6-9-6l-31 0c0 0-1 0-1 0 0 0-1 0-1 0 0 0-1 0-1 0z m-195 62c-5 1-9 6-8 12 0 5 6 9 11 8l144 0c3 0 7-2 9-5 2-3 2-7 0-10-2-3-6-5-9-5l-144 0c0 0 0 0-1 0 0 0 0 0-1 0 0 0 0 0-1 0z m195 0c-6 1-10 6-9 12 1 5 6 9 12 8l31 0c3 0 7-2 9-5 1-3 1-7 0-10-2-3-6-5-9-5l-31 0c0 0-1 0-1 0 0 0-1 0-1 0 0 0-1 0-1 0z"/>
    </symbol>
  
    <symbol id="icon-goal" viewBox="0 0 512 512">
      <path d="m256 20c-130 0-236 106-236 236 0 130 106 236 236 236 130 0 236-106 236-236 0-47-14-91-38-128l-15 15c20 33 32 72 32 113 0 119-96 215-215 215-119 0-215-96-215-215 0-119 96-215 215-215 50 0 96 18 133 47l0 20-25 25c-29-25-67-41-108-41-90 0-164 74-164 164 0 90 74 164 164 164 90 0 164-74 164-164 0-34-11-66-29-92l-14 15c14 22 22 49 22 77 0 79-64 143-143 143-79 0-143-64-143-143 0-79 64-143 143-143 36 0 69 13 94 35l-37 36c-15-12-35-20-57-20-51 0-92 41-92 92 0 51 41 92 92 92 51 0 92-41 92-92 0-14-3-28-9-40l-16 16c3 7 5 16 5 24 0 40-32 72-72 72-40 0-72-32-72-72 0-40 32-72 72-72 16 0 31 6 43 15l-38 37c-1 0-3 0-5 0-11 0-20 9-20 20 0 11 9 20 20 20 11 0 20-9 20-20 0-2 0-4 0-5l128-128 26 0 51-51-41 0 0-41-39 39c-40-31-90-50-145-50z"/>
    </symbol>
  
    <symbol id="icon-fire-element" viewBox="0 0 512 512">
      <path d="m223 0c-5 1-8 5-9 9-6 71-47 118-89 167-42 49-84 99-84 176 0 52 23 92 54 119 31 27 68 41 100 41 3 0 7-2 9-5 1-3 1-7 0-10-2-4-6-6-9-5-25 0-60-12-87-36-26-24-47-58-47-104 0-69 38-114 80-163 38-45 79-93 90-161 155 109 220 219 220 302 0 79-49 143-96 162-6 2-8 8-6 14 2 5 8 7 13 5 58-23 109-94 109-181 0-96-73-214-241-328-2-1-4-2-6-2-1 0-1 0-1 0z m39 158c-3 0-5 2-7 4-2 2-2 5-2 8 6 36 8 65 6 88-2 22-8 37-14 43-5 7-10 8-19 4-9-4-21-15-34-34-1-3-5-4-8-5-3 0-6 2-8 4-39 52-37 93-23 120 13 26 37 39 37 39 3 2 7 2 11 0 3-2 5-5 5-9 0-4-3-8-7-9 0 0-18-10-28-30-9-19-12-46 14-87 11 14 22 25 33 30 15 7 32 3 43-9 10-12 16-31 18-56 2-17 1-38-2-62 28 28 50 57 59 89 12 40 6 83-27 128-3 4-2 11 2 14 5 4 11 3 15-2 36-49 43-100 30-145-13-46-45-87-86-121-2-2-5-3-8-2z"/>
    </symbol>
  
    <symbol id="icon-positive-dynamic" viewBox="0 0 512 512">
      <path d="m131 72c-5 0-10 5-9 11 0 6 5 10 11 9l67 0-177 177c-4 4-4 11 0 15 4 4 11 4 15 0l177-177 0 67c0 4 2 7 5 9 3 2 7 2 10 0 4-2 6-5 6-9l0-102-103 0c0 0-1 0-1 0 0 0 0 0-1 0z m217 41l0 399 144 0 0-399z m21 20l102 0 0 359-102 0z m-185 113l0 266 144 0 0-266z m21 20l102 0 0 226-102 0z m-185 92l0 154 144 0 0-154z m21 21l102 0 0 113-102 0z"/>
    </symbol>
  
    <symbol id="icon-paid-search" viewBox="0 0 512 512">
      <path d="m29 0c-16 0-29 13-29 29l0 381c0 5 5 10 10 10l236 0c3 0 7-2 9-5 2-3 2-7 0-11-2-3-6-5-9-5l-226 0 0-317 410 0 0 174c0 4 2 7 5 9 3 2 7 2 10 0 4-2 6-5 6-9l0-227c0-16-13-29-29-29z m0 20l393 0c5 0 8 4 8 9l0 32-410 0 0-32c0-5 4-9 9-9z m22 11c-5 0-10 4-10 10 0 6 5 10 10 10 6 0 10-4 10-10 0-6-4-10-10-10z m31 0c-6 0-10 4-10 10 0 6 4 10 10 10 6 0 10-4 10-10 0-6-4-10-10-10z m31 0c-6 0-11 4-11 10 0 6 5 10 11 10 5 0 10-4 10-10 0-6-5-10-10-10z m-31 92l0 11c-12 2-21 12-21 25 0 14 12 25 26 25 3 0 5 3 5 5 0 3-2 6-5 6l-25 0c2 10 10 17 20 19l0 11 10 0 0-10c12-3 21-13 21-26 0-14-12-25-26-25-3 0-5-2-5-5 0-3 2-5 5-5l25 0c-2-10-10-18-20-20l0-11z m61 20l0 21 236 0 0-21z m0 41l0 21 236 0 0-21z m-61 72l0 11c-12 2-21 12-21 25 0 14 12 25 26 25 3 0 5 3 5 6 0 2-2 5-5 5l-25 0c2 10 10 18 20 20l0 10 10 0 0-10c12-3 21-13 21-25 0-15-12-26-26-26-3 0-5-2-5-5 0-3 2-5 5-5l25 0c-2-10-10-18-20-20l0-11z m287 10c-57 0-103 46-103 103 0 56 46 102 103 102 24 0 47-9 64-23l62 61 14-14-61-62c14-17 23-40 23-64 0-57-46-103-102-103z m-226 10l0 21 133 0 0-21z m226 11c45 0 82 36 82 82 0 45-37 82-82 82-46 0-82-37-82-82 0-46 36-82 82-82z m-226 30l0 21 103 0 0-21z"/>
    </symbol>
  
    <symbol id="icon-fine-print" viewBox="0 0 512 512">
      <path d="m60 0c-5 1-9 5-9 10l0 441c0 5 5 10 10 10l204 0c21 13 46 20 73 20 36 0 69-13 94-35l66 66 14-14-66-66c22-25 35-58 35-94 0-49-24-92-61-118l0-210c0-5-5-10-10-10l-349 0c0 0 0 0-1 0 0 0 0 0 0 0z m12 20l327 0 0 189c-18-9-39-14-61-14-34 0-64 11-89 30l-106 0 0 21 85 0c-10 12-18 26-24 41l-61 0 0 20 55 0c-2 10-3 20-3 31 0 3 0 7 0 10l-52 0 0 21 55 0c6 27 20 52 39 71l-165 0z m71 82l0 21 195 0 0-21z m0 62l0 20 195 0 0-20z m195 51c24 0 47 7 66 19 0 0 0 0 1 1 34 21 56 60 56 103 0 68-55 123-123 123-25 0-48-7-67-20-34-22-56-60-56-103 0-68 55-123 123-123z m-82 61c-7 10-12 20-15 31l148 0 0-31z m-19 82c2 12 7 22 12 31l140 0 0-31z"/>
    </symbol>
  
    <symbol id="icon-omnichannel" viewBox="0 0 512 512">
      <path d="m256 20c-17 0-31 14-31 31 0 13 9 25 21 29l0 43c0 4 2 7 5 9 3 2 7 2 10 0 3-2 5-5 5-9l0-43c12-4 21-16 21-29 0-17-14-31-31-31z m0 21c6 0 10 4 10 10 0 6-4 10-9 10-1 0-1 0-1 0 0 0 0 0-1 0-5 0-9-4-9-10 0-6 4-10 10-10z m-184 72c-17 0-31 14-31 30 0 17 14 31 31 31 7 0 14-3 19-7l78 47c5 3 11 1 14-4 3-5 1-11-4-14l-77-46c0-2 0-4 0-7 0-16-13-30-30-30z m368 0c-17 0-30 14-30 30 0 3 0 5 0 7l-77 46c-5 3-7 9-4 14 3 5 9 7 14 4l78-47c5 4 12 7 19 7 17 0 31-14 31-31 0-16-14-30-31-30z m-368 20c5 0 10 5 10 10 0 6-5 11-10 11-6 0-11-5-11-11 0-5 5-10 11-10z m368 0c6 0 11 5 11 10 0 6-5 11-11 11-5 0-10-5-10-11 0-5 5-10 10-10z m-177 21c-24 0-42 8-51 22-8 13-8 30-4 46-2 4-4 8-3 13 1 6 2 10 5 14 1 2 3 2 4 3 1 5 3 11 5 14 2 3 4 5 6 7 0 0 0 0 0 0l0 10c0 2-2 3-5 5-4 2-10 5-16 8-7 3-14 7-20 14-5 7-9 16-10 27 0 3 1 6 3 8 2 2 5 3 7 3l144 0c2 0 5-1 7-3 2-2 3-5 3-8-1-11-5-20-10-27-6-7-13-11-20-14-6-3-12-6-16-8-3-2-5-3-5-5l0-10c0 0 0 0 0 0 2-2 4-4 6-7 2-3 4-9 5-14 1-1 3-1 4-3 3-3 4-8 5-14 0-4 0-7-1-11-1 0-1-1-2-1 3-12 4-24 0-36-5-11-16-18-30-21l-2-6c-1-4-5-6-9-6z m-7 21l1 3c1 4 5 6 9 6 12 0 16 4 19 11 2 7 2 17-1 27-1 4 0 8 3 11 0 0 0 0 0 0-1 3-1 3-1 4-4 1-6 5-6 9 0 1-2 5-4 8-1 2-2 3-3 4-2 1-3 2-2 1-3 2-5 6-5 9l0 18c0 1 0 2 1 3 3 9 9 14 15 17 6 3 12 6 17 8 6 3 10 6 13 9 1 1 1 3 2 5l-116 0c1-2 1-4 2-5 3-3 7-6 13-9 5-2 11-5 17-8 6-3 12-8 15-17 1-1 1-2 1-3l0-18c0-3-2-7-5-9 1 1-1 0-2-1-1-1-2-2-3-4-2-3-4-7-4-8 0-4-2-8-6-10 0 0 0 0-1-3 0-1 0-1 0-1 3-2 4-6 3-10-4-15-3-27 1-35 5-6 13-10 27-12z m-112 140c-2 0-4 0-6 1l-47 29c-5-4-12-7-19-7-17 0-31 14-31 31 0 16 14 30 31 30 17 0 30-14 30-30 0-3 0-5 0-7l47-28c4-3 6-7 4-12-1-4-5-7-9-7z m224 0c-4 0-8 3-9 7-2 5 0 9 4 12l47 28c0 2 0 4 0 7 0 16 13 30 30 30 17 0 31-14 31-30 0-17-14-31-31-31-7 0-14 3-19 7l-47-29c-2-1-4-2-6-1z m-296 43c5 0 10 5 10 11 0 5-5 10-10 10-6 0-11-5-11-10 0-6 5-11 11-11z m368 0c6 0 11 5 11 11 0 5-5 10-11 10-5 0-10-5-10-10 0-6 5-11 10-11z m-184 11c-6 0-10 4-10 10l0 53c-12 4-21 16-21 29 0 17 14 31 31 31 17 0 31-14 31-31 0-13-9-25-21-29l0-53c0-3-1-6-3-8-2-1-4-3-7-2z m-1 82c1 0 1 0 2 0 5 0 9 4 9 10 0 6-4 10-10 10-6 0-10-4-10-10 0-6 4-10 9-10z"/>
    </symbol>
  
    <symbol id="icon-mind-map" viewBox="0 0 512 512">
      <path d="m61 0c-33 0-61 28-61 61 0 34 28 62 61 62 14 0 26-4 36-12l80 80c-15 18-23 40-23 65 0 20 6 39 16 55l-67 53c-11-10-26-16-42-16-33 0-61 28-61 62 0 33 28 61 61 61 34 0 62-28 62-61 0-11-3-21-8-30l68-53c18 19 44 31 73 31 14 0 27-2 38-7l27 51c-14 11-24 29-24 49 0 33 28 61 61 61 34 0 62-28 62-61 0-34-28-62-62-62-6 0-13 1-19 3l-27-51c20-12 34-31 42-54l35 7c0 1 0 2 0 3 0 34 28 61 62 61 33 0 61-27 61-61 0-34-28-61-61-61-26 0-49 16-58 39l-35-8c0-4 0-7 0-11 0-40-23-75-57-92l15-42c4 1 8 1 12 1 33 0 61-28 61-62 0-33-28-61-61-61-34 0-62 28-62 61 0 23 13 43 31 54l-15 42c-9-2-17-3-26-3-25 0-47 8-65 23l-80-80c8-10 12-22 12-36 0-33-28-61-62-61z m0 20c23 0 41 19 41 41 0 23-18 41-41 41-22 0-41-18-41-41 0-22 19-41 41-41z m267 0c22 0 41 19 41 41 0 23-19 41-41 41-23 0-41-18-41-41 0-22 18-41 41-41z m-72 154c45 0 82 37 82 82 0 45-37 82-82 82-45 0-82-37-82-82 0-22 9-42 23-57 1 0 1-1 2-2 15-14 35-23 57-23z m195 82c22 0 41 18 41 41 0 23-19 41-41 41-23 0-41-18-41-41 0-23 18-41 41-41z m-390 113c23 0 41 18 41 41 0 22-18 41-41 41-22 0-41-19-41-41 0-23 19-41 41-41z m297 41c23 0 41 18 41 41 0 22-18 41-41 41-22 0-41-19-41-41 0-16 9-29 22-36 0 0 0 0 1-1 0 0 0 0 0 0 0 0 0 0 0 0 6-3 12-4 18-4z"/>
    </symbol>
  
    <symbol id="icon-meeting" viewBox="0 0 512 512">
      <path d="m108 41c-26 0-47 21-47 46 0 25 21 46 47 46 25 0 46-21 46-46 0-25-21-46-46-46z m296 0c-25 0-46 21-46 46 0 25 21 46 46 46 26 0 47-21 47-46 0-25-21-46-47-46z m-296 20c14 0 25 12 25 26 0 14-11 26-25 26-15 0-26-12-26-26 0-14 11-26 26-26z m296 0c15 0 26 12 26 26 0 14-11 26-26 26-14 0-25-12-25-26 0-14 11-26 25-26z m-322 82c-34 0-62 28-62 62l0 112c0 17 14 31 31 31 4 0 7-1 10-2l0 7-28 77c-6 15 2 33 18 39l0 0 0 0c3 1 7 2 10 2 13 0 25-8 29-20l0 0 12-32 0 21c0 17 14 31 31 31 17 0 31-14 31-31l0-187 5 8c3 5 7 10 12 12l0 0 51 31 0 0c4 2 8 3 11 3 1 0 2 0 3 0 0 0 0 0 0 0 0 0 0 0 0 0 2 0 4 0 6 0 0-1 1-1 1-1 2 0 4-1 6-2 0 0 0 0 0 0l0 0 72-30c0-1 0-1 0-1 3-1 6-3 9-6 0 0 0 0 0 0 0 0 1-1 1-1 0 0 0-1 0-1 0 0 0 0 0 0 1-1 1-1 1-2 1-1 2-3 3-5 1-1 2-3 3-5l0 187c0 17 14 31 31 31 8 0 15-3 20-8 6 5 13 8 21 8 17 0 31-14 31-31l0-94c3 1 6 2 10 2 17 0 31-14 31-31l0-112c0-34-28-62-62-62l-65 0c-13 0-23 4-30 9-6 5-10 12-11 15-8 15-26 51-29 55l-47 20-30-19-32-55 0 1c0 0-12-26-42-26z m0 21l62 0c19 0 24 13 24 13l0 0 34 61 39 24c0 0 0 0 0 0l9 5 0 0c6 3 8 9 5 14-1 3-4 4-6 5 0 0 0 0-1 0 0 1-1 1-2 1 0 0 0 0 0 0-2 0-3-1-5-1l-50-31 0 0c-2-1-4-2-5-4l-23-41 0 0c-2-3-6-5-10-5-5 0-10 4-10 10l0 225c0 6-4 11-10 11-6 0-10-5-10-11l0-123c0-3-2-7-5-9-3-1-7-1-11 0-3 2-5 6-5 9l0 41c0 2 0 3 0 4l-31 82c-2 4-5 7-10 7-1 0-2-1-3-1l0 0c-6-2-8-8-6-13l30-80 0-142c0-3-1-5-3-7-2-2-5-3-7-3-6 0-11 4-11 10l0 102c0 6-4 11-10 11-6 0-10-5-10-11l0-112c0-23 18-41 41-41z m283 0l65 0c0 0 0 0 0 0 23 0 41 18 41 41l0 112c0 6-4 11-10 11-6 0-10-5-10-11l0-102c0-3-1-5-3-7-2-2-5-3-8-3-5 0-10 4-10 10l0 225c0 6-4 11-10 11-6 0-10-5-10-11l0-123c0-3-2-7-5-9-4-1-8-1-11 0-3 2-5 6-5 9l0 123c0 6-4 11-10 11-6 0-10-5-10-11l0-224c0-4-1-7-4-9 0 0 0 0-1 0 0-1 0-1 0-1 0 0 0 0 0 0 0 0-1 0-1 0 0 0 0 0 0 0-1 0-1-1-1-1 0 0 0 0 0 0-1 0-1 0-1 0 0 0 0 0 0 0 0 0-1 0-1 0 0 0 0 0 0 0 0 0 0 0 0 0-1 0-1 0-2 0-4 0-7 2-9 6 0 1-6 10-12 21-4 6-7 11-9 16-2 2-3 3-3 5 0 0-1 0-1 0 0 1-1 1-2 2l-46 20c0-8-3-14-8-20l39-15c2-1 4-3 5-5 0 0 22-43 30-58l0 0c2-4 3-7 6-9 3-2 7-4 17-4z"/>
    </symbol>
  
    <symbol id="icon-documents" viewBox="0 0 512 512">
      <path d="m379 20c-1 0-1 0-2 0l-172 0 0 59 20 21 0-59 144 0 0 102 102 0 0 246-143 0 0 21 164 0 0-275c0-1 0-2 0-3l0-3-2-2c-1-1-2-1-2-2 0 0 0 0 0 0l-101-101c-1 0-1-1-2-2l-2-2-3 0c0 0-1 0-1 0z m10 35l68 68-68 0z m-195 47c0 0-1 0-1 0l-173 0 0 390 287 0 0-275c0-1 0-2 0-4l0-2-2-2c0-1-1-2-2-2l-100-101c-1 0-2-1-2-2l-2-2-3 0c0 0-1 0-2 0z m-153 21l143 0 0 102 103 0 0 246-246 0z m164 14l67 68-67 0z m105 47l20 21 100 0 0-21z m18 62l0 20 61 0 0-20z m-246 20l0 21 164 0 0-21z m246 41l0 21 102 0 0-21z m-246 21l0 20 123 0 0-20z m0 61l0 21 164 0 0-21z"/>
    </symbol>
  
    <symbol id="icon-cottage" viewBox="0 0 512 512">
      <path d="m31 41l0 225 30 0 0 205 390 0 0-205 30 0 0-225z m20 20l410 0 0 185-19 0c-1 0-2 0-3 0l-106 0-77-122-77 122-106 0c0 0-1 0-1 0-1 0-1 0-2 0l-19 0z m205 101l66 104 108 0 0 185-123 0 0-93c0-28-23-51-51-51-28 0-51 23-51 51l0 93-123 0 0-185 108 0z m-154 145l0 92 82 0 0-92z m226 0l0 92 82 0 0-92z m-205 21l41 0 0 51-41 0z m133 0c17 0 31 13 31 30l0 93-62 0 0-93c0-17 14-30 31-30z m92 0l41 0 0 51-41 0z"/>
    </symbol>
  
    <symbol id="icon-content-filled" viewBox="0 0 512 512">
      <path d="m0 0l0 97 57-48 34 41 25-13 48 44 0-121z m118 31c8 0 15 7 15 15 0 9-7 15-15 15-9 0-16-6-16-15 0-8 7-15 16-15z m94 10c-5 1-9 6-9 12 1 5 6 9 12 8l287 0c3 0 7-1 9-5 2-3 2-7 0-10-2-3-6-5-9-5l-287 0c0 0-1 0-1 0 0 0-1 0-1 0 0 0-1 0-1 0z m-157 37l-55 46 0 40 164 0 0-15-51-47-27 13z m157 24c-5 1-9 6-9 12 1 6 6 10 12 9l287 0c3 0 7-2 9-5 2-3 2-7 0-11-2-3-6-5-9-5l-287 0c0 0-1 0-1 0 0 0-1 0-1 0 0 0-1 0-1 0z m-212 72l0 164 164 0 0-164z m96 31c4 0 8 1 11 3 12 7 13 20 12 29 7 5 17 15 13 28-3 13-15 18-23 20-3 8-10 21-23 22l-1 0c-4 0-8-1-12-3-5-4-10-9-13-13-7 0-13-1-18-4-5-3-8-7-10-12-4-11 1-22 7-29-3-9-3-22 6-31 4-4 10-7 16-7 6 0 11 2 15 4 5-3 12-7 20-7z m116 10c-5 1-9 6-9 12 1 5 6 9 12 9l287 0c3 0 7-2 9-6 2-3 2-7 0-10-2-3-6-5-9-5l-287 0c0 0-1 0-1 0 0 0-1 0-1 0 0 0-1 0-1 0z m-115 11c-5-1-10 4-13 6l-6 5-6-4c0 0-1-1-2-1-5-3-10-3-11-2-3 3 0 11 1 13l4 7-6 6c-3 2-8 9-7 12 0 0 0 0 1 1 2 1 4 1 8 1 2 0 4 0 4 0l8-1 3 7c1 2 5 8 9 10 0 0 0 0 1 0 1 0 5-6 6-12l1-7 8-1c5-1 12-3 13-6 0-1-3-6-9-9l-7-4 1-8c1-5 1-12-1-13z m-8 10c0 0 1 0 2 0 5 4-8 16-8 16 0 0 18-2 17 5-1 7-17-3-17-3 0 0 7 17 0 18-7 1-3-17-3-17 0 0-14 12-16 6-2-6 15-8 15-8 0 0-16-10-11-14 6-4 13 12 13 12 0 0 3-14 8-15z m123 40c-5 1-9 7-9 12 1 6 6 10 12 9l287 0c3 0 7-2 9-5 2-3 2-7 0-10-2-4-6-6-9-6l-287 0c0 0-1 0-1 0 0 0-1 0-1 0 0 0-1 0-1 0z m-212 72l0 164 164 0 0-164z m82 34c0 0 7 17 12 20 6 3 22-6 22-6 0 0-8 16-5 23 1 4 19 11 19 11 0 0-18 7-20 11-2 6 6 23 6 23 0 0-17-8-23-6-5 3-11 20-11 20 0 0-7-17-13-20-5-3-21 6-21 6 0 0 7-16 5-23-1-5-19-11-19-11 0 0 18-7 20-11 2-6-6-23-6-23 0 0 17 8 23 6 5-2 11-20 11-20z m130 7c-5 1-9 6-9 12 1 5 6 9 12 9l287 0c3 0 7-2 9-5 2-4 2-8 0-11-2-3-6-5-9-5l-287 0c0 0-1 0-1 0 0 0-1 0-1 0 0 0-1 0-1 0z m-130 26c-8 0-15 7-15 15 0 8 7 15 15 15 8 0 15-7 15-15 0-8-7-15-15-15z m130 36c-5 0-9 6-9 11 1 6 6 10 12 9l287 0c3 0 7-2 9-5 2-3 2-7 0-10-2-4-6-5-9-5l-287 0c0 0-1 0-1 0 0 0-1 0-1 0 0 0-1 0-1 0z"/>
    </symbol>
  
    <symbol id="icon-list" viewBox="0 0 512 512">
      <path d="m29 72c-5 1-9 5-9 10l0 41c0 6 5 10 11 10l41 0c5 0 10-4 10-10l0-41c0-6-5-10-10-10l-41 0c-1 0-1 0-1 0-1 0-1 0-1 0z m12 20l20 0 0 21-20 0z m69 0c-6 1-10 6-9 12 1 5 6 9 12 9l368 0c4 0 7-2 9-5 2-4 2-8 0-11-2-3-5-5-9-5l-368 0c-1 0-1 0-1 0-1 0-1 0-1 0-1 0-1 0-1 0z m-81 82c-5 1-9 5-9 10l0 41c0 6 5 11 11 11l41 0c5 0 10-5 10-11l0-41c0-5-5-10-10-10l-41 0c-1 0-1 0-1 0-1 0-1 0-1 0z m12 21l20 0 0 20-20 0z m69 0c-6 0-10 6-9 11 1 6 6 10 12 9l368 0c4 0 7-2 9-5 2-3 2-7 0-10-2-4-5-5-9-5l-368 0c-1 0-1 0-1 0-1 0-1 0-1 0-1 0-1 0-1 0z m-81 81c-5 1-9 6-9 11l0 41c0 5 5 10 11 10l41 0c5 0 10-5 10-10l0-41c0-6-5-11-10-11l-41 0c-1 0-1 0-1 0-1 0-1 0-1 0z m12 21l20 0 0 20-20 0z m69 0c-6 1-10 6-9 12 1 5 6 9 12 8l368 0c4 0 7-1 9-5 2-3 2-7 0-10-2-3-5-5-9-5l-368 0c-1 0-1 0-1 0-1 0-1 0-1 0-1 0-1 0-1 0z m-81 82c-5 1-9 5-9 10l0 41c0 6 5 10 11 10l41 0c5 0 10-4 10-10l0-41c0-6-5-10-10-10l-41 0c-1 0-1 0-1 0-1 0-1 0-1 0z m12 20l20 0 0 21-20 0z m69 0c-6 1-10 6-9 12 1 6 6 10 12 9l368 0c4 0 7-2 9-5 2-3 2-7 0-11-2-3-5-5-9-5l-368 0c-1 0-1 0-1 0-1 0-1 0-1 0-1 0-1 0-1 0z"/>
    </symbol>
  
    <symbol id="icon-map-marker" viewBox="0 0 512 512">
      <path d="m287 0c-55 0-100 44-102 99l-52 23-118-60c-2 0-4-1-6-1-5 1-9 5-9 11l0 368c0 4 2 8 6 10l123 61c2 1 6 1 9 0l118-59 129 59c3 1 6 1 9 0l113-62c3-1 5-5 5-9l0-368c0-4-2-7-5-9-3-2-7-2-10 0l-109 59c0-6 1-13 1-20 0-56-46-102-102-102z m0 20c45 0 82 37 82 82 0 38-22 86-45 124-19 31-31 46-37 53-6-7-19-22-38-52-21-36-42-81-44-119 1-2 1-5 0-8 1-44 37-80 82-80z m0 41c-28 0-51 23-51 52 0 28 23 51 51 51 28 0 51-23 51-51 0-29-23-52-51-52z m0 21c17 0 30 14 30 31 0 17-13 30-30 30-17 0-31-13-31-30 0-17 14-31 31-31z m-267 6l109 54c2 2 6 2 8 0l48-21c5 41 27 82 47 116 23 39 47 67 47 67 2 2 5 3 8 3 3 0 6-1 8-4 0 0 23-28 46-67 17-27 34-60 42-93l5 0c2 1 4 0 6-1l98-53 0 345-103 56-129-59c-3-1-6-1-8 0l-119 59-113-56z"/>
    </symbol>
  
    <symbol id="icon-today" viewBox="0 0 512 512">
      <path d="m123 0c-11 0-21 9-21 20l0 21-61 0c-11 0-21 8-21 20l0 412c0 6 4 12 8 15 4 3 9 4 13 4l430 0c4 0 9-1 13-4 4-3 8-9 8-15l0-412c0-11-9-20-20-20l-62 0 0-21c0-11-10-20-21-20l-20 0c-12 0-21 9-21 20l0 21-184 0 0-21c0-11-9-20-21-20z m0 20l20 0 0 62-20 0z m246 0l20 0 0 62-20 0z m-328 41l61 0 0 21c0 11 10 20 21 20l20 0c12 0 21-9 21-20l0-21 184 0 0 21c0 11 9 20 21 20l20 0c11 0 21-9 21-20l0-21 61 0 0 72-430 0z m0 93l430 0 0 317-430 0z m294 57l-6 9-83 129-55-49-7-7-14 15 7 7 73 65 97-149 5-9z"/>
    </symbol>
  
    <symbol id="icon-trophy" viewBox="0 0 512 512">
      <path d="m133 20c-17 0-31 14-31 31 0 2 1 3 1 4-6-2-14-4-21-4-34 0-62 28-62 62 0 40 34 77 65 108 15 16 31 30 42 42 5 6 10 11 13 16 3 4 3 7 3 8 0 6-4 10-10 10-4 0-7 2-9 5-2 3-2 7 0 10 2 4 5 5 9 5 11 0 21-6 26-14 11 29 23 54 38 73 6 7 12 13 18 18l0 36-31 0c-28 0-51 23-51 51l0 11 236 0 0-21 10 10c0-28-23-51-51-51l-31 0 0-37c6-5 12-10 17-17 15-19 28-44 39-74 5 9 15 15 26 15 4 0 7-1 9-5 2-3 2-7 0-10-2-3-5-5-9-5-6 0-10-4-10-10 0-1 0-4 3-8 3-5 8-10 13-16 11-12 27-26 42-42 31-31 65-68 65-108 0-34-28-62-62-62-7 0-15 2-21 4 0-1 1-2 1-4 0-17-14-31-31-31z m0 21l246 0c6 0 10 4 10 10 0 6-4 10-10 10l-246 0c-6 0-10-4-10-10 0-6 4-10 10-10z m-51 31c23 0 41 18 41 40 0 1 0 1 0 1 0 0 0 1 0 1 3 47 10 94 20 137 0-1-1-1-1-2-12-13-27-27-43-42-30-31-58-66-58-94 0-23 18-41 41-41z m348 0c23 0 41 18 41 41 0 28-28 63-58 94-16 15-31 29-43 42-1 1-1 1-2 2 11-43 18-90 21-137 0 0 0-1 0-1 0-23 18-41 41-41z m-287 10l226 0c-1 72-13 148-33 207-11 31-24 57-38 74-14 18-28 26-42 26-15 0-29-9-43-26-14-18-27-44-37-74-21-59-32-136-33-207z m110 51c-1 6-8 25-36 25l0 20 30 0 0 78 29 0 0-123z m23 273l0 24-40 0 0-24c6 2 13 4 20 4 7 0 14-2 20-4z m-92 45l40 0c1 0 2 0 3 0l58 0c1 0 2 0 3 0l40 0c13 0 22 9 26 20l-196 0c4-11 13-20 26-20z"/>
    </symbol>
  
</svg>
