<svg xmlns="http://www.w3.org/2000/svg" style="display: none;">
  
    <symbol id="icon-business" viewBox="0 0 512 512">
      <path d="m256 20c25 0 48 8 65 21 14 10 23 25 26 41l134 0c17 0 31 14 31 31l0 172c0 0 0 0 0 0 0 0 0 1 0 1l0 175c0 17-14 31-31 31l-450 0c-17 0-31-14-31-31l0-174c0-1 0-1 0-1 0-1 0-1 0-1l0-172c0-17 14-31 31-31l134 0c3-16 12-31 26-41 17-13 40-21 65-21z m0 21c-21 0-40 6-52 16-10 7-16 15-18 25l140 0c-2-10-8-18-18-25-12-10-31-16-52-16z m-225 61c-6 0-11 5-11 11l0 172c1 0 1 0 1 1 0 0 0 0-1 1 0 6 5 10 11 10l174 0c0-17 14-31 31-31l40 0c17 0 31 14 31 31l174 0c6 0 11-4 11-10l0-1c0 0 0 0 0-1 0 0 0 0 0 0l0-172c0-6-5-11-11-11z m205 185c-6 0-11 4-11 10l0 8c0 1 0 1 0 2 0 1 0 2 0 2l0 8c0 6 5 11 11 11l40 0c6 0 11-5 11-11l0-8c0 0 0 0 0-1 0 0 0 0 0-1l0-1c0 0 0 0 0 0 0 0 0-1 0-1l0-8c0-6-5-10-11-10z m-216 29l0 145c0 6 5 10 11 10l450 0c6 0 11-4 11-10l0-145c-4 1-7 1-11 1l-174 0c0 17-14 31-31 31l-40 0c-17 0-31-14-31-31l-174 0c-4 0-7 0-11-1z"/>
    </symbol>
  
    <symbol id="icon-heart" viewBox="0 0 512 512">
      <path d="m168 92c35 0 67 17 88 42 21-25 53-42 88-42 64 0 117 52 117 116 0 130-149 199-199 240l-6 6-6-6c-50-41-199-110-199-240 0-64 53-116 117-116z m0 21c-53 0-96 42-96 95 0 111 125 174 184 220 59-46 184-109 184-220 0-53-43-95-96-95-33 0-62 17-79 42l-9 13-9-13c-17-25-46-42-79-42z"/>
    </symbol>
  
    <symbol id="icon-bed" viewBox="0 0 512 512">
      <path d="m287 0l66 0 0 20-41 41 46 0 0 21-71 0 0-21 41-41-41 0z m-123 102l82 0 0 21-57 61 67 0 0 21-92 0 0-21 56-61-56 0z m-133 72c17 0 30 14 30 31l0 164 123 0 0-93c0-5 4-9 10-10 0 0 0 0 0 0 0 0 0 0 1 0l266 0c28 0 51 23 51 51l0 62c0 0 0 0 0 1 0 0 0 0 0 0l0 132-61 0 0-51-390 0 0 51-61 0 0-307c0-17 14-31 31-31z m92 195c-28 0-51-23-51-52 0-28 23-51 51-51 28 0 51 23 51 51 0 29-23 52-51 52z m-92-174c-6 0-11 4-11 10l0 287 21 0 0-52 430 0 0 52 21 0 0-103-451 0 0-184c0-6-5-10-10-10z m92 92c-17 0-31 13-31 30 0 18 14 31 31 31 17 0 31-13 31-31 0-17-14-30-31-30z m82 0l0 82 287 0 0-52c0-17-14-30-31-30z"/>
    </symbol>
  
    <symbol id="icon-reminder" viewBox="0 0 512 512">
      <path d="m256 0c23 0 41 18 41 41 0 5-1 10-3 15 58 15 95 65 95 128 0 81 20 117 39 138 9 10 18 16 26 22 4 3 8 6 11 10 3 3 6 9 6 15 0 14-9 26-21 34-12 7-28 13-47 17-25 5-56 7-90 9 3 7 4 14 4 22 0 33-27 61-61 61-34 0-61-28-61-61 0-8 1-15 4-22-34-2-65-4-90-9-19-4-35-10-47-17-12-8-21-20-21-34 0-6 3-12 6-15 3-4 7-7 11-10 8-6 17-12 26-22 19-21 39-57 39-138 0-63 37-113 95-128-2-5-3-10-3-15 0-23 19-41 41-41z m0 20c-11 0-20 10-20 21 0 11 9 20 20 20 11 0 20-9 20-20 0-11-9-21-20-21z m24 54c-7 5-15 8-24 8-9 0-17-3-24-8-55 10-89 52-89 110 0 84-21 127-43 151-11 13-23 20-30 26-4 2-6 5-8 6-1 1-1 1-1 2 0 6 3 11 12 16 9 6 22 11 40 15 36 7 87 10 143 10 56 0 107-3 143-10 18-4 31-9 40-15 9-5 12-10 12-16 0-1 0-1-1-2-2-1-4-4-8-6-7-6-19-13-30-26-22-24-43-67-43-151 0-58-34-101-89-110z m-59 355c-4 7-6 14-6 22 0 22 18 41 41 41 23 0 41-19 41-41 0-8-2-15-6-22-11 1-23 1-35 1-12 0-24 0-35-1z"/>
    </symbol>
  
    <symbol id="icon-path" viewBox="0 0 512 512">
      <path d="m451 20c22 0 41 19 41 41 0 23-19 41-41 41-18 0-36-13-40-30l-247 0c-28 0-51 18-59 43 16 5 28 22 28 39 0 17-13 34-30 39 4 30 30 53 61 53l184 0c38 0 71 26 80 62 18 3 33 21 33 40 0 18-14 36-31 40-5 41-40 73-82 73l-247 0c-4 17-22 30-40 31-22 0-41-19-41-41 0-23 19-41 41-41 18 0 36 13 40 30l247 0c31 0 57-23 61-52-17-5-30-23-30-40 0-16 12-33 28-39-8-25-31-43-59-43l-184 0c-42 0-77-32-82-73-17-4-31-22-31-39 0-19 15-37 33-41 9-35 42-62 80-62l247 0c4-17 22-30 40-31z"/>
    </symbol>
  
    <symbol id="icon-checklist-complete" viewBox="0 0 512 512">
      <path d="m8 41c0 0 1 0 1 0 0 0 0 0 0 0 0 0 1 0 1 0 0 0 0 0 0 0l492 0c5 0 10 5 10 10l0 410c0 5-5 10-10 10l-492 0c-5 0-10-5-10-10l0-410c0 0 0 0 0 0 0-5 4-9 8-10z m12 20l0 390 472 0 0-390z m400 64c0 0 1 0 1 0 6 0 10 4 10 10 0 2-1 5-2 6l-28 41c-2 3-6 4-9 4-2 0-5 0-6-2l-27-20c-2-2-4-6-4-8 0-6 5-11 11-11 2 0 4 1 6 3l18 13 22-32c2-2 5-4 8-4z m-328 18l205 0 0 21-205 0z m328 84c0 0 1 0 1 0 6 0 10 5 10 10 0 2-1 5-2 7l-28 40c-2 3-6 5-9 5-2 0-5-1-6-2l-27-21c-2-1-4-5-4-8 0-6 5-10 11-10 2 0 4 1 6 2l18 14 22-32c2-2 5-5 8-5z m-328 19l205 0 0 20-205 0z m328 84c0 0 1 0 1 0 6 0 10 4 10 10 0 2-1 4-2 6l-28 41c-2 2-6 4-9 4-2 0-5-1-6-2l-27-20c-2-2-4-6-4-9 0-5 5-10 11-10 2 0 4 1 6 2l18 14 22-32c2-2 5-4 8-4z m-328 18l205 0 0 21-205 0z"/>
    </symbol>
  
    <symbol id="icon-path-marker" viewBox="0 0 512 512">
      <path d="m61 31c23 0 41 18 41 41 0 22-18 41-41 41-22 0-41-19-41-41 0-23 19-41 41-41z m62 30c6 0 10 5 10 11 0 5-4 10-10 10-6 0-10-5-10-10 0-6 4-11 10-11z m41 0c5 0 10 5 10 11 0 5-5 10-10 10-6 0-10-5-10-10 0-6 4-11 10-11z m41 0c5 0 10 5 10 11 0 5-5 10-10 10-6 0-10-5-10-10 0-6 4-11 10-11z m41 0c5 0 10 5 10 11 0 5-5 10-10 10-6 0-10-5-10-10 0-6 4-11 10-11z m41 0c5 0 10 5 10 11 0 5-5 10-10 10-6 0-11-5-11-10 0-6 5-11 11-11z m41 0c5 0 10 5 10 11 0 5-5 10-10 10-6 0-11-5-11-10 0-6 5-11 11-11z m41 0c5 0 10 5 10 11 0 5-5 10-10 10-6 0-11-5-11-10 0-6 5-11 11-11z m41 0c5 0 10 5 10 11 0 5-5 10-10 10-6 0-11-5-11-10 0-6 5-11 11-11z m41 0c5 0 10 5 10 11 0 5-5 10-10 10-6 0-11-5-11-10 0-6 5-11 11-11z m0 41c5 0 10 5 10 11 0 5-5 10-10 10-6 0-11-5-11-10 0-6 5-11 11-11z m-205 41c34 0 61 28 61 62 0 30-47 109-52 118-2 3-6 5-9 5-4 0-7-2-9-5-5-9-53-88-53-118 0-34 28-62 62-62z m205 0c5 0 10 5 10 11 0 5-5 10-10 10-6 0-11-5-11-10 0-6 5-11 11-11z m0 31c22 0 41 18 41 41 0 23-19 41-41 41-23 0-41-18-41-41 0-23 18-41 41-41z m-205 10c-12 0-21 9-21 21 0 11 9 20 21 20 11 0 20-9 20-20 0-12-9-21-20-21z m205 82c5 0 10 5 10 10 0 6-5 11-10 11-6 0-11-5-11-11 0-5 5-10 11-10z m-410 41c6 0 10 5 10 10 0 6-4 11-10 11-6 0-10-5-10-11 0-5 4-10 10-10z m41 0c6 0 10 5 10 10 0 6-4 11-10 11-6 0-10-5-10-11 0-5 4-10 10-10z m41 0c6 0 10 5 10 10 0 6-4 11-10 11-6 0-10-5-10-11 0-5 4-10 10-10z m41 0c5 0 10 5 10 10 0 6-5 11-10 11-6 0-10-5-10-11 0-5 4-10 10-10z m41 0c5 0 10 5 10 10 0 6-5 11-10 11-6 0-10-5-10-11 0-5 4-10 10-10z m82 0c5 0 10 5 10 10 0 6-5 11-10 11-6 0-11-5-11-11 0-5 5-10 11-10z m41 0c5 0 10 5 10 10 0 6-5 11-10 11-6 0-11-5-11-11 0-5 5-10 11-10z m41 0c5 0 10 5 10 10 0 6-5 11-10 11-6 0-11-5-11-11 0-5 5-10 11-10z m41 0c5 0 10 5 10 10 0 6-5 11-10 11-6 0-11-5-11-11 0-5 5-10 11-10z m41 0c5 0 10 5 10 10 0 6-5 11-10 11-6 0-11-5-11-11 0-5 5-10 11-10z m-410 41c6 0 10 5 10 10 0 6-4 11-10 11-6 0-10-5-10-11 0-5 4-10 10-10z m0 41c6 0 10 5 10 10 0 6-4 11-10 11-6 0-10-5-10-11 0-5 4-10 10-10z m399 10c23 0 41 19 41 41 0 23-18 41-41 41-22 0-41-18-41-41 0-22 19-41 41-41z m-399 31c6 0 10 5 10 10 0 6-4 11-10 11-6 0-10-5-10-11 0-5 4-10 10-10z m41 0c6 0 10 5 10 10 0 6-4 11-10 11-6 0-10-5-10-11 0-5 4-10 10-10z m41 0c6 0 10 5 10 10 0 6-4 11-10 11-6 0-10-5-10-11 0-5 4-10 10-10z m41 0c5 0 10 5 10 10 0 6-5 11-10 11-6 0-10-5-10-11 0-5 4-10 10-10z m41 0c5 0 10 5 10 10 0 6-5 11-10 11-6 0-10-5-10-11 0-5 4-10 10-10z m41 0c5 0 10 5 10 10 0 6-5 11-10 11-6 0-10-5-10-11 0-5 4-10 10-10z m41 0c5 0 10 5 10 10 0 6-5 11-10 11-6 0-11-5-11-11 0-5 5-10 11-10z m41 0c5 0 10 5 10 10 0 6-5 11-10 11-6 0-11-5-11-11 0-5 5-10 11-10z m41 0c5 0 10 5 10 10 0 6-5 11-10 11-6 0-11-5-11-11 0-5 5-10 11-10z"/>
    </symbol>
  
    <symbol id="icon-handshake-heart" viewBox="0 0 512 512">
      <path d="m154 41c34 0 68 13 94 39l7 8 8-8c52-51 137-51 190 1 25 24 39 59 39 95 0 35-14 69-38 93 10 12 9 30-2 40l-15 15c-5 6-13 9-20 10-1 7-4 14-9 19l-15 15c-5 6-13 9-20 9-1 7-4 14-9 19l-19 19c-5 5-11 8-18 9 0 6-3 13-9 17l-30 31c-6 6-15 9-22 9-8 0-15-3-21-9l-15-14c-5-6-8-12-9-20-8 0-15-3-20-9l-15-14c-6-6-9-13-9-21-7 0-14-3-19-9l-15-14c-5-6-8-13-9-20-8 0-15-3-20-9l-15-14c-6-6-9-14-9-22 0-2 0-4 1-6l-32-32c-52-52-52-136 0-188 27-26 61-39 95-39z m0 20c-29 0-58 12-80 33-44 44-44 116 0 160l28 28 28-28c12-12 32-12 43 0l14 14c6 6 9 13 9 21 8 0 16 3 21 8l14 14c6 6 9 13 10 21 7 0 14 3 19 9l14 14c6 6 9 13 9 21 8 0 16 3 21 8l14 14c2 2 3 4 5 5 2 1 5 0 8-3l18-18c2-2 3-4 3-7 0-3-1-5-3-7l-61-62c-4-4-4-10 0-14 2-2 5-3 7-3 3 0 6 1 8 3l62 61c4 4 10 4 14 0l14-14c4-4 4-10 0-14l-62-62c-4-4-4-10 0-14 4-4 10-4 14 0l63 61c4 4 10 4 14 0l14-14c4-4 4-10 0-14l-120-122-61 61c-9 9-21 14-33 14-12 0-24-6-34-15-18-18-18-48 0-66l53-53-8-7c-22-21-51-33-79-33z m203 1c-28 0-58 12-79 33l-16 15 0-1-7 7-52 52c-5 5-8 12-8 19 0 8 3 15 8 20 10 10 27 10 38 0l68-69c4-4 10-4 15 0 0 0 0 1 0 1 0 0 0 0 1 0l115 115c20-21 31-49 31-78 0-31-11-58-33-80l-1-1c-22-21-51-33-80-33z m-204 202c-3 0-6 1-8 3l-30 31c-2 2-3 4-3 7 0 3 1 5 3 7l14 15c4 4 10 4 14 0l31-31c4-4 4-10 0-14l-14-15c-2-2-5-3-7-3z m43 44c-3 0-6 1-8 3l-30 31c-4 4-4 10 0 14l14 15c4 4 10 4 14 0l31-31c2-2 3-4 3-7 0-3-1-5-3-7l-14-15c-2-2-4-3-7-3z m43 43c-3 0-6 1-8 3l-30 31c-2 2-3 4-3 7 0 3 1 5 3 7l14 15c4 4 10 4 14 0l31-31c4-4 4-10 0-14l-14-15c-2-2-4-3-7-3z m44 44c-3 0-5 1-8 3l-30 31c-2 2-3 4-3 7 0 3 1 5 3 7l14 15c4 4 10 4 14 0l31-31c2-2 3-4 3-7 0-3-1-5-3-7l-14-15c-2-2-4-3-7-3z"/>
    </symbol>
  
    <symbol id="icon-pen" viewBox="0 0 512 512">
      <path d="m459 20c1 0 3 0 5 0 7 1 14 3 20 8 5 6 7 13 8 20 0 7-2 14-4 21-5 14-13 29-23 45 0 0 0 1-1 2 0 0 0 0 0 0 0 0 0 0 0 0-1 1-1 2-2 2-4 6-55 73-129 147-78 78-184 166-184 166-1 1-4 2-6 2-28 20-52 30-69 36-11 4-18 5-23 6l-13 14c-2 2-5 3-8 3-5 0-10-5-10-10 0-3 1-6 3-8l14-13c1-5 2-12 6-23 6-17 16-40 36-69 0 0 0 0 0 0 0-2 1-5 2-6 0 0 88-106 166-184 58-58 113-103 136-121l-1-1c-1-1-9-3-25-1-17 3-40 11-66 37-27 27-41 49-52 67-10 18-15 31-25 42-18 20-45 10-45 10-3-2-6-6-6-10 0-5 5-10 10-10 1 0 3 1 4 1 0 0 12 5 22-5 6-6 12-20 22-39 11-18 28-43 55-71 29-28 57-39 78-42 11-2 20-2 26-1 7 1 10 2 10 2 2 0 4 1 5 2l5 6c15-8 29-16 43-21 5-2 10-3 16-4z m4 21c-3 0-8 1-14 3-8 2-19 8-30 15l34 34c7-11 13-22 15-30 2-6 3-11 3-14 0-3-1-4-2-6-2-1-3-2-6-2z m-62 29c-10 8-69 53-140 124-70 70-147 161-159 176l40 40c15-12 106-89 176-159 71-70 116-130 124-140z m-310 313c-17 25-27 46-32 61-3 8-2 8-3 12 4-1 4 0 12-3 15-5 36-15 61-32z"/>
    </symbol>
  
    <symbol id="icon-search" viewBox="0 0 512 512">
      <path d="m215 31c96 0 174 78 174 174 0 43-16 83-42 113l133 134-28 28-135-134c-29 21-64 33-102 33-96 0-174-78-174-174 0-96 78-174 174-174z m0 20c-85 0-154 69-154 154 0 85 69 153 154 153 85 0 154-68 154-153 0-85-69-154-154-154z"/>
    </symbol>
  
    <symbol id="icon-company" viewBox="0 0 512 512">
      <path d="m72 20l245 0 0 52 52 0 0 133-21 0 0-113-235 0 0-20 184 0 0-31-205 0 0 51-51 0 0 359 102 0 0 20-123 0 0-399 52 0z m10 103l41 0 0 20-41 0z m92 0l41 0 0 20-41 0z m92 0l41 0 0 20-41 0z m-184 51l41 0 0 21-41 0z m92 0l41 0 0 21-41 0z m92 0l41 0 0 21-41 0z m31 31l6 0 8 14c9 2 18 5 24 11 2 1 4 4 6 6 3-2 6-3 9-5 9-3 20-6 30-6l7 0 6 14c9 1 17 4 22 9 8 6 12 14 14 23 4 14 3 29-2 41 3 5 5 12 4 20-1 12-7 19-12 23-1 10-3 20-9 29l0 17c1 4 4 7 11 10 7 4 16 8 26 12 10 5 21 10 29 20 9 9 15 22 15 38l1 11-328 0 0-11c0-17 5-31 13-41 9-10 19-16 29-21 10-5 20-9 27-13 7-3 11-7 13-11l0-22c-8-8-14-18-17-31-5-4-13-10-13-24l0 0c-1-5 1-9 2-12 1-2 2-3 3-5-7-21-7-44 5-62 13-21 38-34 71-34z m-215 20l41 0 0 21-41 0z m92 0l39 0-13 21-26 0z m117 1c-24 2-40 11-48 24-9 13-10 32-2 49l3 7-5 5c0-1-1 1-2 3-1 2-1 4-1 4 0 7 4 8 7 9l5 3 0 5c1 11 9 23 14 26l4 3 0 35 0 2c-4 11-13 18-23 23-9 5-19 9-28 13-9 5-16 10-22 16-4 5-6 11-7 18l202 0c-2-7-4-13-8-18-5-6-13-11-22-16-9-4-19-8-28-13-9-5-18-12-22-23l-1-2 0-34 3-3c6-6 10-16 10-26l0-4 3-3c5-4 7-5 8-11 1-5 0-8-3-12l-4-5 4-6c3-5 6-22 2-35-2-6-5-12-9-15-4-4-9-6-17-6l-7 0z m83 21c-5 1-11 1-16 3-3 2-6 3-8 5 0 0 0 0 0 0 4 16 3 32-3 44 3 6 6 13 5 22-2 11-9 17-12 20-2 11-5 22-12 31l0 23c1 4 5 8 12 11 7 4 17 8 27 13 10 5 21 11 29 21 7 8 11 19 13 31l60 0c-2-6-4-11-8-15-6-6-13-10-22-14-9-4-19-8-28-13-9-4-17-11-21-22l-1-1 0-28 3-3c2-3 7-16 7-25l1-5 4-3c4-3 6-2 7-12 1-5-3-10-2-9l-5-6 3-6c3-7 6-22 3-33-2-6-4-10-8-13-3-3-8-5-16-5l-6 0z m-292 29l41 0 0 21-41 0z m92 0l25 0 3 21-28 0z m-92 52l41 0 0 20-41 0z m92 0l27 0 8 20-35 0z m-92 51l41 0 0 20-41 0z m92 0l41 0 0 20-41 0z"/>
    </symbol>
  
    <symbol id="icon-map" viewBox="0 0 512 512">
      <path d="m31 41c1 0 3 1 5 1l107 59 108-59c1 0 4-1 5-1 1 0 3 0 5 1l117 59 98-59c1 0 4-1 5-1 6 0 11 5 11 10l0 348c0 4-3 7-5 9l-103 62c-1 0-4 1-5 1-1 0-4 0-5-1l-118-59-108 59c-1 0-3 1-5 1-1 0-3-1-5-1l-112-62c-3-1-6-5-6-9l0-348c0-5 5-10 11-10z m225 22l-108 59c-1 0-3 1-5 1-1 0-3-1-5-1l-97-54 0 325 102 56 108-59c1 0 4-1 5-1 1 0 3 1 5 1l117 59 93-55 0-325-87 52c-1 1-4 2-5 2-1 0-4-1-5-1z m-82 91l0 10-10 10 20 21-10 10-31 31 0 20 41 10 21 21-10 20-11 10-10 52-20-11-11-51-20-20 10-21-31-30-10-41-20 0 0-11 20-20 21 0z m21 0l30 0 0 20-30 21-11-21z m153 10l92 10-30 21 10 30-21 21-10 20-20-20-11 20-10-20-31 20-20-20-21 0 21 10 20 31 0 20-30 62-21-21-10-51-31-21 11-30 40-31 0-10-30 20 0-30 30-21z m72 133l10 31-10 30-21-20-20 0 0-21z"/>
    </symbol>
  
    <symbol id="icon-paper-pen" viewBox="0 0 512 512">
      <path d="m61 20l390 0 0 159c15-8 35-6 49 7 16 17 16 43 0 60l-2 2c-1 1-1 2-2 3l-45 45 0 196-390 0z m21 21l0 430 348 0 0-155-96 96c-1 1-3 2-4 3l-62 16-3 0c-3 0-5-1-7-3-3-3-3-6-2-10l17-62c0-2 1-3 3-4l5-4-76 0 0-20 96 0 41-41-137 0 0-21 157 0 68-67 0-158z m51 102l41 0 0 21-41 0z m72 0l174 0 0 21-174 0z m-72 62l41 0 0 20-41 0z m72 0l174 0 0 20-174 0z m244 4l-157 156-1 1 30 29 1 0 157-156z m-316 57l41 0 0 21-41 0z m0 62l41 0 0 20-41 0z"/>
    </symbol>
  
    <symbol id="icon-chat" viewBox="0 0 512 512">
      <path d="m195 0c86 0 160 51 185 122 76 23 131 88 131 164 0 46-21 88-54 119 5 15 15 26 27 36 6 5 12 9 17 14 2 2 4 4 6 7 2 3 4 8 2 13l-1 4-3 2c-22 12-51 6-80-2-27-7-53-18-67-24-13 2-26 4-41 4-82 0-152-45-180-111-14 6-31 13-51 18-15 4-29 7-43 8-13 1-26 0-37-6l-3-2-2-4c-1-5 1-10 3-13 2-3 4-5 7-7 5-4 11-9 17-14 11-9 21-20 26-35-33-31-54-73-54-120 0-96 88-173 195-173z m0 20c-97 0-175 69-175 153 0 43 21 82 53 110l5 4-2 6c-5 24-22 40-35 51-5 4-7 6-11 8 4 1 7 2 12 2 11-1 25-4 38-7 21-6 41-14 55-20 2-1 4-2 6-3 1 0 1 1 1 0 2 0 4-1 6-2l3-1 3 1c12 3 26 4 40 4 96 0 174-69 174-153 0-84-77-153-173-153z m191 125c1 9 2 19 2 28 0 23-5 45-14 64 3 2 5 5 5 9 0 5-5 10-10 10-2 0-3-1-4-1-5 8-11 16-17 23-1 4-4 7-7 8-7 7-15 14-24 21 0 0 0 0 0 0 0 6-4 10-10 10-1 0-3 0-4-1-8 5-16 9-24 12 4 2 8 5 8 10 0 6-5 10-11 10-5 0-10-4-10-10 0-2 1-3 2-5-14 5-29 9-45 11-2 2-5 4-8 4-3 0-5-1-7-2-5 0-10 0-14 0-11 0-22-1-32-3-1 2-2 3-4 4 5 10 11 19 18 28-1-2-2-4-2-6 0-6 5-11 10-11 6 0 11 5 11 11 0 5-5 10-11 10-2 0-5-1-6-3 8 10 17 19 27 27 0-1 0-2 0-4 0-5 4-10 10-10 6 0 10 5 10 10 0 6-4 10-9 11 7 4 15 8 23 12 2-1 4-2 7-2 5 0 9 4 10 8 14 5 28 8 44 9-2-1-3-4-3-7 0-6 5-10 10-10 6 0 10 4 10 10 0 4-1 7-4 8 1 0 3 0 4 0 14 0 28-2 41-4l1 0c0-1-1-3-1-4 0-6 5-10 11-10 5 0 10 4 10 10 0 4-3 7-6 9 14 6 36 15 58 21 7 1 14 3 20 4 0-1 0-2 0-3 0-6 4-10 10-10 1 0 2 0 4 1-12-11-25-26-30-46l-2-6 5-4c25-22 42-49 49-80-3-2-6-5-6-9 0-5 4-9 9-10 0-4 1-7 1-11 0-11-2-21-4-32-3-1-6-4-6-8 0-2 1-4 2-5-3-9-7-17-12-25 0 5-5 9-10 9-6 0-10-4-10-10 0-6 4-10 10-10 1 0 2 0 4 1-14-20-33-37-56-50-1 4-5 8-10 8-5 0-10-5-10-10 0-3 1-5 2-6-2-1-3-2-5-3z m44 29c6 0 10 5 10 10 0 6-4 11-10 11-6 0-10-5-10-11 0-5 4-10 10-10z m-31 31c6 0 11 4 11 10 0 6-5 10-11 10-5 0-10-4-10-10 0-6 5-10 10-10z m31 31c6 0 10 4 10 10 0 5-4 10-10 10-6 0-10-5-10-10 0-6 4-10 10-10z m-31 30c6 0 11 5 11 10 0 6-5 11-11 11-5 0-10-5-10-11 0-5 5-10 10-10z m62 0c5 0 10 5 10 10 0 6-5 11-10 11-6 0-10-5-10-11 0-5 4-10 10-10z m-92 31c5 0 10 5 10 10 0 6-5 10-10 10-6 0-11-4-11-10 0-5 5-10 11-10z m61 0c6 0 10 5 10 10 0 6-4 10-10 10-6 0-10-4-10-10 0-5 4-10 10-10z m-92 31c6 0 10 4 10 10 0 6-4 10-10 10-6 0-10-4-10-10 0-6 4-10 10-10z m61 0c6 0 11 4 11 10 0 6-5 10-11 10-5 0-10-4-10-10 0-6 5-10 10-10z m62 0c5 0 10 4 10 10 0 6-5 10-10 10-6 0-10-4-10-10 0-6 4-10 10-10z m-215 30c5 0 10 5 10 11 0 5-5 10-10 10-6 0-10-5-10-10 0-6 4-11 10-11z m61 0c6 0 10 5 10 11 0 5-4 10-10 10-5 0-10-5-10-10 0-6 5-11 10-11z m62 0c5 0 10 5 10 11 0 5-5 10-10 10-6 0-11-5-11-10 0-6 5-11 11-11z m61 0c6 0 10 5 10 11 0 5-4 10-10 10-6 0-10-5-10-10 0-6 4-11 10-11z m-154 31c6 0 11 5 11 10 0 6-5 11-11 11-5 0-10-5-10-11 0-5 5-10 10-10z m62 0c6 0 10 5 10 10 0 6-4 11-10 11-6 0-10-5-10-11 0-5 4-10 10-10z m61 0c6 0 11 5 11 10 0 6-5 11-11 11-5 0-10-5-10-11 0-5 5-10 10-10z m31 31c6 0 10 4 10 10 0 6-4 10-10 10-6 0-10-4-10-10 0-6 4-10 10-10z m39 35c1 2 2 4 2 6 0 1-1 3-1 4 4 0 8 0 11 0-3-3-6-5-11-9 0 0 0-1-1-1z"/>
    </symbol>
  
    <symbol id="icon-coffee" viewBox="0 0 512 512">
      <path d="m266 20l0 0c6 0 10 5 10 11l0 0c0 37-18 56-34 69-15 14-27 23-27 54l0 0c0 5-4 10-10 10-6 0-10-5-10-10l0 0c0-37 18-55 34-69 15-14 27-23 27-54l0 0c0-6 5-11 10-11z m51 52l1 0c5 0 10 4 10 10l0 0c0 26-14 40-24 49-11 9-17 14-17 33l0 0c0 6-5 10-11 10-5 0-10-4-10-10l0 0c0-26 14-39 24-48 10-9 17-14 17-34l0 0c0-6 5-10 10-10z m-204 123l266 0c6 0 10 4 10 10l0 20 31 0c17 0 31 14 31 31 0 0 0 1-1 2 0 0 0 0 0 0 0 23-2 45-13 62-9 15-26 25-48 28-3 29-19 55-41 72l72 0c5 0 10 4 10 10 0 18-10 34-24 44-14 11-31 18-48 18l-225 0c-17 0-34-7-48-18-13-10-24-26-24-44 0-6 5-10 11-10l72 0c-25-19-42-49-42-82l0-133c0-6 5-10 11-10z m10 20l0 123c0 45 36 82 82 82l82 0c45 0 81-36 82-81 0 0-1-1-1-1 0-1 1-1 1-2l0-121z m266 31l0 81c16-2 25-8 31-18 7-12 10-30 10-53 0-6-4-10-10-10z m-304 194c2 7 7 13 13 18 10 8 24 13 35 13l225 0c12 0 25-5 35-13 7-5 11-11 14-18z"/>
    </symbol>
  
    <symbol id="icon-coins" viewBox="0 0 512 512">
      <path d="m183 72c13 0 25 1 37 4 11-3 23-4 35-4 12 0 24 1 36 4 12-3 24-4 36-4 101 0 184 82 184 184 0 102-83 184-184 184-13 0-25-2-35-4-12 3-24 4-37 4-12 0-24-2-35-4-12 3-24 4-37 4-101 0-184-82-184-184 0-102 83-184 184-184z m0 20c-90 0-163 73-163 164 0 91 73 164 163 164 11 0 22-1 32-3 1-1 3-1 5-1 73-17 127-82 127-160 0-78-54-143-127-160 0 0-1 0-1 0-2 0-4 0-5-1-10-2-20-3-31-3z m86 1c59 31 99 92 99 163 0 71-40 132-99 163 6-1 12-1 17-2 2-1 4-1 5-1 73-17 128-82 128-160 0-78-54-143-127-160-1 0-1 0-1 0-2 0-4 0-6-1-5-1-10-1-16-2z m72 0c58 31 98 92 98 163 0 71-40 132-98 163 84-7 150-77 150-163 0-86-66-156-150-163z m-162 76l16 0 0 174-21 0 0-125-45 0 0-16c6 0 11 0 18-1 5-1 10-3 15-5 4-3 8-7 11-11 3-4 5-9 6-16z"/>
    </symbol>
  
    <symbol id="icon-updated" viewBox="0 0 512 512">
      <path d="m250 41c21 0 43 4 64 11 54 18 98 56 124 108 6 11 10 22 14 34l20-50c2-5 8-7 13-5 5 2 8 8 6 13l-32 77c-2 4-5 7-9 7-2 0-3-1-4-1l-81-34c-5-2-8-8-6-13 2-5 8-8 14-5l61 25c-3-13-8-27-14-39-24-47-63-81-113-98-20-6-41-10-61-10-82 0-158 52-185 134-16 49-12 102 11 148 23 47 63 81 112 98 38 12 77 12 113 3l0 21c-17 4-34 6-51 6-23 0-46-4-68-11-54-18-99-56-124-108-26-51-30-109-12-164 30-91 116-149 208-147z m107 276l116 0c21 0 39 18 39 40l0 116c0 21-18 39-39 39l-116 0c-22 0-40-18-40-39l0-116c0-22 18-40 40-40z m0 21c-11 0-19 8-19 19l0 116c0 10 8 19 19 19l116 0c10 0 19-9 19-19l0-116c0-11-9-19-19-19z m106 31l15 13-68 79-49-37 13-16 34 25z"/>
    </symbol>
  
    <symbol id="icon-student" viewBox="0 0 512 512">
      <path d="m256 20c5 0 10 1 15 4 0 0 0 0 0 0 0 0 54 33 108 67 27 16 54 33 74 47 10 6 19 12 25 16 3 2 6 4 8 6 0 1 1 1 2 2 1 1 1 1 2 2 0 1 2 2 2 6 0 6-2 7-3 8-1 2-2 3-3 5-2 3-6 7-10 11-7 8-18 19-28 29-19 19-35 35-38 37 10 6 20 19 20 39 0 21-13 41-33 47-13 33-30 68-52 95-23 29-52 50-88 50 0 0 0 1-1 1l0 0c0 0 0 0 0 0 0 0 0 0 0 0l0 0c0 0 0 0 0 0-1 0-1-1-2-1-35 0-64-21-87-50-22-27-39-62-52-95-20-6-33-26-33-47 0-20 10-33 20-39-3-2-19-18-38-37-1-1-1-1-2-2 0 39 0 86 0 100 5 3 10 11 10 17 0 2-1 5-2 7 7 5 12 14 12 23 0 13-6 23-12 32-5 9-11 16-11 16-1 2-5 4-8 4-3 0-6-2-8-4 0 0-5-7-11-16-5-9-12-20-12-32 0-9 5-18 12-23-1-2-1-5-1-7 0-7 4-14 10-18 0-16 0-87 0-121-2-2-4-4-5-5-4-4-8-8-10-11-1-2-2-3-3-5-1-1-3-2-3-8 0-4 2-5 2-6 1-1 1-1 2-2 1-1 2-1 3-2 1-2 4-4 7-6 6-4 15-10 25-16 20-14 47-31 74-47 54-34 108-67 108-67 0 0 0 0 0 0 5-3 10-4 15-4z m0 21c-1 0-3 1-4 1 0 1-54 33-108 67-27 16-54 33-74 46-10 7-18 12-24 17 0 0-1 0-1 0 2 3 4 5 6 7 2 2 4 5 6 7 1 0 2 2 3 3 6 6 12 12 19 19 17 17 28 27 33 33l0-46c0-4 3-8 5-9 0 0 54-33 139-33 85 0 139 33 139 33 2 1 5 5 5 9l0 46c5-6 16-16 33-33 10-10 20-20 28-29 2-2 4-4 6-7 0 0-1 0-1 0-6-4-14-10-24-17-20-13-47-30-74-46-54-34-108-66-108-67-1 0-3-1-4-1z m0 133c-74 0-116 24-123 27l0 41c17-5 56-17 123-17 67 0 106 12 123 17l0-41c-7-3-49-27-123-27z m0 72c-65 0-109 13-123 18l0 14-11-2c0 0-5 0-10 2-5 3-10 6-10 21 0 15 10 27 22 29l6 0 2 6c13 34 30 69 51 95 21 26 45 42 73 42l0 0c28 0 52-16 73-42 21-26 38-61 51-95l2-6 6 0c12-2 22-14 22-29 0-15-5-18-10-21-5-2-10-2-10-2l-11 2 0-14c-14-5-58-18-123-18z m-205 112c-6 0-10 5-10 10 0 3 4 13 9 21 0 1 1 1 1 2 1-1 1-1 2-2 4-8 8-18 8-21 0-5-4-10-10-10z"/>
    </symbol>
  
    <symbol id="icon-facebook" viewBox="0 0 512 512">
      <path d="m410 0c56 0 102 46 102 102l0 308c0 56-46 102-102 102l-308 0c-56 0-102-46-102-102l0-308c0-56 46-102 102-102z m-11 174l0-51c0 0-31-10-61-10-56 0-72 34-72 82l0 30-30 0 0 62 30 0 0 205 72 0 0-205 51 0 10-62-61 0 0-30c0-16 9-21 31-21z"/>
    </symbol>
  
    <symbol id="icon-cloud" viewBox="0 0 512 512">
      <path d="m297 87c74 0 135 61 135 135 0 3-1 5-1 7 45 6 81 43 81 89 0 51-41 92-91 92l-322 0c-55 0-99-45-99-99 0-43 28-79 66-92 2-38 32-68 71-68 15 0 28 6 40 13 21-45 67-77 120-77z m0 21c-49 0-91 31-107 75l-6 15-11-12c-9-9-22-15-36-15-29 0-52 23-52 51 0 0 0 1 0 3l1 8-8 2c-33 9-58 40-58 76 0 43 35 78 79 78l322 0c39 0 71-31 71-71 0-39-32-70-71-70l-12 0 1-12c1-5 1-9 1-14 0-63-51-114-114-114z"/>
    </symbol>
  
    <symbol id="icon-sales-channels" viewBox="0 0 512 512">
      <path d="m256 31c17 0 31 14 31 30 0 14-9 25-21 29l0 64-20 0 0-64c-12-4-21-15-21-29 0-16 14-30 31-30z m0 20c-6 0-10 5-10 10 0 6 4 11 10 11 6 0 10-5 10-11 0-5-4-10-10-10z m-174 72c17 0 31 14 31 31 0 2-1 5-2 8l33 18c0 1-1 3-1 4l0 19-43-25c-5 4-11 6-18 6-17 0-31-14-31-30 0-17 14-31 31-31z m348 0c17 0 31 14 31 31 0 16-14 30-31 30-7 0-13-2-18-6l-43 25 0-19c0-1-1-3-1-4l33-18c-1-3-2-6-2-8 0-17 14-31 31-31z m-348 20c-6 0-10 5-10 11 0 5 4 10 10 10 6 0 10-5 10-10 0-6-4-11-10-11z m348 0c-6 0-10 5-10 11 0 5 4 10 10 10 6 0 10-5 10-10 0-6-4-11-10-11z m-256 31l164 0c6 0 10 5 10 10l0 144c0 5-4 10-10 10l-164 0c-6 0-10-5-10-10l0-144c0-5 4-10 10-10z m10 21l0 122 144 0 0-122z m52 20l41 0c5 0 10 5 10 10 0 6-5 11-10 11l-42 0c-5 0-10-5-10-11 0-5 5-10 10-10z m-93 94l0 19c0 1 1 3 1 4l-33 18c1 3 2 6 2 8 0 17-14 31-31 31-17 0-31-14-31-31 0-16 14-30 31-30 7 0 13 2 18 6z m226 0l43 25c5-4 11-6 18-6 17 0 31 14 31 30 0 17-14 31-31 31-17 0-31-14-31-31 0-2 1-5 2-8l-33-18c0-1 1-3 1-4z m-287 39c-6 0-10 5-10 10 0 6 4 11 10 11 6 0 10-5 10-11 0-5-4-10-10-10z m348 0c-6 0-10 5-10 10 0 6 4 11 10 11 6 0 10-5 10-11 0-5-4-10-10-10z m-184 10l20 0 0 64c12 4 21 15 21 29 0 16-14 30-31 30-17 0-31-14-31-30 0-14 9-25 21-29z m10 82c-6 0-10 5-10 11 0 5 4 10 10 10 6 0 10-5 10-10 0-6-4-11-10-11z"/>
    </symbol>
  
    <symbol id="icon-flame" viewBox="0 0 512 512">
      <path d="m306 512c-5 0-9-2-10-6-2-5 0-10 4-13 28-20 58-65 58-121 0-41-14-101-79-170 4 85-32 158-34 161-2 4-7 7-12 6-4-1-8-5-8-10 0 0-3-34-25-62-6 18-12 32-17 45-11 25-19 44-19 77 0 26 21 55 40 71 4 2 6 5 6 9 0 6-5 11-11 11 0 0 0 0 0 0-1 0-2 0-3-1-80-27-125-83-125-157 0-63 29-114 60-168 27-48 58-103 74-176 1-4 3-7 7-8 3-1 7 0 10 3 145 133 219 224 219 347 0 81-58 151-134 162 0 0-1 0-1 0z"/>
    </symbol>
  
    <symbol id="icon-find-user" viewBox="0 0 512 512">
      <path d="m204 4c25 0 44 7 53 19 18 3 31 12 40 26 21 34 9 87 3 107 4 6 8 14 6 25-2 23-11 32-19 36-3 18-13 38-22 47l0 5c0 10 0 19 1 31 1 2 2 4 3 5-3 3-8 13-11 18-5-5-9-10-12-17l0-3c-1-13-1-23-1-34l0-16 5-3c4-3 16-23 18-42l1-8 8-1c2 0 7-4 9-20 1-8-3-11-3-11l-7-4 2-8c8-24 17-71 2-96-7-10-16-16-30-18l-5 0-2-5c-5-8-19-13-39-13-30 1-53 10-65 27-17 21-19 58-6 105l2 8-7 4c0 0-4 3-3 11 2 16 7 20 8 20l9 1 1 8c2 18 14 39 18 42l6 3 0 16c0 11 0 21-1 34l-1 3c-9 24-35 34-63 45-35 14-72 28-80 69l232 0c0 40 4 10 15 20l-269 0 1-11c3-62 53-81 93-97 24-9 45-18 51-32 1-12 1-21 1-31l0-5c-9-9-19-29-22-47-8-4-17-13-19-36-2-11 2-20 6-25-12-52-9-92 11-118 17-22 44-33 82-34z m165 262c56 0 102 46 102 103 0 24-9 47-23 64l61 61-15 15-61-61c-17 14-40 23-64 23-57 0-103-46-103-102 0-57 46-103 103-103z m0 21c-46 0-82 36-82 82 0 45 36 82 82 82 45 0 82-37 82-82 0-46-37-82-82-82z"/>
    </symbol>
  
    <symbol id="icon-clock" viewBox="0 0 512 512">
      <path d="m256 0c141 0 256 115 256 256 0 141-115 256-256 256-141 0-256-115-256-256 0-141 115-256 256-256z m0 20c-130 0-236 106-236 236 0 130 106 236 236 236 130 0 236-106 236-236 0-130-106-236-236-236z m-1 31c0 0 1 0 1 0 6 0 10 4 10 10 0 0 0 0 0 0l0 166c12 4 21 16 21 29 0 17-14 31-31 31-5 0-9-2-13-3l-62 61c-1 2-5 3-7 3-6 0-10-4-10-10 0-2 1-6 3-7l61-62c-1-4-3-8-3-13 0-13 9-25 21-29l0-166c0-4 3-9 8-10 0 0 1 0 1 0z"/>
    </symbol>
  
    <symbol id="icon-bullseye" viewBox="0 0 512 512">
      <path d="m256 10c57 0 110 20 152 53l32-32 0 41 41 0-51 51-26 0-18 18-14 14-88 88c1 4 3 8 3 13 0 17-14 31-31 31-17 0-31-14-31-31 0-17 14-31 31-31 5 0 9 2 13 3l37-37c-14-10-31-17-50-17-45 0-82 37-82 82 0 45 37 82 82 82 45 0 82-37 82-82 0-11-2-22-6-32l15-15c7 14 11 30 11 47 0 56-46 102-102 102-56 0-102-46-102-102 0-56 46-102 102-102 25 0 47 8 65 23l36-37c-27-23-62-38-101-38-85 0-154 69-154 154 0 85 69 154 154 154 85 0 154-69 154-154 0-31-10-60-26-84l15-15c19 28 31 62 31 99 0 96-78 174-174 174-96 0-174-78-174-174 0-96 78-174 174-174 44 0 84 17 115 44l18-18 0-26 4-4c-38-30-85-47-137-47-124 0-225 101-225 225 0 124 101 225 225 225 124 0 225-101 225-225 0-44-13-86-35-120l15-15c26 39 41 85 41 135 0 136-110 246-246 246-136 0-246-110-246-246 0-136 110-246 246-246z"/>
    </symbol>
  
    <symbol id="icon-filter" viewBox="0 0 512 512">
      <path d="m81 0c0 0 1 0 1 0 6 0 10 4 10 10 0 0 0 0 0 0l0 139 37-36c1-2 4-4 7-4 0 0 1 0 1 0 6 0 10 4 10 10 0 3-1 6-4 8l-53 53c-1 1-2 2-2 3l-6 5-6-5c0-1-1-1-1-2l-2-1-53-53c-1-2-3-5-3-7 0-5 4-10 10-11 0 0 0 0 0 0 3 0 6 2 8 4l37 36 0-139c0 0 0 0 0 0 0-5 3-9 8-10 0 0 1 0 1 0z m174 0c0 0 1 0 1 0 6 0 10 4 10 10 0 0 0 0 0 0l0 139 37-36c2-2 5-4 8-4 6 0 10 4 10 10 0 3-1 6-4 8l-53 53c-1 1-2 2-2 3l-6 5-6-5c0-1-1-2-2-2l-53-54c-2-2-4-5-4-7 0-5 5-10 10-11 0 0 0 0 0 0 3 0 6 2 8 4l37 36 0-139c0-5 3-9 8-10 0 0 1 0 1 0z m174 0c0 0 1 0 1 0 6 0 10 4 10 10l0 0 0 139 37-36c2-2 5-4 8-4 6 0 10 4 10 10 0 3-1 6-3 8l-54 53c0 1-1 2-2 3l-6 5-6-5c0-1-1-2-2-2l-1-1-52-53c-2-2-4-5-4-7 0-5 5-10 10-11 0 0 0 0 1 0 2 0 5 2 7 4l37 36 0-139 0 0c0-5 3-9 8-10 0 0 1 0 1 0z m-429 246l512 0 0 20-512 0z m153 71c0 0 0 0 1 0 5 0 10 5 10 10 0 0 0 1 0 1l0 139 37-37c1-2 4-3 6-4 1 0 1 0 2 0 5 0 10 5 10 10 0 3-2 7-4 8l-53 54c-1 1-2 2-3 2l-5 6-6-6c-1 0-1-1-2-1l-54-55c-2-1-3-5-3-7 0-5 4-10 9-10 0 0 1 0 1 0 3 0 6 1 8 3l36 37 0-139c0 0 0 0 0-1 0-4 4-9 8-10 1 0 1 0 2 0z m215 0c0 0 0 0 1 0 5 0 10 5 10 10 0 0 0 1 0 1l0 139 37-37c1-2 5-4 8-4 5 0 10 5 10 11 0 2-2 6-4 7l-53 54c-1 1-2 2-3 2l-5 6-6-6c-1 0-2-1-2-2l-1-1-53-53c-2-1-3-5-3-7 0-5 4-10 9-10 1 0 1 0 1 0 3 0 6 1 8 3l36 37 0-139 0-1c0-4 4-9 8-10 1 0 1 0 2 0z"/>
    </symbol>
  
    <symbol id="icon-devices" viewBox="0 0 512 512">
      <path d="m82 41l348 0c23 0 41 18 41 41l0 154-20 0 0-154c0-12-9-21-21-21l-348 0c-12 0-21 9-21 21l0 92-20 0 0-92c0-23 18-41 41-41z m8 41c0 0 1 0 1 0 0 0 0 0 0 0 0 0 1 0 1 0 0 0 0 0 0 0l328 0c5 0 10 5 10 10l0 144-20 0 0-134-308 0 0 72-20 0 0-82c0 0 0 0 0 0 0-5 4-9 8-10z m-70 102l195 0c5 0 11 2 15 6 4 4 6 9 6 15l0 246c0 5-2 10-6 14-4 4-10 6-15 6l-195 0c-5 0-10-2-14-6-4-4-6-9-6-14l0-246c0-6 2-11 6-15 4-4 9-6 14-6z m0 21l0 246 195 0 0-246z m19 10c0 0 0 0 1 0 0 0 0 0 0 0 0 0 0 0 0 0 1 0 1 0 1 0l154 0c5 0 10 5 10 10l0 185c0 5-5 10-10 10l-154 0c-6 0-10-5-10-10l0-185c0 0 0 0 0 0 0-5 3-9 8-10z m12 21l0 163 133 0 0-163z m328 10l113 0c5 0 10 2 14 6 4 3 6 9 6 14l0 185c0 5-2 10-6 14-4 4-9 6-14 6l-113 0c-5 0-11-2-15-6-4-4-6-9-6-14l0-185c0-5 2-11 6-14 4-4 10-6 15-6z m0 20l0 185 113 0 0-185z m18 10c1 0 1 0 1 0 0 0 0 0 0 0 1 0 1 0 1 0 0 0 0 0 0 0l72 0c6 0 10 5 10 11l0 123c0 5-4 10-10 10l-72 0c-5 0-10-5-10-10l0-123 0 0c0-5 4-10 8-11z m13 21l0 102 51 0 0-102z m-164 31l102 0 0 20-102 0z m51 30l51 0 0 21-31 0 0 10 31 0 0 21-51 0z m-51 62l102 0 0 20-102 0z m-128 5c5 0 10 5 10 10 0 6-5 10-10 10-6 0-10-4-10-10 0-5 4-10 10-10z m317 0c6 0 10 5 10 10 0 6-4 10-10 10-5 0-10-4-10-10 0-5 5-10 10-10z"/>
    </symbol>
  
    <symbol id="icon-checklist-left" viewBox="0 0 512 512">
      <path d="m135 55l16 13-73 93-44-39 14-15 27 25z m60 47l276 0 0 21-276 0z m0 144l276 0 0 20-276 0z m0 143l276 0 0 21-276 0z"/>
    </symbol>
  
    <symbol id="icon-linkedin" viewBox="0 0 512 512">
      <path d="m410 0c56 0 102 46 102 102l0 308c0 56-46 102-102 102l-308 0c-56 0-102-46-102-102l0-308c0-56 46-102 102-102z m-246 357l0-162-82 0 0 235 82 0z m-41-188c25 0 41-17 41-39-1-21-17-38-41-38-25 0-41 17-41 38 0 22 16 39 41 39z m307 261l0-133c0-69-40-102-89-102-48 0-65 31-65 31l0-31-81 0 0 235 81 0 0-133c0 0 6-41 36-41 35 0 36 32 36 41l0 133z"/>
    </symbol>
  
    <symbol id="icon-question" viewBox="0 0 512 512">
      <path d="m258 0c139 0 254 100 254 226 0 126-115 226-254 226-17 0-33-2-48-4-23 18-54 36-90 49-37 13-77 20-112 11-5-2-8-6-8-10 0-3 2-6 4-8 9-8 26-18 43-36 15-17 29-40 30-70-45-41-73-96-73-158 0-126 114-226 254-226z m0 20c-130 0-233 93-233 206 0 58 26 109 70 147 2 2 3 5 3 8 0 0 0 0 0 0 0 38-18 67-36 87-11 11-17 14-26 21 25 1 51-2 78-11 34-13 67-32 86-49 2-1 5-2 7-2 0 0 1 0 2 0 16 3 32 5 49 5 129 0 234-92 234-206 0-113-105-206-234-206z m0 109c18 0 34 5 45 16 11 11 18 25 18 41 0 10-3 19-7 25-4 6-12 15-25 28-10 9-16 16-19 22-3 5-4 13-4 26l-25 0c0-14 2-25 5-33 3-8 10-17 21-29l11-11c3-3 7-6 9-10 4-6 6-13 6-20 0-9-3-17-8-23-5-8-16-11-28-11-16 0-27 7-34 18-3 6-5 16-6 28l-26 0c1-20 7-36 19-48 11-13 27-19 48-19z m-17 181l27 0 0 30-27 0z"/>
    </symbol>
  
    <symbol id="icon-resume" viewBox="0 0 512 512">
      <path d="m72 20l368 0 0 472-368 0z m20 21l0 430 328 0 0-430z m86 41c6 0 10 3 12 6 15 0 11 21 9 28 1 1 2 4 2 7 0 5-5 7-5 7 0 6-5 11-7 12 0 4-1 7 0 11 4 12 34 8 35 31l-91 0c1-23 31-19 35-31 1-4 0-7 0-11-2-1-7-6-7-12 0 0-5-2-5-8 0-3 2-6 2-6-4-17-2-34 20-34z m106 20c0 0 0 0 0 0 0 0 1 0 1 0 0 0 0 0 0 0 0 0 1 0 1 0 0 0 0 0 0 0 0 0 1 0 1 0l82 0c5 0 10 5 10 11 0 5-5 10-10 10l-82 0c-1 0-1 0-2 0-5 0-10-5-10-10 0-5 4-10 9-11z m0 52c0 0 0 0 0 0 0 0 1 0 1 0 0 0 0 0 0 0 0 0 1 0 1 0 0 0 0 0 0 0 0 0 1 0 1 0l82 0 0 0c5 0 10 4 10 10 0 5-5 10-10 10l-82 0c-1 0-1 0-2 0-5 0-10-4-10-10 0-5 4-10 9-10z m-144 102c1 0 1 0 1 0 0 0 0 0 0 0 1 0 1 0 1 0 0 0 0 0 0 0 1 0 1 0 1 0 0 0 0 0 0 0l144 0c6 0 10 5 10 10 0 6-4 10-10 10l-144 0c0 1-1 1-1 1-6 0-10-5-10-11 0-5 4-9 8-10z m195 0c0 0 0 0 1 0 0 0 0 0 0 0 0 0 0 0 0 0 1 0 1 0 1 0 0 0 0 0 0 0 1 0 1 0 1 0l31 0c5 0 10 5 10 10 0 6-5 10-10 10l-31 0c0 1-1 1-2 1-5 0-10-5-10-11 0-5 4-9 9-10z m-195 61c1 0 1 0 1 0 0 0 0 0 0 0 1 0 1 0 1 0 0 0 0 0 0 0 1 0 1 0 1 0 0 0 0 0 0 0l113 0 0 0c6 0 10 5 10 11 0 5-4 10-10 10l0 0-113 0c0 0-1 0-1 0-6 0-10-5-10-10 0-5 4-10 8-11z m195 0c0 0 0 0 1 0 0 0 0 0 0 0 0 0 0 0 0 0 1 0 1 0 1 0 0 0 0 0 0 0 1 0 1 0 1 0l31 0 0 0c5 0 10 5 10 11 0 5-5 10-10 10l0 0-31 0c0 0-1 0-2 0-5 0-10-5-10-10 0-5 4-10 9-11z m-195 62c1 0 1 0 1 0 0 0 0 0 0 0 1 0 1 0 1 0 0 0 0 0 0 0 1 0 1 0 1 0 0 0 0 0 0 0l144 0c6 0 10 4 10 10 0 6-4 10-10 10 0 0 0 0 0 0l-144 0c0 0-1 0-1 0-6 0-10-4-10-10 0-5 4-9 8-10z m195 0c0 0 0 0 1 0 0 0 0 0 0 0 0 0 0 0 0 0 1 0 1 0 1 0 0 0 0 0 0 0 1 0 1 0 1 0l31 0c5 0 10 4 10 10 0 6-5 10-10 10 0 0 0 0 0 0l-31 0c0 0-1 0-2 0-5 0-10-4-10-10 0-5 4-9 9-10z"/>
    </symbol>
  
    <symbol id="icon-checklist-left-2" viewBox="0 0 512 512">
      <path d="m8 0c0 0 1 0 1 0 0 0 0 0 0 0 0 0 1 0 1 0 0 0 0 0 0 0l123 0c6 0 10 5 10 10l0 123c0 6-4 10-10 10l-123 0c-5 0-10-4-10-10l0-123c0 0 0 0 0 0 0-5 4-9 8-10z m12 20l0 103 103 0 0-103z m85 14l15 14-46 51-6 8-8-7-36-31 13-15 29 24z m100 28l307 0 0 20-307 0z m-197 122c0 0 1 0 1 0 0 0 0 0 0 0 0 0 1 0 1 0 0 0 0 0 0 0l123 0c6 0 10 5 10 11l0 122c0 6-4 11-10 11l-123 0c-5 0-10-5-10-11l0-122c0 0 0-1 0-1 0-4 4-9 8-10z m12 21l0 102 103 0 0-102z m85 14l15 13-46 51-6 8-8-7-36-31 13-15 29 24z m100 27l307 0 0 20-307 0z m-197 123c0 0 1 0 1 0 0 0 0 0 0 0 0 0 1 0 1 0 0 0 0 0 0 0l123 0c6 0 10 4 10 10l0 123c0 5-4 10-10 10l-123 0c-5 0-10-5-10-10l0-123c0 0 0 0 0 0 0-5 4-9 8-10z m12 20l0 103 103 0 0-103z m185 41l307 0 0 20-307 0z"/>
    </symbol>
  
    <symbol id="icon-collaborate" viewBox="0 0 512 512">
      <path d="m174 0c42 0 75 15 97 37 14-4 29-6 46-6 74 0 123 45 123 102 0 35-18 62-42 79-24 16-54 24-81 24-33 0-72-12-97-38-16 5-31 7-46 7-26 0-56-7-81-23-24-16-42-43-42-78 0-23 9-49 29-69 20-21 51-35 94-35z m0 20c-38 0-63 13-79 29-16 16-23 37-23 55 0 28 13 48 33 61 20 13 46 19 69 19 13 0 27-2 40-6 1-2 5-3 7-3 1 0 2 0 2 0 7-3 14-7 20-11 20-14 33-33 33-62 0-16-4-31-14-44-1-1-3-4-4-6-17-19-46-32-84-32z m143 31c-12 0-23 1-33 4 8 14 13 30 13 47 0 36-18 62-42 79-5 3-10 6-15 8 21 18 51 26 77 26 23 0 50-7 70-20 19-14 33-33 33-62 0-45-37-82-103-82z m-276 123c22 0 41 15 41 36 0 21-19 36-41 36-22 0-41-15-41-36 0-21 19-36 41-36z m430 10c22 0 41 15 41 36 0 21-19 36-41 36-22 0-41-15-41-36 0-21 19-36 41-36z m-430 11c-12 0-21 7-21 15 0 7 9 15 21 15 12 0 20-8 20-15 0-8-8-15-20-15z m430 10c-12 0-20 8-20 15 0 8 8 16 20 16 12 0 21-8 21-16 0-7-9-15-21-15z m-344 41c13 0 25 3 33 12 11 2 20 7 25 14 6 8 9 18 9 27 2 16-2 30-5 41 3 4 5 9 4 16-1 8-3 14-7 18-1 2-4 2-6 3-1 6-2 12-5 17-1 3-3 7-5 9 0 1-1 1-2 2 0 6 0 12 1 18 1 4 5 7 12 10 7 4 17 7 28 12 10 4 21 9 30 18 9 9 16 22 17 38 1-16 8-29 17-38 9-9 20-14 30-18 11-5 21-8 29-12 7-3 10-6 12-10 0-6 0-12 0-18 0-1-1-1-2-2-2-2-3-5-5-8-3-5-4-12-5-18-2-1-5-1-6-3-4-4-6-10-7-18-1-8 1-13 4-17-5-22-7-43 1-61 9-19 29-32 59-32 13 0 25 3 33 12 11 2 20 7 25 14 6 8 9 18 9 27 2 16-2 30-5 41 3 4 5 9 4 16-1 8-3 14-7 18-1 2-4 2-6 3-1 6-2 12-5 17-1 3-3 7-5 9 0 1-1 1-2 2 0 6 0 12 1 18 1 4 5 7 12 10 7 4 17 7 28 12 10 4 21 9 30 18 9 9 16 22 17 38l1 11-514 0 1-11c1-16 8-29 17-38 9-9 20-14 30-18 11-5 21-8 29-12 7-3 10-6 12-10 0-6 0-12 0-18 0-1-1-1-2-2-2-2-3-5-5-8-3-5-4-12-5-18-2-1-5-1-6-3-4-4-6-10-7-18-1-8 1-13 4-17-5-22-7-43 1-61 9-19 29-32 59-32z m-107 20c12 0 21 7 21 16 0 8-9 15-21 15-11 0-20-7-20-15 0-9 9-16 20-16z m107 0c-24 1-35 8-40 20-5 12-5 31 1 53l2 8-6 3c0 0-1 1-1 3 1 5 2 7 3 8l7 1 1 8c1 5 3 11 5 15 1 3 2 4 3 6 1 0 1 0 1 1 1 0 1 0 1 0l4 3 0 6c0 9 1 16 0 26l0 1-1 2c-4 11-13 17-23 22-9 4-19 8-29 12-10 4-18 8-24 14-4 4-6 8-8 14l210 0c-2-6-4-10-8-14-6-6-15-10-24-14-10-4-20-8-29-12-10-5-19-11-23-22l-1-2 0-1c0-10 0-17 0-26l0-6 4-3c0 0 1-1 2-1 1-2 2-3 3-6 2-4 4-10 5-15l1-8 7-1c1-1 2-3 3-8 0-2-1-3-1-3l-6-4 2-8c3-7 7-24 6-38 0-6-3-12-5-16-3-3-7-6-14-7l-6-1-2-4c-1-2-8-6-19-6z m256 0c-24 1-35 8-40 20-5 12-5 31 1 53l2 8-6 3c0 0-1 1-1 3 1 5 2 7 3 8l7 1 1 8c1 5 3 11 5 15 1 3 2 4 3 6 1 0 1 0 1 1 1 0 1 0 1 0l4 3 0 6c0 9 1 16 0 26l0 1-1 2c-4 11-13 17-23 22-9 4-19 8-29 12-10 4-18 8-24 14-4 4-6 8-8 14l210 0c-2-6-4-10-8-14-6-6-15-10-24-14-10-4-20-8-29-12-10-5-19-11-23-22l-1-2 0-1c0-10 0-17 0-26l0-6 4-3c0 0 1-1 2-1 1-2 2-3 3-6 2-4 4-10 5-15l1-8 7-1c1-1 2-3 3-8 0-2-1-3-1-3l-6-4 2-8c3-7 7-24 6-38 0-6-3-12-5-16-3-3-7-6-14-7l-6-1-2-4c-1-2-8-6-19-6z m109 10c11 0 20 7 20 16 0 8-9 15-20 15-12 0-21-7-21-15 0-9 9-16 21-16z"/>
    </symbol>
  
    <symbol id="icon-chart-positive" viewBox="0 0 512 512">
      <path d="m131 72c0 0 1 0 1 0 0 0 0 0 0 0 0 0 1 0 1 0 0 0 0 0 0 0l103 0 0 102c0 6-5 10-11 10-5 0-10-4-10-10l0-67-177 177c-2 2-5 3-7 3-6 0-11-5-11-11 0-2 2-5 3-7l177-177-67 0c0 0-1 0-1 0-6 0-10-4-10-10 0-5 4-10 9-10z m217 41l144 0 0 399-144 0z m21 20l0 359 102 0 0-359z m-185 113l144 0 0 266-144 0z m21 20l0 226 102 0 0-226z m-185 92l144 0 0 154-144 0z m21 21l0 113 102 0 0-113z"/>
    </symbol>
  
    <symbol id="icon-twitter" viewBox="0 0 512 512">
      <path d="m513 107c-14 21-32 40-53 54 0 5 0 9 0 14 0 139-106 300-299 300-60 0-115-18-162-48 9 1 17 2 25 2 50 0 95-17 131-45-46-1-85-32-98-73 6 1 13 1 20 1 9 0 19-1 27-3-48-10-84-52-84-103l0-2c14 8 30 13 48 13-29-19-47-51-47-87 0-20 5-38 14-53 52 63 130 105 217 110-2-8-3-16-3-24 0-58 48-105 106-105 30 0 57 12 77 33 24-5 46-14 66-26-7 25-24 45-46 58 21-2 42-8 61-16z"/>
    </symbol>
  
    <symbol id="icon-twin" viewBox="0 0 512 512">
      <path d="m102 0c34 0 62 28 62 61 0 34-28 62-62 62-33 0-61-28-61-62 0-33 28-61 61-61z m308 0c33 0 61 28 61 61 0 34-28 62-61 62-34 0-62-28-62-62 0-33 28-61 62-61z m-308 20c-22 0-41 19-41 41 0 23 19 41 41 41 23 0 41-18 41-41 0-22-18-41-41-41z m308 0c-23 0-41 19-41 41 0 23 18 41 41 41 22 0 41-18 41-41 0-22-19-41-41-41z m-348 113l80 0c35 0 63 28 63 63l0 19c0 6-5 10-10 10-6 0-11-4-11-10l0-19c0-24-19-42-42-42l-80 0c-23 0-42 18-42 42l0 140c0-1 2 2 4 2l27 0c6 0 10 5 10 10l0 140c0 2 2 4 4 4l76 0c2 0 3-2 3-4l0-140c0-5 5-10 11-10l27 0c2 0 3-2 3-3l0-38c0-6 5-10 11-10 5 0 10 4 10 10l0 38c0 13-11 23-24 23l-17 0 0 130c0 13-11 24-24 24l-76 0c-13 0-24-11-24-24l0-130-17 0c-13 0-24-9-24-22l0-140c0-35 28-63 62-63z m308 0l81 0c34 0 62 28 62 63l0 139c0 13-10 23-23 23l-18 0 0 130c0 13-10 24-23 24l-77 0c-13 0-24-11-24-24l0-130-17 0 0 0c-6 0-11-4-11-10 0-5 5-10 11-10l27 0c6 0 11 5 11 10l0 140c0 2 2 4 3 4l77 0c1 0 3-2 3-4l0-140c0-5 4-10 10-10l28 0c1 0 2-2 2-3l0-139c0-24-18-42-41-42l-81 0c-10 0-19 3-27 9-2 1-5 3-7 3-6 0-11-5-11-11 0-3 3-7 6-8 10-9 24-14 39-14z m-84 51c0 0 0 0 1 0 2 0 5 1 7 3l61 61c0 0 0 0 0 1l1 0c0 0 0 1 1 1l6 6-6 6c0 0-1 0-1 0l0 1c-1 1-2 1-2 2l-60 60c-2 1-5 3-7 3-6 0-11-5-11-11 0-2 2-5 3-7l44-44-180 0c0 0 0 0 0 0-6 0-10-4-10-10 0-5 4-10 9-10 1 0 1 0 1 0 0 0 0 0 0 0l180 0-44-44c-1-2-3-5-3-8 0-4 4-9 8-10 1 0 1 0 2 0z"/>
    </symbol>
  
    <symbol id="icon-globe" viewBox="0 0 512 512">
      <path d="m159 26c0 0 0 0 1 0 0 0 0 0 0 0 5 1 10 5 10 11 0 3-2 6-5 8-88 62-110 183-48 271 37 54 97 83 158 83 1 0 1 0 1 0l0 0c1 0 2 0 2 0 38 0 76-11 110-35 1-1 4-2 6-2 5 0 10 5 10 11 0 3-2 7-5 8-34 24-73 37-112 38l0 32c41 3 85 21 85 21 4 1 7 5 7 9 0 6-5 11-10 11l-91 0c0 0-1 0-2 0 0 0-1 0-1 0l-91 0c-5 0-10-5-10-11 0-4 3-8 7-9 0 0 44-18 85-21l0-32c-64-3-126-34-166-91-68-98-44-232 54-300 1-1 3-1 5-2z m117 5c25 0 49 5 71 15 2 0 6 1 8 4 51 25 88 76 94 135 1 2 2 4 2 5 0 2-1 3-1 4 0 4 1 7 1 11 0 57-28 108-71 139-1 1-3 3-4 4 0 0-1 0-1 0-28 20-62 31-99 31-24 0-48-5-70-15 0 0 0 0 0 0-3 0-6-2-8-4-51-26-88-77-94-136-1-1-2-4-2-5 0-1 1-3 1-4 0-3-1-7-1-10 0-57 28-108 70-139 2-2 3-3 5-4 1 0 1-1 2-1 28-19 61-30 97-30z m0 20c-13 0-27 2-39 6 8 2 17 6 26 11 8 4 17 10 25 16l36-25c-15-5-31-8-48-8z m71 17l-42 30c14 13 28 28 41 46l50-35c-13-17-30-31-49-41z m-139 5c-4 0-7 0-10 1l34 49 38-26c-6-5-11-8-17-11-17-10-33-14-45-13z m-27 13c-8 12-12 31-8 55 1 7 2 13 4 20l38-26z m106 24l-43 30 35 51 50-35c-13-18-27-33-42-46z m-136 6c-16 24-27 52-28 83l36-25c-3-10-5-20-6-30-2-10-2-19-2-28z m257 10l-50 35c12 18 21 36 28 54l43-29c-3-22-10-42-21-60z m-181 26l-43 30c7 18 16 37 28 55l50-35z m114 20l-50 35 35 51 43-31c-7-17-16-36-28-55z m-174 22l-43 30c3 22 10 42 21 60l50-35c-12-18-21-37-28-55z m263 17l-36 25c3 10 5 20 6 29 2 10 2 20 2 29 16-24 27-52 28-83z m-156 8l-50 35c13 18 27 33 42 45l43-30z m102 29l-38 27 34 48c8-11 12-30 8-55-1-6-2-13-4-20z m-169 18l-50 35c13 16 30 30 49 40l42-29c-14-13-28-29-41-46z m114 20l-38 27c6 4 11 8 17 11 22 12 41 15 55 11z m-56 39l-36 26c15 5 31 7 47 7 14 0 28-2 40-5-8-3-17-6-26-11-8-5-17-10-25-17z"/>
    </symbol>
  
    <symbol id="icon-map-treasure" viewBox="0 0 512 512">
      <path d="m21 51c1 0 1 0 2 1l120 30 110-30c1-1 2-1 3-1 1 0 2 0 2 1l121 30 110-30 0 0 0 0c1-1 2-1 3-1 5 0 10 5 10 10l0 366c0 4-4 9-8 10l-112 34c-1 0-2 0-3 0-1 0-2 0-3 0l-120-30-110 30c-1 0-2 0-3 0 0 0-2 0-2 0l-123-34c-4-1-8-6-8-10l0-366c0-5 5-10 10-10 1 0 1 0 1 0z m235 21l-110 30c-1 0-2 0-3 0 0 0-1 0-2 0l-110-27 0 344 112 31 110-30c1 0 2 0 3 0 1 0 2 0 2 0l121 30 102-31 0-344-99 27c-1 0-2 0-3 0-1 0-2 0-3 0z m-92 98l8 4 1 9-7 7-5 1-3 2-4 1-8-4-2-9 5-7 4-2 0 0 1 0 6-2z m43 1l1 0 0 0 1 1 6 3 0 0 1 0 2 2 3 2 1 9-6 7-9-1-2-1-5-3 0 0 0 0-1 0-2-2-4-8 5-8z m-81 29l6 7-2 9-1 1-4 7-3 2-9 1-6-6 1-9 5-7 0 0 0 0 2-2 2-2z m115 4l9 4 5 8 1 1 0 0 0 0 1 3-2 9-9 4-7-5 0 0-1 0-5-8-2-3 2-9z m-143 39l7 5 1 9-4 10-2 3-9 3-8-5 0-9 4-10 2-3z m171 4l8 3 7 8 1 3-1 9-8 5-8-4-7-8-1-3 1-9z m171 19l0 0c6 0 11 5 11 10 0 3-1 6-3 7l-25 29 25 30c1 1 3 4 3 6 0 6-5 10-11 10-2 0-6-1-7-3l-23-27-23 27c-2 2-6 3-8 3-6 0-10-4-10-10 0-2 1-5 2-6l25-30-25-29c-1-1-2-4-2-7 0-5 4-10 10-10 0 0 0 0 0 0 2 0 6 2 8 4l23 27 23-27c1-2 5-4 7-4z m-138 17l9 1 9 5 3 3 1 9-6 6-9-1-9-5-2-3-2-9z m52 20l3 1 6 0 3 1 6 7-2 9-8 4-7-1-1 0 0 0-4 0-3-2-5-7 3-9z"/>
    </symbol>
  
    <symbol id="icon-numbered-list" viewBox="0 0 512 512">
      <path d="m39 30l13 0 0 87-16 0 0-73-16 8-3-12z m74 42l399 0 0 20-399 0z m-75 130c19 0 29 12 29 26 0 16-12 28-26 41l-7 7 36 0 0 14-60 0 0-10 10-10c21-18 30-29 30-41 0-8-4-14-15-14-8 0-15 4-19 7l-5-11c6-5 15-9 27-9z m75 44l399 0 0 20-399 0z m-76 129c18 0 26 10 26 21 0 9-5 17-16 21 10 2 19 10 20 21 0 15-13 27-34 27-11 0-20-3-25-6l5-12c4 2 11 5 20 5 12 0 17-6 17-14 0-10-9-14-19-14l-7 0 0-12 7 0c7 0 17-3 17-13 0-6-4-11-14-11-7 0-15 3-18 5l-4-12c5-3 15-6 25-6z m76 45l399 0 0 20-399 0z"/>
    </symbol>
  
    <symbol id="icon-email" viewBox="0 0 512 512">
      <path d="m0 72l512 0 0 368-512 0z m20 20l0 26c3 2 92 80 151 131 20 17 47 41 51 44 13 12 27 14 34 14 7 0 21-2 34-14l1-1c17-14 197-171 201-174l0-26z m0 53l0 223 135-106c-54-47-117-102-135-117z m472 0c-18 15-81 70-135 117l135 106z m-321 131l-151 118 0 26 472 0 0-26-150-118c-13 11-35 30-38 33-18 15-36 19-48 19-12 0-30-4-47-19l-1 0c-3-3-25-22-37-33z"/>
    </symbol>
  
    <symbol id="icon-chart-lines" viewBox="0 0 512 512">
      <path d="m492 31c11 0 20 9 20 20 0 12-9 21-20 21-2 0-4-1-6-1l-107 99 0 0c0 1 0 3 0 4 0 11-9 21-21 21-11 0-20-10-20-21 0 0 0 0 0-1l-72-43c-3 2-6 3-10 3-3 0-5-1-8-1l-74 59c0 1 0 2 0 4 0 11-9 20-20 20-5 0-9-1-12-4l-101 47c-1 10-10 18-21 18-11 0-20-9-20-20 0-11 9-20 20-20 5 0 9 1 12 3l101-46c1-11 10-19 21-19 2 0 5 0 7 1l75-59c0-1 0-2 0-3 0-12 9-21 20-21 11 0 20 9 20 21 0 0 0 0 0 0l72 43c3-1 7-2 10-2 2 0 4 0 6 1l107-99c0 0 0-1 0-1 0-1 0-2 0-4 0-11 9-20 21-20z m0 266c11 0 20 9 20 20 0 12-9 21-20 21-2 0-4 0-6-1l-107 99c0 0 0 0 0 0 0 1 0 3 0 4 0 12-9 21-21 21-11 0-20-9-20-21 0-1 0-3 1-5l-78-77c-2 0-3 0-5 0-3 0-5 0-8-1l-74 60c0 1 0 2 0 3 0 11-9 20-20 20-9 0-16-5-19-12l-99-16c-4 5-9 8-16 8-11 0-20-9-20-21 0-11 9-20 20-20 9 0 16 5 19 13l99 15c4-5 9-8 16-8 2 0 5 1 7 2l75-60c0-1 0-2 0-3 0-11 9-21 20-21 11 0 20 10 20 21 0 2 0 3 0 5l77 77c2 0 4 0 5 0 3 0 5 0 6 1l107-99c0 0 0 0 0 0 0-2 0-3 0-5 0-11 9-20 21-20z"/>
    </symbol>
  
    <symbol id="icon-sync" viewBox="0 0 512 512">
      <path d="m256 51c67 0 126 32 164 82l0-61c0-6 4-11 10-11l0 0c6 0 10 5 10 11l0 102-102 0 0 0c-6 0-10-5-10-10 0-6 4-10 10-10l71 0c-33-50-89-82-153-82-102 0-184 82-184 184l0 0c0 6-5 10-11 10-5 0-10-4-10-10 0 0 0 0 0 0 0-113 92-205 205-205z m194 195l1 0c5 0 10 4 10 10l0 0c0 113-92 205-205 205-67 0-126-32-164-82l0 61c0 6-4 11-10 11-6 0-10-5-10-11l0-102 11 0c0 0 1 0 2 0 0 0 1 0 1 0l88 0 0 0c6 0 10 5 10 10 0 6-4 10-10 10l0 0-71 0c33 50 89 82 153 82 102 0 184-82 184-184l0 0c0-6 5-10 10-10z"/>
    </symbol>
  
    <symbol id="icon-phone-filled" viewBox="0 0 512 512">
      <path d="m420 512l0 0c-88-3-190-88-261-159-71-71-156-173-159-260-1-30 74-85 75-85 16-12 39-9 48 3 6 8 63 95 69 105 6 10 5 24-3 39-4 9-19 35-26 47 7 10 27 37 69 78 42 42 68 62 78 69 11-7 38-22 47-27 14-7 29-8 39-2 10 6 97 64 105 69 6 5 10 12 11 21 1 9-2 19-8 27-1 1-55 75-84 75z"/>
    </symbol>

    <symbol id="icon-signal" viewBox="0 0 512 512">
      <path d="m220 123c-5 0-9 3-10 8l-29 139-18-48c-1-4-5-7-9-7-4 0-8 2-10 6l-17 35-35 0c-1 0-2 0-2 0-4-6-11-10-18-10-12 0-21 9-21 20 0 12 9 21 21 21 7 0 14-4 18-11 0 0 1 0 2 0l41 0c4 0 8-2 9-5l10-20 23 60c1 4 6 7 10 6 5 0 8-3 9-8l26-122 31 173c1 5 5 8 9 9 5 0 9-3 11-7l41-108 21 57c2 3 5 6 9 6 4 1 8-1 10-4l22-37 49 0c3 7 10 11 17 11 12 0 21-9 21-21 0-11-9-20-21-20-7 0-14 4-17 10l-54 0c-4 0-7 2-9 5l-15 23-23-62c-2-4-5-7-10-7-4 0-8 3-9 7l-38 99-35-190c-1-5-5-8-10-8z"/>
    </symbol>
  
</svg>
