<?xml version="1.0" encoding="utf-8"?>
<!-- Generator: Adobe Illustrator 18.1.0, SVG Export Plug-In . SVG Version: 6.00 Build 0)  -->
<svg xmlns="http://www.w3.org/2000/svg" xmlns:xlink="http://www.w3.org/1999/xlink" version="1.1" id="Layer_1" x="0px" y="0px" viewBox="0 0 50 50" enable-background="new 0 0 50 50" xml:space="preserve" fill="#00b3a7" width="52px" height="52px">
<circle cx="29.5" cy="29.5" r="1.5" fill="#00b3a7"/>
<circle fill="none" stroke="#00b3a7" stroke-width="2" stroke-miterlimit="10" cx="29.5" cy="31.5" r="3.5"/>
<circle cx="22.5" cy="33.5" r="1.5" fill="#00b3a7"/>
<circle fill="none" stroke="#00b3a7" stroke-width="2" stroke-miterlimit="10" cx="22.5" cy="31.5" r="3.5"/>
<path fill="none" stroke="#00b3a7" stroke-width="2" stroke-linecap="round" stroke-miterlimit="10" d="M16.9,10.7  C12.1,13.3,10,18.3,10,24c0,1.2,0,5,0,5"/>
<path fill="none" stroke="#00b3a7" stroke-width="2" stroke-linecap="round" stroke-miterlimit="10" d="M40,29c0,0,0-3.8,0-5  c0-8.3-4.4-15-15-15c-2.2,0-4.1,0.3-5.8,0.8"/>
<polygon fill="none" stroke="#00b3a7" stroke-width="2" stroke-linecap="round" stroke-linejoin="round" stroke-miterlimit="10" points="  43,5.5 44.2,10.5 49,11.7 44.8,13.8 45.6,18.8 41.9,15.2 37.6,17 39.5,12.6 36,8.8 40.9,9.7 "/>
<polygon fill="none" stroke="#00b3a7" stroke-width="2" stroke-linecap="round" stroke-linejoin="round" stroke-miterlimit="10" points="  32.1,8.2 30.3,6.3 27.9,7.3 29.2,4.9 27.5,2.9 30.1,3.3 31.6,1 31.8,3.7 34.4,4.4 32,5.5 "/>
<polygon fill="none" stroke="#00b3a7" stroke-width="2" stroke-linecap="round" stroke-linejoin="round" stroke-miterlimit="10" points="  3.4,19.6 3.9,16.4 1,14.8 4.3,14.2 5.1,11 6.6,13.9 10,13.5 7.6,15.8 8.9,18.8 5.9,17.4 "/>
<polygon fill="none" stroke="#00b3a7" stroke-width="2" stroke-linecap="round" stroke-linejoin="round" stroke-miterlimit="10" points="  18.9,8.6 22.5,6.4 18.2,5.5 17.2,1 15.3,5.1 11,4.5 14.2,7.9 12.5,12.1 16.3,10.1 19.7,13.2 "/>
<path fill="none" stroke="#00b3a7" stroke-width="2" stroke-linecap="round" stroke-linejoin="round" stroke-miterlimit="10" d="  M12,29l1-0.6c0-4.3,4-6,4-12.4c4,7.9,20-2.6,20,13l0.6,0c0,0,3.7-0.5,3.7,3.2c0,1.9-1.5,3.5-3.3,3.7C35.3,42.8,31.2,49,24.7,49  c-6.6,0-10.6-6.2-13.3-13.1c-1.9-0.2-3.3-1.7-3.3-3.7c0-3.6,3.7-3.2,3.7-3.2"/>
</svg>
