<svg xmlns="http://www.w3.org/2000/svg" width="100pt" height="100pt" viewBox="0 0 100 100"><path d="M34 39.602l14.398 12.796L66 30" fill="none" stroke-width="4" stroke-linecap="square" stroke="#00c8aa" stroke-miterlimit="10"/><path d="M86 78a4 4 0 1 1 0-8 4 4 0 0 1 0 8z" fill="#00c8aa"/><path d="M26 94c0-2.203 1.695-4 3.777-4h40.446C72.305 90 74 91.797 74 94v4H26z" fill="none" stroke-width="4" stroke-linecap="round" stroke="#00c8aa" stroke-miterlimit="10"/><path d="M4 82c-1.105 0-2-.895-2-2V8c0-1.105.895-2 2-2h92c1.105 0 2 .895 2 2v72c0 1.105-.895 2-2 2z" fill="none" stroke-width="4" stroke-linejoin="round" stroke="#00c8aa" stroke-miterlimit="10"/><path d="M12 66c-1.105 0-2-.895-2-2V16c0-1.105.895-2 2-2h76c1.105 0 2 .895 2 2v48c0 1.105-.895 2-2 2z" fill="none" stroke-width="4" stroke-linejoin="round" stroke="#00c8aa" stroke-miterlimit="10"/><path d="M60 90v-8M40 90v-8" fill="none" stroke-width="4" stroke-linecap="round" stroke="#00c8aa" stroke-miterlimit="10"/></svg>