<svg xmlns="http://www.w3.org/2000/svg" width="100pt" height="100pt" viewBox="0 0 100 100"><path d="M22.016 19.895l-5.274 2.632-6.086-7.312L0 24.152V32h32v-2.82z" fill="#00c8aa"/><path d="M11.164 9.57l6.625 7.965 4.918-2.46L32 23.714V0H0v18.934zM23 6a3 3 0 1 1-.002 6.002A3 3 0 0 1 23 6zM18.941 84a2.94 2.94 0 1 1-5.881.001A2.94 2.94 0 0 1 18.94 84z" fill="#00c8aa"/><path d="M0 68v32h32V68zm25.336 16.012s-3.559 1.34-3.852 2.191c-.379 1.09 1.114 4.402 1.114 4.402s-3.309-1.574-4.383-1.117c-1.07.457-2.215 3.848-2.215 3.848s-1.414-3.324-2.441-3.875c-1.024-.547-4.16 1.14-4.16 1.14s1.363-3.019 1.003-4.41c-.242-.937-3.738-2.187-3.738-2.187s.024-.008.027-.012l-.027-.008s3.594-1.402 3.852-2.187c.359-1.094-1.114-4.402-1.114-4.402s3.305 1.574 4.38 1.117C14.854 78.055 16 74.664 16 74.664s1.414 3.324 2.441 3.871c1.024.543 4.16-1.137 4.16-1.137s-1.456 3.043-1.003 4.407c.277.851 3.738 2.191 3.738 2.191s-.023.008-.027.012z" fill="#00c8aa"/><path d="M42 10h56M42 22h56M42 44h56M42 56h56M42 78h56M42 90h56" fill="none" stroke-width="4" stroke-linecap="round" stroke="#00c8aa" stroke-miterlimit="10"/><path d="M20.238 49.02l-1.277-.735.203-1.508c.238-1.101.121-2.492-.227-2.691-.882-.059-2 .762-2.433 1.168l-1.2 1.113-1.331-.945a2.979 2.979 0 0 0-.25-.152c-1.032-.594-1.965-.63-2.18-.418-.64.62.078 2.308.238 2.597l.809 1.453-1.281 1.059c-.579.488-1.559 1.695-1.301 2.39.015.044.039.098.176.18.293.168.82.262 1.445.262.473 0 .836-.055.89-.063l1.493-.25.656 1.372c.23.472.934 1.601 1.621 1.992a.601.601 0 0 0 .266.097v2l.008-2c.312-.12.945-1.273 1.187-2.398l.309-1.441 1.472-.137c.918-.086 2.352-.578 2.5-1.137.07-.273-.61-1.133-1.793-1.808zm-4.129.69s1.465 3.22.153 3.43c-1.317.212-.586-3.378-.586-3.378s-2.801 2.375-3.215 1.203c-.414-1.172 3.035-1.606 3.035-1.606s-3.16-1.836-2.14-2.683c1.023-.848 2.46 2.39 2.46 2.39s.758-3.515 1.895-2.863c1.14.652-1.512 3.082-1.512 3.082s3.504-.402 3.309.914c-.195 1.317-3.399-.488-3.399-.488z" fill="#00c8aa"/><path d="M0 34v32h32V34zm25.902 17.828c-.64 2.48-3.043 3.48-4.625 3.879-.586 1.617-1.894 4.086-4.492 4.227l-.234.007c-.77 0-1.528-.21-2.254-.625-1.121-.64-1.98-1.691-2.531-2.52-1.383.017-2.621-.25-3.57-.792-.915-.524-1.583-1.3-1.934-2.25-.824-2.215.226-4.36 1.41-5.781-.582-1.793-.727-4.235 1.082-5.989.867-.843 1.992-1.293 3.254-1.293 1.094 0 2.125.336 2.945.711.942-.632 2.328-1.343 3.824-1.343.778 0 1.5.187 2.149.558 2.234 1.281 2.453 3.938 2.34 5.61 1.398 1.039 3.308 2.996 2.636 5.601z" fill="#00c8aa"/></svg>