<?xml version="1.0" encoding="utf-8"?>
<!-- Generator: Adobe Illustrator 17.0.0, SVG Export Plug-In . SVG Version: 6.00 Build 0)  -->
<!DOCTYPE svg PUBLIC "-//W3C//DTD SVG 1.1//EN" "http://www.w3.org/Graphics/SVG/1.1/DTD/svg11.dtd">
<svg xmlns="http://www.w3.org/2000/svg" xmlns:xlink="http://www.w3.org/1999/xlink" version="1.1" id="Layer_1" x="0px" y="0px" width="52px" height="52px" viewBox="0 0 50 50" enable-background="new 0 0 50 50" xml:space="preserve">

<path fill="none" stroke="#000000" stroke-width="2.0415" stroke-linecap="round" stroke-linejoin="round" stroke-miterlimit="10" d="  M21,1C17.803,16.153,8,23.045,8,34.325c0,7.404,4.785,12.139,11.439,14.434C17.477,47.244,15,44.001,15,40.944  c0-5.786,2.46-7.661,4-13.944c3.695,3.194,4,8,4,8s4.385-8.652,3-18c7.323,6.835,10.04,13.648,10,19.307  C35.958,42.24,32.908,46.905,29.836,49C36.534,48.026,42,41.882,42,34.21C42,22.929,35.676,14.562,21,1z"/>
</svg>
