<?xml version="1.0" encoding="utf-8"?>
<!-- Generator: Adobe Illustrator 18.1.1, SVG Export Plug-In . SVG Version: 6.00 Build 0)  -->
<svg xmlns="http://www.w3.org/2000/svg" xmlns:xlink="http://www.w3.org/1999/xlink" version="1.1" id="Layer_1" x="0px" y="0px" viewBox="0 0 50 50" enable-background="new 0 0 50 50" xml:space="preserve" width="52px" height="52px">
<path d="M26,37.1c0,0.9,0.6,0.9,1.1,0.9c0.6,0,1.1,0,1.1-0.9c0-0.8-2.2-4.1-2.2-4.1S26,35.8,26,37.1z"/>
<path fill="none" stroke="#000000" stroke-width="2" stroke-linecap="round" stroke-linejoin="round" stroke-miterlimit="10" d="  M25,47c-7.4,0-7.5-7.1-9.1-9.2C14.1,36,5,32.3,5,23.2C5,12.2,10.3,3,25,3s20,9.2,20,20.2c0,9.2-9.1,12.8-10.9,14.7  C32.5,39.9,32.4,47,25,47z"/>
<path fill="none" stroke="#000000" stroke-width="2" stroke-linecap="round" stroke-linejoin="round" stroke-miterlimit="10" d="  M27.5,29.5c0.7,0.7,5.9,1,9-2.1s2.8-8.3,2.1-9c-0.7-0.7-5.9-1-9,2.1S26.8,28.8,27.5,29.5z"/>
<path d="M24,33c0,0-2.2,3.3-2.2,4.1c0,0.9,0.5,0.9,1.1,0.9c0.5,0,1.1,0,1.1-0.9C24,35.8,24,33,24,33z"/>
<path fill="none" stroke="#000000" stroke-width="2" stroke-linecap="round" stroke-linejoin="round" stroke-miterlimit="10" d="  M20.5,20.5c-3.1-3.1-8.3-2.8-9-2.1c-0.7,0.7-1,5.9,2.1,9s8.3,2.8,9,2.1S23.6,23.7,20.5,20.5z"/>
</svg>
