<?xml version="1.0" encoding="utf-8"?>
<!-- Generator: Adobe Illustrator 18.1.1, SVG Export Plug-In . SVG Version: 6.00 Build 0)  -->
<svg xmlns="http://www.w3.org/2000/svg" xmlns:xlink="http://www.w3.org/1999/xlink" version="1.1" id="Layer_1" x="0px" y="0px" viewBox="0 0 50 50" enable-background="new 0 0 50 50" xml:space="preserve" width="52px" height="52px">
<path fill="none" stroke="#000000" stroke-width="2" stroke-linecap="round" stroke-linejoin="round" stroke-miterlimit="10" d="  M25,49L15,26c0,0,4.2,1,10,1s10-1,10-1L25,49z"/>
<path fill="none" stroke="#000000" stroke-width="2" stroke-linecap="round" stroke-miterlimit="10" d="M17.2,10.8  C17.1,10.2,17,9.6,17,9c0-4.4,3.6-8,8-8s8,3.6,8,8c0,0.6-0.1,1.3-0.2,1.9"/>
<line fill="none" stroke="#000000" stroke-width="2" stroke-linecap="round" stroke-linejoin="round" stroke-miterlimit="10" x1="31.4" y1="33.6" x2="25" y2="27.2"/>
<line fill="none" stroke="#000000" stroke-width="2" stroke-linecap="round" stroke-linejoin="round" stroke-miterlimit="10" x1="27.9" y1="41.1" x2="16.8" y2="30"/>
<line fill="none" stroke="#000000" stroke-width="2" stroke-linecap="round" stroke-linejoin="round" stroke-miterlimit="10" x1="18.8" y1="33.4" x2="25" y2="27.2"/>
<line fill="none" stroke="#000000" stroke-width="2" stroke-linecap="round" stroke-linejoin="round" stroke-miterlimit="10" x1="22.2" y1="41.1" x2="33.2" y2="30"/>
<path fill="none" stroke="#000000" stroke-width="2" stroke-linecap="round" stroke-miterlimit="10" d="M15,25.9c-2.4-1.4-4-4-4-6.9  c0-4.4,3.6-8,8-8s8,3.6,8,8c0,1.5-0.4,2.9-1.1,4.1"/>
<path fill="none" stroke="#000000" stroke-width="2" stroke-linecap="round" stroke-miterlimit="10" d="M28.2,11.5  C29,11.2,30,11,31,11c4.4,0,8,3.6,8,8c0,2.9-1.5,5.4-3.8,6.8"/>
</svg>
