<?xml version="1.0" encoding="utf-8"?>
<!-- Generator: Adobe Illustrator 17.0.0, SVG Export Plug-In . SVG Version: 6.00 Build 0)  -->
<!DOCTYPE svg PUBLIC "-//W3C//DTD SVG 1.1//EN" "http://www.w3.org/Graphics/SVG/1.1/DTD/svg11.dtd">
<svg xmlns="http://www.w3.org/2000/svg" xmlns:xlink="http://www.w3.org/1999/xlink" version="1.1" id="Layer_1" x="0px" y="0px" width="52px" height="52px" viewBox="0 0 50 50" enable-background="new 0 0 50 50" xml:space="preserve" fill="#00b3a7">

<path fill="none" stroke="#00b3a7" stroke-width="2" stroke-linejoin="round" stroke-miterlimit="10" d="M25,1  C13.952,1,5,5.027,5,10s8.952,9,20,9s20-4.027,20-9S36.048,1,25,1z"/>
<path fill="none" stroke="#00b3a7" stroke-width="2" stroke-linejoin="round" stroke-miterlimit="10" d="M5,10  c0,2.074,0,26.926,0,29c0,4.973,8.952,9,20,9s20-4.027,20-9c0-2.074,0-26.926,0-29"/>
<path fill="none" stroke="#00b3a7" stroke-width="2" stroke-linecap="round" stroke-linejoin="round" stroke-miterlimit="10" d="  M5,30c0,4.973,8.952,9,20,9s20-4.027,20-9"/>
<path fill="none" stroke="#00b3a7" stroke-width="2" stroke-linecap="round" stroke-linejoin="round" stroke-miterlimit="10" d="  M5,20c0,4.973,8.952,9,20,9s20-4.027,20-9"/>
</svg>
