<?xml version="1.0" encoding="utf-8"?>
<!-- Generator: Adobe Illustrator 17.0.0, SVG Export Plug-In . SVG Version: 6.00 Build 0)  -->
<!DOCTYPE svg PUBLIC "-//W3C//DTD SVG 1.1//EN" "http://www.w3.org/Graphics/SVG/1.1/DTD/svg11.dtd">
<svg xmlns="http://www.w3.org/2000/svg" xmlns:xlink="http://www.w3.org/1999/xlink" version="1.1" id="Layer_1" x="0px" y="0px" width="52px" height="52px" viewBox="0 0 50 50" enable-background="new 0 0 50 50" xml:space="preserve" fill="#00b3a7">

<path fill="none" stroke="#00b3a7" stroke-width="2" stroke-miterlimit="10" d="M42,32c-3.865,0-7,3.135-7,7s3.135,7,7,7  s7-3.135,7-7S45.865,32,42,32z M46,40h-4v-6"/>
<g fill="#00b3a7">
	<path fill="none" stroke="#00b3a7" stroke-width="2" stroke-linecap="round" stroke-linejoin="round" stroke-miterlimit="10" d="   M1,6.333v37.334L29,49V1L1,6.333z"/>
</g>
<path fill="none" stroke="#00b3a7" stroke-width="2" stroke-linecap="round" stroke-linejoin="round" stroke-miterlimit="10" d="  M48,35V12H29"/>
<line fill="none" stroke="#00b3a7" stroke-width="2" stroke-linecap="round" stroke-linejoin="round" stroke-miterlimit="10" x1="29" y1="37" x2="34.793" y2="37"/>
<path d="M20.624,18.086c-1.469-1.704-3.394-2.557-5.774-2.557c-2.521,0-4.543,0.891-6.072,2.672  c-1.527,1.78-2.291,4.112-2.291,6.996c0,2.73,0.753,4.946,2.256,6.647c1.504,1.7,3.451,2.55,5.838,2.55  c2.45,0,4.437-0.878,5.961-2.633c1.523-1.756,2.285-4.066,2.285-6.933C22.827,22.039,22.092,19.792,20.624,18.086z M17.734,29.312  c-0.76,1.022-1.788,1.533-3.082,1.533c-1.256,0-2.271-0.526-3.047-1.578c-0.775-1.052-1.164-2.481-1.164-4.287  c0-1.78,0.388-3.212,1.164-4.293c0.775-1.081,1.822-1.622,3.14-1.622c1.279,0,2.287,0.526,3.024,1.578  c0.737,1.052,1.105,2.523,1.105,4.414C18.874,26.872,18.493,28.291,17.734,29.312z" fill="#00b3a7"/>
<polyline fill="none" stroke="#00b3a7" stroke-width="2" stroke-linecap="round" stroke-linejoin="round" stroke-miterlimit="10" points="  29.185,22.137 33.665,25.827 48,17.375 "/>
</svg>
