<?xml version="1.0" encoding="utf-8"?>
<!-- Generator: Adobe Illustrator 17.0.0, SVG Export Plug-In . SVG Version: 6.00 Build 0)  -->
<!DOCTYPE svg PUBLIC "-//W3C//DTD SVG 1.1//EN" "http://www.w3.org/Graphics/SVG/1.1/DTD/svg11.dtd">
<svg xmlns="http://www.w3.org/2000/svg" xmlns:xlink="http://www.w3.org/1999/xlink" version="1.1" id="Layer_1" x="0px" y="0px" width="52px" height="52px" viewBox="0 0 50 50" enable-background="new 0 0 50 50" xml:space="preserve" fill="#00b3a7">


<g fill="#00b3a7">
	<g fill="#00b3a7">
		<circle cx="18" cy="42.5" r="1.5" fill="#00b3a7"/>
	</g>
	<polyline fill="none" stroke="#00b3a7" stroke-width="2" stroke-linejoin="round" stroke-miterlimit="10" points="25,39 5,39 5,6    31,6 31,14  "/>
	<path fill="none" stroke="#00b3a7" stroke-width="2" stroke-linejoin="round" stroke-miterlimit="10" d="M25,46H4   c-1.657,0-3-1.343-3-3V5c0-1.657,1.343-3,3-3h28c1.657,0,3,1.343,3,3v9"/>
</g>
<g fill="#00b3a7">
	<path fill="none" stroke="#00b3a7" stroke-width="2" stroke-linecap="round" stroke-linejoin="round" stroke-miterlimit="10" d="   M49,47c0,1.105-0.895,2-2,2H29c-1.105,0-2-0.895-2-2V18c0-1.105,0.895-2,2-2h18c1.105,0,2,0.895,2,2V47z"/>
	
		<rect x="31" y="20" fill="none" stroke="#00b3a7" stroke-width="2" stroke-linecap="round" stroke-linejoin="round" stroke-miterlimit="10" width="14" height="22"/>
	<g fill="#00b3a7">
		<circle cx="38" cy="45.5" r="1.5" fill="#00b3a7"/>
	</g>
</g>
</svg>
