<?xml version="1.0" encoding="utf-8"?>
<!-- Generator: Adobe Illustrator 18.1.1, SVG Export Plug-In . SVG Version: 6.00 Build 0)  -->
<svg xmlns="http://www.w3.org/2000/svg" xmlns:xlink="http://www.w3.org/1999/xlink" version="1.1" id="Layer_1" x="0px" y="0px" viewBox="0 0 50 50" enable-background="new 0 0 50 50" xml:space="preserve" fill="#00b3a7" width="52px" height="52px">
<path fill="none" stroke="#00b3a7" stroke-width="2" stroke-linejoin="round" stroke-miterlimit="10" d="M43,9H7c-1.7,0-3,1.3-3,3  v22c0,1.7,1.3,3,3,3h36c1.7,0,3-1.3,3-3V12C46,10.3,44.7,9,43,9z"/>
<path fill="none" stroke="#00b3a7" stroke-width="2" stroke-linejoin="round" stroke-miterlimit="10" d="M45,41H5c-2.2,0-4-1.8-4-4  v0h48v0C49,39.2,47.2,41,45,41z"/>
<g fill="#00b3a7">
	<g fill="#00b3a7">
		<path d="M28.2,24.9l-2.7,0.2l1.3,2.8l-1,0.5l-1.2-2.9l-2,1.8l0-7.8L28.2,24.9z" fill="#00b3a7"/>
	</g>
</g>
<rect x="8" y="13" fill="none" stroke="#00b3a7" stroke-width="2" stroke-linejoin="round" stroke-miterlimit="10" width="34" height="20"/>
</svg>
