<?xml version="1.0" encoding="utf-8"?>
<!-- Generator: Adobe Illustrator 17.0.0, SVG Export Plug-In . SVG Version: 6.00 Build 0)  -->
<!DOCTYPE svg PUBLIC "-//W3C//DTD SVG 1.1//EN" "http://www.w3.org/Graphics/SVG/1.1/DTD/svg11.dtd">
<svg xmlns="http://www.w3.org/2000/svg" xmlns:xlink="http://www.w3.org/1999/xlink" version="1.1" id="Layer_1" x="0px" y="0px" width="52px" height="52px" viewBox="0 0 50 50" enable-background="new 0 0 50 50" xml:space="preserve" fill="#00b3a7">

<path fill="none" stroke="#00b3a7" stroke-width="2" stroke-linecap="round" stroke-linejoin="round" stroke-miterlimit="10" d="  M32,35.409v-3.875l-4.612-0.753c-0.273-1.093-0.702-2.119-1.267-3.06l2.688-3.831l-2.74-2.739l-3.782,2.719  c-0.943-0.571-1.976-1.006-3.076-1.28l-0.804-4.589h-3.875l-0.747,4.575c-1.101,0.27-2.14,0.699-3.085,1.268l-3.771-2.694  l-2.74,2.739l2.653,3.793c-0.573,0.95-1.01,1.987-1.287,3.095L1,31.534v3.875l4.549,0.806c0.274,1.106,0.711,2.143,1.287,3.094  l-2.689,3.76l2.739,2.742l3.798-2.66c0.948,0.57,1.985,1.002,3.085,1.274l0.762,4.577h3.875l0.814-4.589  c1.095-0.277,2.129-0.713,3.068-1.285l3.824,2.684l2.74-2.742l-2.73-3.791c0.565-0.941,0.994-1.968,1.265-3.061L32,35.409z   M16.5,38.667c-2.853,0-5.167-2.314-5.167-5.167c0-2.853,2.313-5.167,5.167-5.167s5.167,2.314,5.167,5.167  C21.667,36.354,19.353,38.667,16.5,38.667z"/>
<path fill="none" stroke="#00b3a7" stroke-width="2" stroke-linecap="round" stroke-linejoin="round" stroke-miterlimit="10" d="  M47.844,18.982L49,16.139l-3.159-1.928c0.126-0.883,0.117-1.764-0.017-2.623l3.115-2.009l-1.193-2.827L44.16,7.619  c-0.521-0.7-1.15-1.327-1.875-1.857l0.779-3.607L40.221,1l-1.912,3.133c-0.888-0.13-1.778-0.125-2.642,0.01l-1.963-3.101  l-2.827,1.192l0.815,3.574c-0.704,0.526-1.333,1.157-1.867,1.887l-3.567-0.802l-1.156,2.843l3.097,1.948  c-0.128,0.893-0.118,1.784,0.021,2.654l-3.094,1.957l1.192,2.829l3.58-0.819c0.525,0.701,1.157,1.327,1.884,1.855l-0.806,3.585  l2.843,1.156l1.966-3.124c0.886,0.123,1.775,0.112,2.634-0.028l2.005,3.11l2.828-1.194l-0.872-3.595  c0.695-0.522,1.316-1.147,1.841-1.869L47.844,18.982z M35.501,16.75c-2.093-0.851-3.1-3.238-2.249-5.331s3.238-3.1,5.331-2.249  c2.093,0.851,3.1,3.238,2.249,5.331C39.982,16.593,37.594,17.601,35.501,16.75z"/>
</svg>
