<?xml version="1.0" encoding="utf-8"?>
<!-- Generator: Adobe Illustrator 18.1.1, SVG Export Plug-In . SVG Version: 6.00 Build 0)  -->
<svg xmlns="http://www.w3.org/2000/svg" xmlns:xlink="http://www.w3.org/1999/xlink" version="1.1" id="Layer_1" x="0px" y="0px" viewBox="0 0 50 50" enable-background="new 0 0 50 50" xml:space="preserve" fill="#00b3a7" width="52px" height="52px">
<g fill="#00b3a7">
	<path fill="none" stroke="#00b3a7" stroke-width="2" stroke-linecap="round" stroke-miterlimit="10" d="M30.4,16.5   c-1.3-4.9,1.7-8.9,2.1-9.4c0.7-1.1,2-3.1,0-3.1c-2,0-4.3,1.5-5.8,0c-2.5-2.6-3.8-2.6-5.5-0.2c-1,1.4-2.6,1.4-4.6,1.4   c-4.2,0-3.3,1.7-2,2.9c0.6,0.6,4.3,3.7,3.8,8.8C11.8,18.4,5,26.8,5,34.1C5,43.5,10.3,46,25,46c14.7,0,20-2.5,20-11.9   C45,26.2,37.8,18.6,30.4,16.5z"/>
</g>
<path fill="none" stroke="#00b3a7" stroke-width="2" stroke-linecap="round" stroke-miterlimit="10" d="M13.6,6.1  c2.3,4,5.2,4.8,6.8,3.3c1.8-1.7,2.8-2.5,4.7-0.1c1,1.2,2.7,0.8,3.9-0.3c2.2-2,4.1-2.8,3.9-4.1"/>
<path fill="none" stroke="#00b3a7" stroke-width="2" stroke-linecap="round" stroke-miterlimit="10" d="M18.3,16.7  c0,0,5.4,3.3,12.1-0.4c2.1-1.2,6-5.1,11.1-2.3"/>
<path fill="none" stroke="#00b3a7" stroke-width="2" stroke-linecap="round" stroke-miterlimit="10" d="M30.4,16.3  c1.7-0.7,6.6-2,10.1,1.7"/>
<path d="M29.9,35.6c0-3-2.4-3.8-4.8-4.4c-1.9-0.5-3.7-0.9-3.7-2.8c0-0.8,0.3-2.6,3-2.6c1.9,0,2.8,1.2,3.1,2.6h1.8  c-0.5-2-1.4-3.8-4-4.3V22h-1.8v2c-1.5,0.2-4.1,1.4-4.1,4.6c0,5.8,8.4,2.8,8.4,7.2c0,1.5-0.7,2.8-3.4,2.8c-2.8,0-3.6-2.2-3.6-3.4  h-1.8c0.3,3.9,3,4.8,4.5,5.1V42h1.8v-1.7C26.7,40.2,29.9,39.2,29.9,35.6z" fill="#00b3a7"/>
</svg>
