<?xml version="1.0" encoding="iso-8859-1"?>
<!-- Generator: Adobe Illustrator 21.1.0, SVG Export Plug-In . SVG Version: 6.00 Build 0)  -->
<svg xmlns="http://www.w3.org/2000/svg" xmlns:xlink="http://www.w3.org/1999/xlink" version="1.1" id="Layer_1" x="0px" y="0px" viewBox="0 0 50 50" style="enable-background:new 0 0 50 50;" xml:space="preserve" fill="#00b3a7" width="52px" height="52px">
<circle style="fill:none;stroke:#00b3a7;stroke-width:2;stroke-linecap:round;stroke-linejoin:round;stroke-miterlimit:10;" cx="25" cy="25" r="5" fill="#00b3a7"/>
<path style="fill:none;stroke:#00b3a7;stroke-width:2;stroke-linecap:round;stroke-linejoin:round;stroke-miterlimit:10;" d="  M47,27.709v-5.5l-5.493-0.897c-0.433-1.943-1.203-3.758-2.241-5.385l3.205-4.566l-3.889-3.889l-4.525,3.252  c-1.63-1.037-3.444-1.805-5.389-2.236L27.706,3h-5.5l-0.897,5.495c-1.93,0.43-3.731,1.193-5.351,2.219l-4.543-3.246l-3.89,3.889  l3.203,4.576c-1.032,1.623-1.798,3.427-2.231,5.361L3,22.209v5.5l5.491,0.974c0.43,1.933,1.193,3.736,2.222,5.36l-3.247,4.539  l3.889,3.889l4.575-3.201c1.622,1.035,3.426,1.799,5.36,2.231l0.917,5.5h5.5l0.974-5.492c1.948-0.433,3.764-1.202,5.396-2.243  l4.57,3.205l3.888-3.889l-3.256-4.524c1.036-1.628,1.804-3.442,2.234-5.386L47,27.709z" fill="#00b3a7"/>
<path style="fill:none;stroke:#00b3a7;stroke-width:2;stroke-linecap:round;stroke-linejoin:round;stroke-miterlimit:10;" d="M25,36  c-6.075,0-11-4.927-11-11.001C14,18.927,18.925,14,25,14s11,4.927,11,10.999C36,31.073,31.075,36,25,36z" fill="#00b3a7"/>
</svg>
