<?xml version="1.0" encoding="iso-8859-1"?>
<!-- Generator: Adobe Illustrator 19.2.1, SVG Export Plug-In . SVG Version: 6.00 Build 0)  -->
<svg xmlns="http://www.w3.org/2000/svg" xmlns:xlink="http://www.w3.org/1999/xlink" version="1.1" id="Layer_1" x="0px" y="0px" viewBox="0 0 50 50" style="enable-background:new 0 0 50 50;" xml:space="preserve" fill="#00b3a7" width="52px" height="52px">
<path d="M7,40c0-1.104,0.895-2,2-2s2,0.896,2,2s-0.895,2-2,2S7,41.104,7,40z" fill="#00b3a7"/>
<path style="fill:none;stroke:#00b3a7;stroke-width:2;stroke-linecap:round;stroke-linejoin:round;stroke-miterlimit:10;" d="M3,35  c0-0.552,0.448-1,1-1h42c0.552,0,1,0.448,1,1v10c0,0.552-0.448,1-1,1H4c-0.552,0-1-0.448-1-1V35z" fill="#00b3a7"/>
<line style="fill:none;stroke:#00b3a7;stroke-width:2;stroke-linejoin:round;stroke-miterlimit:10;" x1="15" y1="40" x2="42" y2="40" fill="#00b3a7"/>
<g fill="#00b3a7">
	<g fill="#00b3a7">
		<path style="fill:none;stroke:#00b3a7;stroke-width:2;stroke-linecap:round;stroke-miterlimit:10;" d="M37.904,11.238    C36.127,7.551,32.367,5,28,5c-4.344,0-8.088,2.524-9.876,6.18C17.765,11.074,17.393,11,17,11c-2.209,0-4,1.791-4,4    c0,0.03,0.008,0.058,0.009,0.089C10.168,15.562,8,18.025,8,21c0,3.314,2.686,6,6,6h22c4.418,0,8-3.582,8-8    C44,15.239,41.401,12.093,37.904,11.238z" fill="#00b3a7"/>
	</g>
</g>
</svg>
