<?xml version="1.0" encoding="iso-8859-1"?>
<!-- Generator: Adobe Illustrator 21.1.0, SVG Export Plug-In . SVG Version: 6.00 Build 0)  -->
<svg xmlns="http://www.w3.org/2000/svg" xmlns:xlink="http://www.w3.org/1999/xlink" version="1.1" id="Layer_1" x="0px" y="0px" viewBox="0 0 50 50" style="enable-background:new 0 0 50 50;" xml:space="preserve" fill="#00b3a7" width="52px" height="52px">
<polyline style="fill:none;stroke:#00b3a7;stroke-width:2;stroke-linecap:round;stroke-miterlimit:10;" points="34,19 40,25 34,31   " fill="#00b3a7"/>
<path style="fill:none;stroke:#00b3a7;stroke-width:2;stroke-miterlimit:10;" d="M5,21V9c0-2.2,1.8-4,4-4h32c2.2,0,4,1.8,4,4v32  c0,2.2-1.8,4-4,4H9c-2.2,0-4-1.8-4-4V29" fill="#00b3a7"/>
<polyline style="fill:none;stroke:#00b3a7;stroke-width:2;stroke-miterlimit:10;" points="4.083,25 11,25 11,32 17,32 17,18 11,18   11,11 23,11 23,39 29,39 29,25 39,25 " fill="#00b3a7"/>
</svg>
