<?xml version="1.0" encoding="utf-8"?>
<!-- Generator: Adobe Illustrator 17.1.0, SVG Export Plug-In . SVG Version: 6.00 Build 0)  -->
<!DOCTYPE svg PUBLIC "-//W3C//DTD SVG 1.1//EN" "http://www.w3.org/Graphics/SVG/1.1/DTD/svg11.dtd">
<svg xmlns="http://www.w3.org/2000/svg" xmlns:xlink="http://www.w3.org/1999/xlink" version="1.1" id="Layer_1" x="0px" y="0px" width="52px" height="52px" viewBox="0 0 50 50" style="enable-background:new 0 0 50 50;" xml:space="preserve" fill="#00b3a7">
<style type="text/css">
	.st0{fill:none;stroke:#00b3a7;stroke-width:2;stroke-linecap:round;stroke-linejoin:round;stroke-miterlimit:10;}
	.st1{fill:none;stroke:#00b3a7;stroke-width:1.8156;stroke-linecap:round;stroke-linejoin:round;stroke-miterlimit:10;}
</style>
<path class="st0" d="M28.2,7c-3.9-3.3-6.9-5.3-7.8-5.5L10.2,11.6c0.2,1.8,5.4,8.3,12.6,15.5s14.7,13.4,15.5,12.6l10.2-10.2  c0.3-0.3-2.2-3.9-6.1-8.5" fill="#00b3a7"/>
<path class="st0" d="M39.8,18.2c-1.2-1.3-2.5-2.7-3.9-4.1c-1.6-1.6-3.2-3.1-4.7-4.5" fill="#00b3a7"/>
<path class="st0" d="M10.2,11.6L6.6,26.7c-0.2,0.7,3.2,4.8,7.5,9.2s8.5,7.8,9.2,7.5l15.1-3.6" fill="#00b3a7"/>
<polygon class="st0" points="34.2,1 21.8,13.4 24.6,16.2 27.2,13.6 37,3.8 " fill="#00b3a7"/>
<polygon class="st0" points="49,14.6 36.6,27 33.8,24.2 36.4,21.6 46.2,11.8 " fill="#00b3a7"/>
<polyline class="st1" points="19,40.4 14.4,45 5,35.6 9.6,31 " fill="#00b3a7"/>
<line class="st0" x1="1" y1="46" x2="8.1" y2="38.9" fill="#00b3a7"/>
<line class="st0" x1="4" y1="49" x2="11.1" y2="41.9" fill="#00b3a7"/>
</svg>
