<?xml version="1.0"?>
<svg xmlns="http://www.w3.org/2000/svg" width="52px" height="52px" viewBox="0 0 50 50">
    <path style="text-indent:0;text-align:start;line-height:normal;text-transform:none;block-progression:tb;-inkscape-font-specification:Bitstream Vera Sans" d="M 25 -0.03125 C 24.498884 -0.03125 24.009436 0.0842638 23.5625 0.34375 A 1.0331033 1.0331033 0 0 0 23.53125 0.375 C 23.53125 0.375 17.768276 3.8151194 12 7.34375 C 9.1158618 9.1080653 6.2375477 10.894559 4.0625 12.28125 C 2.9749761 12.974595 2.0592052 13.550158 1.40625 14 C 1.0797724 14.224921 0.82930934 14.432191 0.625 14.59375 C 0.52284533 14.67453 0.43714544 14.751226 0.34375 14.84375 C 0.2970523 14.89001 0.2517616 14.94281 0.1875 15.03125 C 0.1232384 15.11969 -0.00825493 15.199001 -0.03125 15.59375 C -0.05315682 15.969817 0.0361336 16.107879 0.09375 16.21875 C 0.1513664 16.329621 0.22596159 16.3942 0.28125 16.46875 C 0.39182681 16.61785 0.50897382 16.779434 0.65625 16.9375 C 0.95080237 17.253632 1.3459502 17.624527 1.8125 18.0625 C 1.8535913 18.101074 1.9265988 18.148142 1.96875 18.1875 L 1.96875 27.28125 C 1.3847419 27.630472 1 28.27007 1 29 C 1 29.241624 1.0464883 29.473074 1.125 29.6875 C 0.45113651 30.232645 0 31.044673 0 31.96875 C 0 33.149777 0.62347204 34.147505 1.15625 35.03125 C 1.689028 35.914995 2.21875 36.59375 2.21875 36.59375 A 1.0001 1.0001 0 0 0 3.78125 36.625 C 3.78125 36.625 4.3093613 35.942638 4.84375 35.0625 C 5.3781387 34.182362 6 33.158421 6 31.96875 C 6 31.044673 5.5488635 30.232645 4.875 29.6875 C 4.9535117 29.473074 5 29.241624 5 29 C 5 28.28502 4.6267218 27.666099 4.0625 27.3125 L 4.0625 20.09375 C 4.4571044 20.443941 4.7794674 20.737851 5.1875 21.09375 C 7.5879619 23.187509 9.8852654 25.122695 10 25.21875 L 10 25.6875 C 9.6294984 25.724945 9.5369904 25.610301 9.0625 25.84375 C 8.0158301 26.358712 7 27.693937 7 29.8125 C 7 32.061568 8.5815026 33.8779 10.65625 34.40625 C 12.003406 37.90007 13.674413 41.626168 15.90625 44.59375 C 18.230416 47.684099 21.237118 50 25 50 C 28.762931 50 31.769341 47.684335 34.09375 44.59375 C 36.325629 41.626194 37.996623 37.899852 39.34375 34.40625 C 41.428133 33.885036 43 32.068914 43 29.8125 C 43 27.63554 42.003848 26.311551 40.9375 25.8125 C 40.59723 25.653254 40.299995 25.640399 40 25.59375 L 40 25.03125 C 40.306709 24.778248 42.343249 23.09378 44.6875 21.09375 C 45.944658 20.021187 47.202485 18.938202 48.15625 18.0625 C 48.633132 17.624649 49.042856 17.253302 49.34375 16.9375 C 49.494197 16.779599 49.60578 16.648911 49.71875 16.5 C 49.77524 16.42554 49.81578 16.330074 49.875 16.21875 C 49.93422 16.107426 50.053599 15.977405 50.03125 15.59375 C 50.008183 15.198404 49.876774 15.088367 49.8125 15 C 49.74823 14.91163 49.702932 14.889964 49.65625 14.84375 C 49.56289 14.75132 49.477138 14.67448 49.375 14.59375 C 49.170724 14.43229 48.920227 14.224862 48.59375 14 C 47.940796 13.550277 47.025062 12.974519 45.9375 12.28125 C 43.762375 10.894712 40.884259 9.1079999 38 7.34375 C 32.231483 3.8152502 26.46875 0.375 26.46875 0.375 A 1.0331033 1.0331033 0 0 0 26.4375 0.34375 C 25.990564 0.0842638 25.501116 -0.03125 25 -0.03125 z M 25 2.03125 C 25.138093 2.03125 25.276186 2.0807362 25.40625 2.15625 L 25.40625 2.125 C 25.40625 2.125 31.148767 5.5719998 36.90625 9.09375 C 39.784991 10.854625 42.658625 12.658257 44.8125 14.03125 C 45.889438 14.717747 46.792641 15.296126 47.40625 15.71875 C 47.46264 15.75759 47.47971 15.77643 47.53125 15.8125 C 47.307399 16.033889 47.074067 16.233707 46.75 16.53125 C 45.83214 17.373986 44.591092 18.467063 43.34375 19.53125 C 41.689296 20.942772 40.961186 21.542316 40.03125 22.3125 L 40.03125 18 A 1.0331033 1.0331033 0 0 0 39.5 17.09375 C 39.5 17.09375 33.945253 13.96875 25 13.96875 C 16.054747 13.96875 10.5 17.09375 10.5 17.09375 A 1.0331033 1.0331033 0 0 0 9.96875 18 L 9.96875 22.46875 C 9.099017 21.729143 8.2702345 21.02079 6.5625 19.53125 C 5.6121198 18.702298 4.7058491 17.911152 3.90625 17.1875 A 1.0331033 1.0331033 0 0 0 3.4375 16.78125 C 3.3681358 16.717058 3.2846962 16.624407 3.21875 16.5625 C 2.8973424 16.260779 2.6889205 16.035504 2.46875 15.8125 C 2.520289 15.77642 2.53737 15.75759 2.59375 15.71875 C 3.2073026 15.296053 4.1106176 14.717811 5.1875 14.03125 C 7.3412648 12.658128 10.215138 10.854685 13.09375 9.09375 C 18.850974 5.5718806 24.59375 2.125 24.59375 2.125 L 24.59375 2.15625 C 24.723814 2.0807362 24.861907 2.03125 25 2.03125 z M 25 16.03125 C 32.842108 16.03125 37.286973 18.322953 37.96875 18.6875 L 37.96875 22.65625 C 36.39322 22.16257 32.168173 20.96875 25 20.96875 C 17.831827 20.96875 13.60678 22.16257 12.03125 22.65625 L 12.03125 18.6875 C 12.713027 18.322953 17.157892 16.03125 25 16.03125 z M 25 23.03125 C 31.834544 23.03125 36.410272 24.274544 37.9375 24.75 A 1.0331033 1.0331033 0 0 0 38 24.9375 L 38 26.46875 L 38 27.65625 L 39.15625 27.46875 C 39.15625 27.46875 39.628848 27.3908 40.0625 27.59375 C 40.496152 27.796699 41 28.15746 41 29.8125 C 41 31.299584 39.900083 32.447341 38.5 32.59375 L 37.90625 32.65625 L 37.6875 33.25 C 36.344672 36.786048 34.621591 40.554085 32.5 43.375 C 30.378409 46.195915 27.943069 48 25 48 C 22.056882 48 19.621334 46.195651 17.5 43.375 C 15.378666 40.554349 13.686587 36.786072 12.34375 33.25 L 12.125 32.65625 L 11.5 32.59375 C 10.095726 32.450231 9 31.301997 9 29.8125 C 9 28.235063 9.4841699 27.879288 9.9375 27.65625 C 10.39083 27.433212 10.875 27.46875 10.875 27.46875 L 12 27.59375 L 12 26.46875 L 12 24.75 C 13.435907 24.296379 18.042953 23.03125 25 23.03125 z M 3 31 C 3.5728733 31 4 31.432167 4 31.96875 C 4 32.255079 3.6218613 33.264388 3.15625 34.03125 C 3.079862 34.157061 3.074402 34.135156 3 34.25 C 2.9209063 34.127155 2.9252144 34.135129 2.84375 34 C 2.376528 33.224995 2 32.216723 2 31.96875 C 2 31.432167 2.4271267 31 3 31 z" color="#000" overflow="visible" enable-background="accumulate" font-family="Bitstream Vera Sans"/>
</svg>
