<?xml version="1.0" encoding="iso-8859-1"?>
<!-- Generator: Adobe Illustrator 21.1.0, SVG Export Plug-In . SVG Version: 6.00 Build 0)  -->
<svg xmlns="http://www.w3.org/2000/svg" xmlns:xlink="http://www.w3.org/1999/xlink" version="1.1" id="Layer_1" x="0px" y="0px" viewBox="0 0 50 50" style="enable-background:new 0 0 50 50;" xml:space="preserve" fill="#00b3a7" width="52px" height="52px">
<polyline style="fill:none;stroke:#00b3a7;stroke-width:2;stroke-linecap:round;stroke-miterlimit:10;" points="2,37.717   9.811,40.104 10.896,32.075 " fill="#00b3a7"/>
<path style="fill:none;stroke:#00b3a7;stroke-width:2;stroke-miterlimit:10;" d="M9.526,39.258C6.1,35.5,4,30.526,4,25  C4,13.395,13.395,4,25,4" fill="#00b3a7"/>
<path d="M34.977,7.665l-0.864-0.503l0.997-1.727l1.737,0.995l-0.995,1.738C34.977,7.665,35.851,8.168,34.977,7.665z M31.52,6.086  l-0.944-0.322l0.655-1.889l1.888,0.645l-0.655,1.889C31.52,6.086,32.464,6.408,31.52,6.086z M27.822,5.199l-0.993-0.146l0.282-1.976  l0.993,0.136l0,0l0.993,0.146l-0.282,1.977C27.822,5.199,28.815,5.335,27.822,5.199z" fill="#00b3a7"/>
<polyline style="fill:none;stroke:#00b3a7;stroke-width:2;stroke-linecap:round;stroke-miterlimit:10;" points="48,12.283   40.189,9.896 39.104,17.925 " fill="#00b3a7"/>
<path style="fill:none;stroke:#00b3a7;stroke-width:2;stroke-miterlimit:10;" d="M40.474,10.742C43.9,14.5,46,19.474,46,25  c0,11.605-9.395,21-21,21" fill="#00b3a7"/>
<path d="M15.816,42.801l-1.004,1.723l-1.733-1.002l1.002-1.733 M18.404,43.888l0.942,0.326L18.683,46.1l-1.885-0.652l0.663-1.886  C18.404,43.888,17.461,43.562,18.404,43.888z M22.098,44.789l0.993,0.151l-0.29,1.975l-0.992-0.14l0,0l-0.993-0.15l0.29-1.976  C22.098,44.789,21.106,44.649,22.098,44.789z" fill="#00b3a7"/>
</svg>
