<?xml version="1.0" encoding="utf-8"?>
<!-- Generator: Adobe Illustrator 17.0.0, SVG Export Plug-In . SVG Version: 6.00 Build 0)  -->
<!DOCTYPE svg PUBLIC "-//W3C//DTD SVG 1.1//EN" "http://www.w3.org/Graphics/SVG/1.1/DTD/svg11.dtd">
<svg xmlns="http://www.w3.org/2000/svg" xmlns:xlink="http://www.w3.org/1999/xlink" version="1.1" id="Layer_1" x="0px" y="0px" width="52px" height="52px" viewBox="0 0 50 50" enable-background="new 0 0 50 50" xml:space="preserve">

<path d="M18,15c-1.657,0-3-1.343-3-3s1.343-3,3-3c1.657,0,3,1.343,3,3S19.657,15,18,15z"/>
<path fill="none" stroke="#000000" stroke-width="2" stroke-linecap="round" stroke-linejoin="round" stroke-miterlimit="10" d="  M42,44c0,2.209-1.791,4-4,4H12c-2.209,0-4-1.791-4-4V6c0-2.209,1.791-4,4-4h26c2.209,0,4,1.791,4,4V44z"/>
<path fill="none" stroke="#000000" stroke-width="2" stroke-linejoin="round" stroke-miterlimit="10" d="M45.062,9H48  c0.552,0,1,0.448,1,1v2c0,0.552-0.448,1-1,1h-2.938"/>
<path fill="none" stroke="#000000" stroke-width="2" stroke-linejoin="round" stroke-miterlimit="10" d="M42,7h2  c0.552,0,1,0.448,1,1v6c0,0.552-0.448,1-1,1h-2"/>
<path fill="none" stroke="#000000" stroke-width="2" stroke-linecap="round" stroke-linejoin="round" stroke-miterlimit="10" d="  M45.062,23H48c0.552,0,1,0.448,1,1v2c0,0.552-0.448,1-1,1h-2.938"/>
<path fill="none" stroke="#000000" stroke-width="2" stroke-linecap="round" stroke-linejoin="round" stroke-miterlimit="10" d="  M42,21h2c0.552,0,1,0.448,1,1v6c0,0.552-0.448,1-1,1h-2"/>
<path fill="none" stroke="#000000" stroke-width="2" stroke-linecap="round" stroke-linejoin="round" stroke-miterlimit="10" d="  M45.062,37H48c0.552,0,1,0.448,1,1v2c0,0.552-0.448,1-1,1h-2.938"/>
<path fill="none" stroke="#000000" stroke-width="2" stroke-linecap="round" stroke-linejoin="round" stroke-miterlimit="10" d="  M42,35h2c0.552,0,1,0.448,1,1v6c0,0.552-0.448,1-1,1h-2"/>
<path fill="none" stroke="#000000" stroke-width="2" stroke-linecap="round" stroke-linejoin="round" stroke-miterlimit="10" d="  M4.938,9H2c-0.552,0-1,0.448-1,1v2c0,0.552,0.448,1,1,1h2.938"/>
<path fill="none" stroke="#000000" stroke-width="2" stroke-linecap="round" stroke-linejoin="round" stroke-miterlimit="10" d="  M8,7H6C5.448,7,5,7.448,5,8v6c0,0.552,0.448,1,1,1h2"/>
<path fill="none" stroke="#000000" stroke-width="2" stroke-linecap="round" stroke-linejoin="round" stroke-miterlimit="10" d="  M4.938,23H2c-0.552,0-1,0.448-1,1v2c0,0.552,0.448,1,1,1h2.938"/>
<path fill="none" stroke="#000000" stroke-width="2" stroke-linecap="round" stroke-linejoin="round" stroke-miterlimit="10" d="  M8,21H6c-0.552,0-1,0.448-1,1v6c0,0.552,0.448,1,1,1h2"/>
<path fill="none" stroke="#000000" stroke-width="2" stroke-linecap="round" stroke-linejoin="round" stroke-miterlimit="10" d="  M4.938,37H2c-0.552,0-1,0.448-1,1v2c0,0.552,0.448,1,1,1h2.938"/>
<path fill="none" stroke="#000000" stroke-width="2" stroke-linecap="round" stroke-linejoin="round" stroke-miterlimit="10" d="  M8,35H6c-0.552,0-1,0.448-1,1v6c0,0.552,0.448,1,1,1h2"/>
</svg>
