<?xml version="1.0" encoding="utf-8"?>
<!-- Generator: Adobe Illustrator 18.1.1, SVG Export Plug-In . SVG Version: 6.00 Build 0)  -->
<svg xmlns="http://www.w3.org/2000/svg" xmlns:xlink="http://www.w3.org/1999/xlink" version="1.1" id="Layer_1" x="0px" y="0px" viewBox="0 0 50 50" enable-background="new 0 0 50 50" xml:space="preserve" width="52px" height="52px">
<g>
	<polyline fill="none" stroke="#000000" stroke-width="2" stroke-linejoin="round" stroke-miterlimit="10" points="9,17 9,9 41,9    41,23  "/>
	<path fill="none" stroke="#000000" stroke-width="2" stroke-linejoin="round" stroke-miterlimit="10" d="M5,17V8c0-1.7,1.3-3,3-3   h34c1.7,0,3,1.3,3,3v15"/>
</g>
<g>
	<path fill="none" stroke="#000000" stroke-width="2" stroke-linecap="round" stroke-linejoin="round" stroke-miterlimit="10" d="   M49,44c0,0.6-0.4,1-1,1H37c-0.6,0-1-0.4-1-1V26c0-0.6,0.4-1,1-1h11c0.6,0,1,0.4,1,1V44z"/>
	
		<rect x="39" y="28" fill="none" stroke="#000000" stroke-width="2" stroke-linecap="round" stroke-linejoin="round" stroke-miterlimit="10" width="7" height="12"/>
	<circle cx="42.5" cy="42.5" r="1"/>
</g>
<g>
	<path fill="none" stroke="#000000" stroke-width="2" stroke-linecap="round" stroke-linejoin="round" stroke-miterlimit="10" d="   M22,44c0,0.6-0.4,1-1,1H2c-0.6,0-1-0.4-1-1V20c0-0.6,0.4-1,1-1h19c0.6,0,1,0.4,1,1V44z"/>
	
		<rect x="4" y="22" fill="none" stroke="#000000" stroke-width="2" stroke-linecap="round" stroke-linejoin="round" stroke-miterlimit="10" width="15" height="18"/>
	<circle cx="11.5" cy="42.5" r="1"/>
</g>
<line fill="none" stroke="#000000" stroke-width="2" stroke-linejoin="round" stroke-miterlimit="10" x1="24" y1="33" x2="34" y2="33"/>
<line fill="none" stroke="#000000" stroke-width="2" stroke-linecap="square" stroke-linejoin="round" stroke-miterlimit="10" x1="33" y1="36" x2="30" y2="36"/>
<line fill="none" stroke="#000000" stroke-width="2" stroke-linejoin="round" stroke-miterlimit="10" x1="34" y1="42" x2="24" y2="42"/>
<line fill="none" stroke="#000000" stroke-width="2" stroke-linecap="square" stroke-linejoin="round" stroke-miterlimit="10" x1="33" y1="39" x2="30" y2="39"/>
<line fill="none" stroke="#000000" stroke-width="2" stroke-linecap="square" stroke-linejoin="round" stroke-miterlimit="10" x1="30" y1="36" x2="30" y2="39"/>
</svg>
