<?xml version="1.0" encoding="utf-8"?>
<!-- Generator: Adobe Illustrator 18.1.1, SVG Export Plug-In . SVG Version: 6.00 Build 0)  -->
<svg xmlns="http://www.w3.org/2000/svg" xmlns:xlink="http://www.w3.org/1999/xlink" version="1.1" id="Layer_1" x="0px" y="0px" viewBox="0 0 50 50" enable-background="new 0 0 50 50" xml:space="preserve" width="52px" height="52px">
<path fill="none" stroke="#000000" stroke-width="2" stroke-linecap="round" stroke-linejoin="round" stroke-miterlimit="10" d="  M35.7,24.9c-2.3-3.5-6.1-5.6-10.7-5.6c-4.4,0-8.4,2.3-10.7,5.6"/>
<path fill="none" stroke="#000000" stroke-width="2" stroke-linecap="round" stroke-linejoin="round" stroke-miterlimit="10" d="  M16,32c0,0,9.9,4.7,16.3-0.3C35.2,29.5,35,33,35,33"/>
<path fill="none" stroke="#000000" stroke-width="2" stroke-linecap="round" stroke-linejoin="round" stroke-miterlimit="10" d="  M35.2,23.7c0,0,5.1-2.3,5.7-3.7c0.3-0.6-0.3-3.8-1-4.6c-0.6-0.6-4.6-1.5-7.5-1.5s-5,1.8-7.4,1.8S20.6,14,17.7,14s-6.6,0.3-7.6,1.5  s-1.2,4.5-1,4.9c1.9,2.3,5.8,3.7,5.8,3.7"/>
<circle cx="32" cy="19.7" r="1.3"/>
<g>
	<path fill="none" stroke="#000000" stroke-width="2" stroke-linecap="round" stroke-linejoin="round" stroke-miterlimit="10" d="   M39.4,15.2C36.9,9.8,31.5,6,25,6c-6.4,0-11.8,3.7-14.3,9"/>
	<path fill="none" stroke="#000000" stroke-width="2" stroke-linecap="round" stroke-linejoin="round" stroke-miterlimit="10" d="   M9.1,20.5c-3.2,2-5.1,4.9-5.1,7.8c0,4.5,4.2,8.2,10.3,10.3C16.6,41.9,20.4,44,25,44c4.4,0,8.4-2.2,10.7-5.5   C41.8,36.5,46,32.7,46,28.3c0-3.1-2.1-5.8-5.2-7.9"/>
</g>
<path fill="none" stroke="#000000" stroke-width="2" stroke-linecap="round" stroke-linejoin="round" stroke-miterlimit="10" d="  M26.9,19.4c0,0,2.3-2.8,5.1-2.8s4.5,3.2,4.5,3.2s-2.3,1.7-4.5,1.4"/>
<circle cx="18" cy="19.7" r="1.3"/>
<path fill="none" stroke="#000000" stroke-width="2" stroke-linecap="round" stroke-linejoin="round" stroke-miterlimit="10" d="  M18,21.3c-2.2,0.3-4.5-1.4-4.5-1.4s1.7-3.2,4.5-3.2s5.1,2.8,5.1,2.8"/>
<path fill="none" stroke="#000000" stroke-width="2" stroke-linecap="round" stroke-linejoin="round" stroke-miterlimit="10" d="  M40.4,16h2.8c0,0,0.8,1,0.8,2c0,1-0.8,2-0.8,2h-1.8"/>
<g>
	<path fill="none" stroke="#000000" stroke-width="2" stroke-linecap="round" stroke-linejoin="round" stroke-miterlimit="10" d="   M44.1,18.1c0,0,2.9-1.2,3.8-5.1c0.9-3.8-2.1-6.5-2.1-6.5S45,7.7,44.5,8.8"/>
</g>
<path fill="none" stroke="#000000" stroke-width="2" stroke-linecap="round" stroke-linejoin="round" stroke-miterlimit="10" d="  M43.4,16.2c0.9-1,2-2.9,1.5-5.6c-0.7-3.8-4.6-5.1-4.6-5.1s0,1.6-0.3,4.2c-0.4,2.8,2.1,5.2,2.1,5.2c0.2,0.4,0.3,0.7,0.4,1"/>
</svg>
