<?xml version="1.0" encoding="iso-8859-1"?>
<!-- Generator: Adobe Illustrator 19.2.1, SVG Export Plug-In . SVG Version: 6.00 Build 0)  -->
<svg xmlns="http://www.w3.org/2000/svg" xmlns:xlink="http://www.w3.org/1999/xlink" version="1.1" id="Layer_1" x="0px" y="0px" viewBox="0 0 50 50" style="enable-background:new 0 0 50 50;" xml:space="preserve" width="52px" height="52px">
<g>
	<g>
		<path style="fill:none;stroke:#000000;stroke-width:2;stroke-linecap:round;stroke-linejoin:round;stroke-miterlimit:10;" d="    M36,25.307V9.5C36,8.119,34.881,7,33.5,7S31,8.119,31,9.5v10.479l-0.943-1.005l-2.062-8.253l-0.008,0.002l-5.55-6.804    c-0.873-1.07-2.448-1.23-3.518-0.357c-1.07,0.873-1.23,2.448-0.357,3.517l4.857,5.953l1.202,4.811l-3.205-4.358l-0.007,0.005    l-7.717-4.188c-1.214-0.659-2.731-0.209-3.39,1.005c-0.659,1.214-0.209,2.731,1.005,3.39l6.753,3.665L20.735,21h-3.903    c-0.812,0-1.591,0.319-2.169,0.888L9.752,26.72c-0.983,0.969-0.986,2.575-0.025,3.536s2.552,0.994,3.535,0.025l4.053-3.988    l6.805,1.088l3.018,6.231L23,38l-4.999-1l-2.195-3.449c-1.047-1.645-3.117-2.312-4.927-1.588L9,32.715l4.972,9.57l5.253,3.103    c1.122,0.663,2.485,0.778,3.703,0.313l1.83-0.699c3.387-1.294,7.12-1.357,10.549-0.178L41,46.782V30.636L36,25.307z"/>
	</g>
</g>
</svg>
