<?xml version="1.0" encoding="utf-8"?>
<!-- Generator: Adobe Illustrator 18.0.0, SVG Export Plug-In . SVG Version: 6.00 Build 0)  -->
<!DOCTYPE svg PUBLIC "-//W3C//DTD SVG 1.1//EN" "http://www.w3.org/Graphics/SVG/1.1/DTD/svg11.dtd">
<svg xmlns="http://www.w3.org/2000/svg" xmlns:xlink="http://www.w3.org/1999/xlink" version="1.1" id="Слой_1" x="0px" y="0px" viewBox="0 0 50 50" enable-background="new 0 0 50 50" xml:space="preserve" width="52px" height="52px">
<circle fill="none" stroke="#000000" stroke-width="2" stroke-linecap="round" stroke-linejoin="round" stroke-miterlimit="10" cx="14" cy="13" r="7"/>
<circle fill="none" stroke="#000000" stroke-width="2" stroke-linecap="round" stroke-linejoin="round" stroke-miterlimit="10" cx="40" cy="24" r="5"/>
<path fill="none" stroke="#000000" stroke-width="2" stroke-linecap="round" stroke-linejoin="round" stroke-miterlimit="10" d="  M40,32c-1.5,0-3.6,0.5-5.5,1.4c-2.2,1-3.5,3.2-3.5,5.6v4h18v-4c0-2.4-1.4-4.5-3.5-5.6C43.6,32.5,41.5,32,40,32z"/>
<path fill="none" stroke="#000000" stroke-width="2" stroke-linecap="round" stroke-linejoin="round" stroke-miterlimit="10" d="  M38.7,28.8l-16.2-4.5c-3-1-6.7-1.3-8.5-1.3c-1.7,0-5.6,0.3-8.7,1.3c-2.6,0.9-4.3,3.3-4.3,6V43h26v-9.1l4.8,1.1"/>
</svg>
