<?xml version="1.0" encoding="iso-8859-1"?>
<!-- Generator: Adobe Illustrator 20.1.0, SVG Export Plug-In . SVG Version: 6.00 Build 0)  -->
<svg xmlns="http://www.w3.org/2000/svg" xmlns:xlink="http://www.w3.org/1999/xlink" version="1.1" x="0px" y="0px" viewBox="0 0 50 50" style="enable-background:new 0 0 50 50;" xml:space="preserve" width="52px" height="52px">
<circle style="fill:none;stroke:#000000;stroke-width:2;stroke-linecap:round;stroke-linejoin:round;stroke-miterlimit:10;" cx="25" cy="10" r="7"/>
<path style="fill:none;stroke:#000000;stroke-width:2;stroke-linecap:round;stroke-linejoin:round;stroke-miterlimit:10;" d="  M16.5,47l-1.503-17l-4.289,5.879l4.328,4.328c1.057,1.057,1.057,2.771,0,3.828v0c-1.057,1.057-2.771,1.057-3.828,0l-4.621-4.621  c-1.953-1.953-1.941-3.837-0.531-6.254c0,0,4.231-6.917,6.008-9.274C12.526,23.272,14.75,21,18,21c1.279,0,7,0,7,0"/>
<path style="fill:none;stroke:#000000;stroke-width:2;stroke-linecap:round;stroke-linejoin:round;stroke-miterlimit:10;" d="  M33.5,47l1.503-17l4.289,5.879l-4.328,4.328c-1.057,1.057-1.057,2.771,0,3.828v0c1.057,1.057,2.771,1.057,3.828,0l4.621-4.621  c1.953-1.953,1.941-3.837,0.531-6.254c0,0-4.231-6.917-6.008-9.274C37.474,23.272,35.25,21,32,21c-1.279,0-7,0-7,0"/>
<polyline style="fill:none;stroke:#000000;stroke-width:2;stroke-linecap:round;stroke-linejoin:round;stroke-miterlimit:10;" points="  20,21 25,33 30,21 "/>
<path d="M25.339,37.963l-2.903-0.992c-0.342-0.117-0.52-0.477-0.398-0.804l1.78-4.75c0.123-0.327,0.499-0.497,0.842-0.38  l2.903,0.992c0.342,0.117,0.52,0.477,0.398,0.804l-1.78,4.75C26.058,37.91,25.682,38.08,25.339,37.963z"/>
</svg>
