<?xml version="1.0" encoding="utf-8"?>
<!-- Generator: Adobe Illustrator 17.0.0, SVG Export Plug-In . SVG Version: 6.00 Build 0)  -->
<!DOCTYPE svg PUBLIC "-//W3C//DTD SVG 1.1//EN" "http://www.w3.org/Graphics/SVG/1.1/DTD/svg11.dtd">
<svg xmlns="http://www.w3.org/2000/svg" xmlns:xlink="http://www.w3.org/1999/xlink" version="1.1" id="Layer_1" x="0px" y="0px" width="52px" height="52px" viewBox="0 0 50 50" enable-background="new 0 0 50 50" xml:space="preserve">

<line fill="none" stroke="#000000" stroke-width="2" stroke-miterlimit="10" x1="16.643" y1="33.334" x2="1.11" y2="21.053"/>
<line fill="none" stroke="#000000" stroke-width="2" stroke-miterlimit="10" x1="33.357" y1="33.334" x2="48.89" y2="21.053"/>
<path fill="none" stroke="#000000" stroke-width="2" stroke-miterlimit="10" d="M48.89,44.996c0,0-18.4-14.389-19.899-15.56  c-1.498-1.171-3.06-1.44-3.991-1.44c-0.931,0-2.493,0.269-3.991,1.44S1.11,44.996,1.11,44.996"/>
<path fill="none" stroke="#000000" stroke-width="2" stroke-linecap="round" stroke-linejoin="round" stroke-miterlimit="10" d="  M1,20C1,20,19.54,3.567,20.99,2.355C22.422,1.159,24.065,1,25,1c0.935,0,2.579,0.157,4.01,1.355C30.605,3.692,49,20,49,20l0,29H1  L1,20z"/>
<polyline fill="none" stroke="#000000" stroke-width="2" stroke-linecap="round" stroke-linejoin="round" stroke-miterlimit="10" points="  9,27.194 9,18 41,18 41,27.194 "/>
<line fill="none" stroke="#000000" stroke-width="2" stroke-linecap="round" stroke-linejoin="round" stroke-miterlimit="10" x1="15" y1="23" x2="35" y2="23"/>
<line fill="none" stroke="#000000" stroke-width="2" stroke-linecap="round" stroke-linejoin="round" stroke-miterlimit="10" x1="15" y1="28" x2="35" y2="28"/>
</svg>
