<?xml version="1.0" encoding="utf-8"?>
<!-- Generator: Adobe Illustrator 18.1.1, SVG Export Plug-In . SVG Version: 6.00 Build 0)  -->
<svg xmlns="http://www.w3.org/2000/svg" xmlns:xlink="http://www.w3.org/1999/xlink" version="1.1" id="Layer_1" x="0px" y="0px" viewBox="0 0 50 50" enable-background="new 0 0 50 50" xml:space="preserve" width="52px" height="52px">
<path d="M14,18c0.7,0,1.5,0.1,2.3,0.7C17,16.5,18.6,16,20,16c1.1,0,2,0.3,2.6,0.8c0.7-1.1,1.8-1.8,3.4-1.8c0.8,0,1.4,0.2,2,0.5V13  l2-0.8V23c0,0.6-0.4,1-1,1s-1-0.4-1-1v-4c0-0.8-0.5-2-2-2s-2,1.2-2,2v3c0,0.6-0.4,1-1,1s-1-0.4-1-1v-2c0-0.9-0.3-2-2-2  c-1,0-2,0.2-2,3v2c0,0.6-0.4,1-1,1s-1-0.4-1-1c0-2.6-1-3-2-3s-2,0.4-2,3v18c0,3.9,3.1,7,7,7h9.1c2.7,0,5.1-1.5,6.3-3.9l2.8-5.6  c0.3-0.6,0.9-2.2,0.9-3.7c0-4-3.1-4.9-3.2-4.9c-0.4-0.1-0.8-0.5-0.8-1V12.2l2,0.8v15.3c1.7,0.7,4,2.7,4,6.6c0,2.3-1,4.3-1.1,4.6  L36.1,45c-1.5,3.1-4.6,5-8,5H19c-5,0-9-4-9-9V23C10,18.6,12.5,18,14,18z"/>
<path fill="none" stroke="#000000" stroke-width="2" stroke-linecap="round" stroke-linejoin="round" stroke-miterlimit="10" d="  M35,6.7V4.9C35,3,33.4,2,32,2c-1.4,0-3,1-3,3v1.7"/>
<path fill="none" stroke="#000000" stroke-width="2" stroke-linecap="round" stroke-linejoin="round" stroke-miterlimit="10" d="  M24,8.5c0,1.4,1.1,2.5,2.5,2.5S32,9,32,9s-4.1-3-5.5-3S24,7.1,24,8.5z"/>
<path fill="none" stroke="#000000" stroke-width="2" stroke-linecap="round" stroke-linejoin="round" stroke-miterlimit="10" d="  M40,8.5C40,7.1,38.9,6,37.5,6S32,9,32,9s4.1,2,5.5,2S40,9.9,40,8.5z"/>
</svg>
