<?xml version="1.0" encoding="utf-8"?>
<!-- Generator: Adobe Illustrator 17.0.0, SVG Export Plug-In . SVG Version: 6.00 Build 0)  -->
<!DOCTYPE svg PUBLIC "-//W3C//DTD SVG 1.1//EN" "http://www.w3.org/Graphics/SVG/1.1/DTD/svg11.dtd">
<svg xmlns="http://www.w3.org/2000/svg" xmlns:xlink="http://www.w3.org/1999/xlink" version="1.1" id="Layer_1" x="0px" y="0px" width="52px" height="52px" viewBox="0 0 50 50" enable-background="new 0 0 50 50" xml:space="preserve">

<path fill="none" stroke="#000000" stroke-width="2" stroke-linecap="round" stroke-linejoin="round" stroke-miterlimit="10" d="  M31.939,37.384C31.983,42.931,30.113,49,22.801,49c-4.283,0-7.177-5.229-5.158-12.725c0.661,0.17,2.952,0.922,6.408,1.222  C27.983,37.839,31.939,37.384,31.939,37.384z"/>
<path fill="none" stroke="#000000" stroke-width="2" stroke-linecap="round" stroke-linejoin="round" stroke-miterlimit="10" d="  M33.145,27.971c0,0,1.765-5.118,1.849-9.405C35.147,10.747,32.556,1,25.328,1c-7.985,0-9.59,10.832-9.282,14.953  c0.42,5.631,2.726,11.009,2.726,11.009s4.791-1.009,7.06-0.84C28.102,26.29,31.296,27.13,33.145,27.971z"/>
</svg>
