<?xml version="1.0" encoding="utf-8"?>
<!-- Generator: Adobe Illustrator 17.0.0, SVG Export Plug-In . SVG Version: 6.00 Build 0)  -->
<!DOCTYPE svg PUBLIC "-//W3C//DTD SVG 1.1//EN" "http://www.w3.org/Graphics/SVG/1.1/DTD/svg11.dtd">
<svg xmlns="http://www.w3.org/2000/svg" xmlns:xlink="http://www.w3.org/1999/xlink" version="1.1" id="Layer_1" x="0px" y="0px" width="52px" height="52px" viewBox="0 0 50 50" enable-background="new 0 0 50 50" xml:space="preserve">

<path fill="none" stroke="#000000" stroke-width="2" stroke-linecap="round" stroke-linejoin="round" stroke-miterlimit="10" d="  M31.06,8.739c0.23-1.096,1.057-1.869,1.854-1.721c0.797,0.14,1.256,1.142,1.027,2.242c-0.23,1.096-1.059,1.867-1.854,1.723  C31.294,10.836,30.827,9.835,31.06,8.739z"/>
<path fill="none" stroke="#000000" stroke-width="2" stroke-linecap="round" stroke-linejoin="round" stroke-miterlimit="10" d="  M34.06,11.739c0.23-1.096,1.057-1.869,1.854-1.721c0.797,0.14,1.256,1.142,1.027,2.242c-0.23,1.096-1.059,1.867-1.854,1.723  C34.294,13.836,33.827,12.835,34.06,11.739z"/>
<ellipse fill="none" stroke="#000000" stroke-width="2" stroke-linecap="round" stroke-linejoin="round" stroke-miterlimit="10" cx="28.999" cy="6.5" rx="2.001" ry="2.5"/>
<path fill="none" stroke="#000000" stroke-width="2" stroke-linecap="round" stroke-linejoin="round" stroke-miterlimit="10" d="  M22.166,13C20.374,13,17,13.483,17,17.721c0,6.139,6.8,6.089,6.8,12.848c0,5.402-5.304,6.098-5.116,12.23  C18.784,46.095,19.959,49,24.838,49c3.325,0,5.243-3.483,5.243-6.628c0-8.562,5.165-11.126,4.91-19.481  C34.736,14.539,25.516,13,22.166,13z"/>
<path fill="none" stroke="#000000" stroke-width="2" stroke-linecap="round" stroke-linejoin="round" stroke-miterlimit="10" d="  M18.677,9.974c1.616-0.262,2.618-2.481,2.246-4.949c-0.376-2.47-1.987-4.262-3.601-4c-1.614,0.262-2.618,2.481-2.244,4.951  C15.454,8.448,17.063,10.238,18.677,9.974z"/>
<path fill="none" stroke="#000000" stroke-width="2" stroke-linecap="round" stroke-linejoin="round" stroke-miterlimit="10" d="  M24.852,8.992c1.368-0.129,2.317-1.793,2.123-3.723c-0.192-1.932-1.457-3.39-2.826-3.261c-1.368,0.129-2.313,1.795-2.125,3.723  C22.22,7.661,23.487,9.119,24.852,8.992z"/>
</svg>
