<?xml version="1.0" encoding="utf-8"?>
<!-- Generator: Adobe Illustrator 17.0.0, SVG Export Plug-In . SVG Version: 6.00 Build 0)  -->
<!DOCTYPE svg PUBLIC "-//W3C//DTD SVG 1.1//EN" "http://www.w3.org/Graphics/SVG/1.1/DTD/svg11.dtd">
<svg xmlns="http://www.w3.org/2000/svg" xmlns:xlink="http://www.w3.org/1999/xlink" version="1.1" id="Layer_1" x="0px" y="0px" width="52px" height="52px" viewBox="0 0 50 50" enable-background="new 0 0 50 50" xml:space="preserve">



<path fill="none" stroke="#000000" stroke-width="2.1418" stroke-linecap="round" stroke-linejoin="round" stroke-miterlimit="10" d="  M26.833,16H16 M16,8h10.583"/>
<path fill="none" stroke="#000000" stroke-width="2.1056" stroke-linecap="round" stroke-linejoin="round" stroke-miterlimit="10" d="  M5,43c0-1.102,0.848-2,1.889-2h30.222C38.152,41,39,41.898,39,43v6H5V43z"/>
<path fill="none" stroke="#000000" stroke-width="2.1667" stroke-linecap="round" stroke-linejoin="round" stroke-miterlimit="10" d="  M27,8c0-1.102,0.898-2,2-2h4c1.102,0,2,0.898,2,2v8c0,1.102-0.898,2-2,2h-4c-1.102,0-2-0.898-2-2V8z"/>
<path fill="none" stroke="#000000" stroke-width="2" stroke-linecap="round" stroke-linejoin="round" stroke-miterlimit="10" d="  M16.435,41.023L4.838,19.029 M15.99,17.408l13.35,23.575"/>
<polyline fill="none" stroke="#000000" stroke-width="1.9379" stroke-linecap="round" stroke-linejoin="round" stroke-miterlimit="10" points="  35.109,15.934 39.111,21 49,15.6 "/>
<polyline fill="none" stroke="#000000" stroke-width="1.9379" stroke-linecap="round" stroke-linejoin="round" stroke-miterlimit="10" points="  49,8.4 39.111,3 35.073,8.111 "/>
<g>
	<path fill="none" stroke="#000000" stroke-width="2" stroke-linecap="round" stroke-linejoin="round" stroke-miterlimit="10" d="   M9,7.357c2.559,0,4.642,2.084,4.642,4.643S11.559,16.643,9,16.643S4.358,14.559,4.358,12S6.441,7.357,9,7.357 M9,4   c-4.416,0-8,3.584-8,8s3.584,8,8,8s8-3.584,8-8S13.416,4,9,4L9,4z"/>
</g>
</svg>
