<?xml version="1.0" encoding="utf-8"?>
<!-- Generator: Adobe Illustrator 17.0.2, SVG Export Plug-In . SVG Version: 6.00 Build 0)  -->
<!DOCTYPE svg PUBLIC "-//W3C//DTD SVG 1.1//EN" "http://www.w3.org/Graphics/SVG/1.1/DTD/svg11.dtd">
<svg xmlns="http://www.w3.org/2000/svg" xmlns:xlink="http://www.w3.org/1999/xlink" version="1.1" id="Layer_1" x="0px" y="0px" width="52px" height="52px" viewBox="0 0 50 50" enable-background="new 0 0 50 50" xml:space="preserve">
<path d="M27,42h-2v2h-2v-2h-2v-2h2v-2h2v2h2V42z"/>
<path fill="none" stroke="#000000" stroke-width="2" stroke-linecap="round" stroke-linejoin="round" stroke-miterlimit="10" d="  M32,18.226c0,0,5.768,7.06,7.864,9.609c1.857,2.26,5.532,5.078,9.136,3.879c-1.534-3.596-2.951-6.32-4.151-9.018  C41.037,17.441,31.316,5.769,31.316,5.769"/>
<path fill="none" stroke="#000000" stroke-width="2" stroke-linecap="round" stroke-linejoin="round" stroke-miterlimit="10" d="  M16,37.34c0,0-6-1.692-6-6.766c0-2.434-0.338-3.957-1.613-5.011c-0.405-0.335-1.668-0.811-2.253-0.406  c0.501,0.881,1.946,4.035,1.172,4.507C6.24,30.312,2.536,29.045,2.846,23C1.468,23.133,1,24.481,1,27.033  c0,7.571,15.24,15.913,15.24,15.913"/>
<path fill="none" stroke="#000000" stroke-width="2.0119" stroke-linecap="round" stroke-linejoin="round" stroke-miterlimit="10" d="  M16,17.692l-2.003-1.299L14,14.081l-2.085-0.292l0.389-2.474l-2.474-0.389l0.389-2.474L7.744,8.063l0.389-2.474L5.659,5.2  l0.389-2.473L3.574,2.338C2.846,2.17,1.593,1.251,1.133,1c-0.307,1.953-0.185,6.755,1.491,9.055L16,28.658"/>
<path fill="none" stroke="#000000" stroke-width="2" stroke-linecap="round" stroke-linejoin="round" stroke-miterlimit="10" d="  M32,9c0-4.418-3.582-8-8-8s-8,3.582-8,8c0,2.681,0,29.319,0,32c0,4.418,3.582,8,8,8s8-3.582,8-8C32,38.319,32,11.681,32,9z"/>
<circle cx="24" cy="9" r="2"/>
</svg>
