<?xml version="1.0" encoding="iso-8859-1"?>
<!-- Generator: Adobe Illustrator 21.1.0, SVG Export Plug-In . SVG Version: 6.00 Build 0)  -->
<svg xmlns="http://www.w3.org/2000/svg" xmlns:xlink="http://www.w3.org/1999/xlink" version="1.1" id="Layer_1" x="0px" y="0px" viewBox="0 0 50 50" style="enable-background:new 0 0 50 50;" xml:space="preserve" width="52px" height="52px">
<polygon style="fill:none;stroke:#000000;stroke-width:2;stroke-linejoin:round;stroke-miterlimit:10;" points="47,15 3,15   3,13.286 25,3 47,13.286 "/>
<path style="fill:none;stroke:#000000;stroke-width:2;stroke-miterlimit:10;" d="M45.154,42H4.846C3.826,42,3,42.896,3,44v2h44v-2  C47,42.896,46.174,42,45.154,42z"/>
<path style="fill:none;stroke:#000000;stroke-width:2;stroke-miterlimit:10;" d="M42.154,38H7.846C6.826,38,6,38.896,6,40v2h38v-2  C44,38.896,43.174,38,42.154,38z"/>
<path style="fill:none;stroke:#000000;stroke-width:2;stroke-linejoin:round;stroke-miterlimit:10;" d="M6,15v1  c0,1.104,0.854,2,1.909,2h34.182C43.146,18,44,17.104,44,16v-1"/>
<rect x="8" y="18" style="fill:none;stroke:#000000;stroke-width:2;stroke-linejoin:round;stroke-miterlimit:10;" width="4" height="20"/>
<rect x="38" y="18" style="fill:none;stroke:#000000;stroke-width:2;stroke-linejoin:round;stroke-miterlimit:10;" width="4" height="20"/>
<rect x="28" y="18" style="fill:none;stroke:#000000;stroke-width:2;stroke-linejoin:round;stroke-miterlimit:10;" width="4" height="20"/>
<rect x="18" y="18" style="fill:none;stroke:#000000;stroke-width:2;stroke-linejoin:round;stroke-miterlimit:10;" width="4" height="20"/>
</svg>
